<?xml version="1.0" encoding="iso-8859-1"?>
<!-- Generator: Adobe Illustrator 19.0.0, SVG Export Plug-In . SVG Version: 6.00 Build 0)  -->
<svg version="1.1" id="Capa_1" xmlns="http://www.w3.org/2000/svg" xmlns:xlink="http://www.w3.org/1999/xlink" x="0px" y="0px"
	 viewBox="0 0 448 448" style="enable-background:new 0 0 448 448;" xml:space="preserve">
<path style="fill:#EAEAE8;" d="M104,8h240c8.837,0,16,7.163,16,16v184l0,0H88l0,0V24C88,15.163,95.163,8,104,8z"/>
<path style="fill:#DBDBDB;" d="M376,256v16H72v-16l16-64v-16.336L360,176v16L376,256z"/>
<g>
	<path style="fill:#B9B9B9;" d="M366,216l-6-24H88l-6,24H366z"/>
	<path style="fill:#B9B9B9;" d="M72,256h304v64H72V256z"/>
</g>
<path style="fill:#D9D9D9;" d="M96,280h256v16H96V280z"/>
<path style="fill:#EAEAE8;" d="M344,440H104l24-152h192L344,440z"/>
<path style="fill:#F9E0A0;" d="M304,408H144l16-120v-8h128v8L304,408z"/>
<circle style="fill:#5B3726;" cx="224" cy="100" r="48"/>
<circle style="fill:#4799CF;" cx="224" cy="100" r="20"/>
<path style="fill:#6CBAE5;" d="M296,40h32v32h-32V40z"/>
<path style="fill:#4799CF;" d="M296,40h24v24h-24V40z"/>
<circle style="fill:#5B3726;" cx="128" cy="152" r="16"/>
<g>
	<circle style="fill:#4799CF;" cx="224" cy="352" r="24"/>
	<path style="fill:#4799CF;" d="M182.496,288l29.16,26.76c6.59,6.817,17.458,7.002,24.276,0.412c0.14-0.135,0.277-0.273,0.412-0.412
		L265.496,288H182.496z"/>
</g>
<path id="SVGCleanerId_0" style="fill:#D9D9D9;" d="M96,280h256v8H96V280z"/>
<g>
	<path id="SVGCleanerId_0_1_" style="fill:#D9D9D9;" d="M96,280h256v8H96V280z"/>
</g>
<path style="fill:#32B39B;" d="M176,192h96v64h-96V192z"/>
<path style="fill:#D970A2;" d="M208,192h64v64h-64V192z"/>
<path style="fill:#F27E55;" d="M240,192h32v64h-32V192z"/>
<path style="fill:#289F87;" d="M176,192h32v24h-32V192z"/>
<path style="fill:#C75B93;" d="M208,192h32v24h-32V192z"/>
<path style="fill:#F26B32;" d="M240,192h32v24h-32V192z"/>
<path d="M64,256v64c0,4.418,3.582,8,8,8h41.6L96.104,438.752c-0.689,4.364,2.29,8.461,6.654,9.15
	c0.411,0.065,0.826,0.098,1.242,0.098h240c4.418-0.003,7.997-3.588,7.994-8.006c0-0.416-0.033-0.831-0.098-1.242L334.4,328H376
	c4.418,0,8-3.582,8-8v-64c-0.046-0.381-0.121-0.758-0.224-1.128c-0.04-0.272,0.048-0.544,0-0.8L368,191.024V24
	c0-13.255-10.745-24-24-24H104C90.745,0,80,10.745,80,24v167.024l-15.76,63.032c-0.064,0.272,0,0.544,0,0.8
	C64.131,255.231,64.051,255.613,64,256L64,256z M113.36,432l21.472-136h16l-14.76,110.944c-0.583,4.38,2.494,8.403,6.874,8.986
	c0.349,0.047,0.702,0.07,1.054,0.07h160c4.418-0.001,7.999-3.584,7.998-8.002c0-0.352-0.023-0.705-0.07-1.054L297.136,296h16
	l21.504,136H113.36z M224,336c8.837,0,16,7.163,16,16s-7.163,16-16,16c-8.837,0-16-7.163-16-16S215.163,336,224,336z
	 M217.064,308.52l-12.536-11.512h38.944l-12.536,11.512c-3.385,3.831-9.234,4.192-13.065,0.807
	C217.586,309.075,217.316,308.805,217.064,308.52L217.064,308.52z M179.784,296l26.448,24.304c1.209,1.105,2.507,2.108,3.88,3
	c-15.922,7.67-22.611,26.795-14.941,42.717s26.795,22.611,42.717,14.941c15.922-7.67,22.611-26.795,14.941-42.717
	c-3.145-6.529-8.413-11.796-14.941-14.941c1.373-0.892,2.671-1.895,3.88-3L268.216,296h12.8l13.864,104H153.144l13.864-104H179.784z
	 M368,312h-36.112l-2.528-16H352v-16H96v16h22.64l-2.528,16H80v-48h288V312z M94.248,200H168v48H82.248L94.248,200z M232,200v48h-16
	v-48H232z M264,200v48h-16v-48H264z M353.752,200l12,48H280v-48H353.752z M200,248h-16v-48h16V248z M96,24c0-4.418,3.582-8,8-8h240
	c4.418,0,8,3.582,8,8v160H96L96,24z"/>
<path d="M224,156c30.928,0,56-25.072,56-56s-25.072-56-56-56s-56,25.072-56,56C168.035,130.913,193.087,155.965,224,156z M224,60
	c22.091,0,40,17.909,40,40s-17.909,40-40,40s-40-17.909-40-40C184.026,77.92,201.92,60.026,224,60z"/>
<path d="M224,128c15.464,0,28-12.536,28-28s-12.536-28-28-28c-15.464,0-28,12.536-28,28S208.536,128,224,128z M224,88
	c6.627,0,12,5.373,12,12c0,6.627-5.373,12-12,12s-12-5.373-12-12C212,93.373,217.373,88,224,88z"/>
<path d="M296,80h32c4.418,0,8-3.582,8-8V40c0-4.418-3.582-8-8-8h-32c-4.418,0-8,3.582-8,8v32C288,76.418,291.582,80,296,80z M304,48
	h16v16h-16V48z"/>
<path d="M128,128c-13.255,0-24,10.745-24,24s10.745,24,24,24s24-10.745,24-24S141.255,128,128,128z M128,160c-4.418,0-8-3.582-8-8
	s3.582-8,8-8c4.418,0,8,3.582,8,8S132.418,160,128,160z"/>
<g>
</g>
<g>
</g>
<g>
</g>
<g>
</g>
<g>
</g>
<g>
</g>
<g>
</g>
<g>
</g>
<g>
</g>
<g>
</g>
<g>
</g>
<g>
</g>
<g>
</g>
<g>
</g>
<g>
</g>
</svg>
