<svg xmlns="http://www.w3.org/2000/svg" xmlns:xlink="http://www.w3.org/1999/xlink" xmlns:fi="http://pattern.flaticon.com/" x="0" y="0" width="700" height="350" viewBox="0 0 700 350"><rect x="0px" y="0px" width="100%" height="100%" opacity="0" fill="#fbfefe"/><defs><g transform="matrix(0.17578125 0 0 0.17578125 305 305)" id="L1_182"><g><path d="m222.061 375.939v-56.527h-192.367v182.588h192.367v-35.649" fill="#ffee80"/><g><path d="m29.694 136.824h192.367v182.588h-192.367z" fill="#ccf5fc"/><path d="m125.877 38.959-96.183 97.865h192.367z" fill="#c193dc"/><g fill="#faf7f5"><path d="m171.897 502h-92.04v-54.729c0-25.415 20.603-46.018 46.018-46.018h.003c25.415 0 46.018 20.603 46.018 46.018v54.729z"/><path d="m171.897 319.412h-92.04v-54.597c0-25.415 20.603-46.018 46.018-46.018h.003c25.415 0 46.018 20.603 46.018 46.018v54.597z"/></g></g><path d="m385.234 435.47-49.66-127.976c-5.854-10.206-16.608-16.483-28.238-16.483h-85.275v66.374h66.491l49.66 127.976c5.854 10.206 16.608 16.483 28.238 16.483h115.856v-66.374z" fill="#ff7d97"/><path d="m286.062 291.01h-64.002v-112.543h.002c35.346 0 64 28.654 64 64z" fill="#fff7bf"/></g><g><path d="m230.37 415.779c-2.214-3.377-6.485-5.081-10.42-4.225-4.151.903-7.317 4.42-7.819 8.632-.494 4.139 1.771 8.272 5.51 10.104 3.706 1.816 8.247 1.156 11.263-1.671 3.524-3.305 4.136-8.827 1.466-12.84z"/><path d="m482.307 425.47h-90.227l-47.184-121.594c-.182-.469-.398-.923-.648-1.358-7.609-13.267-21.753-21.508-36.913-21.508h-11.274v-38.543c0-37.412-27.908-68.429-64.001-73.326v-32.317c0-.232-.008-.463-.024-.695-.127-1.846-.755-3.555-1.749-4.99-.299-.433-.632-.84-.995-1.221-.033-.035-.066-.069-.1-.104l-93.315-94.947v-24.867c0-5.523-4.478-10-10-10s-10 4.477-10 10v24.868l-93.315 94.947c-.034.034-.067.069-.1.104-.363.381-.696.788-.995 1.221-.994 1.436-1.622 3.144-1.749 4.99-.005.07-.009.14-.013.21-.008.157-.011.314-.012.471v.014 365.175c0 5.522 4.478 10 10 10h192.367c5.522 0 10-4.478 10-10v-35.648c0-5.522-4.478-10-10-10s-10 4.478-10 10v25.648h-30.164v-44.729c0-30.889-25.131-56.018-56.021-56.018-30.889 0-56.019 25.13-56.019 56.018v44.729h-30.163v-162.588h172.367v46.526c0 5.522 4.478 10 10 10s10-4.478 10-10v-8.555h49.646l47.184 121.594c.182.469.398.923.648 1.358 7.609 13.267 21.753 21.508 36.913 21.508h115.856c5.522 0 10-4.478 10-10v-66.373c0-5.523-4.478-10-10-10zm-392.45 21.801c0-19.86 16.159-36.018 36.021-36.018 19.86 0 36.019 16.158 36.019 36.018v44.729h-72.04zm142.206-257.876c25.013 4.704 43.999 26.713 43.999 53.071v38.543h-44.001zm-106.186-136.169 72.334 73.599h-144.668zm-36.02 256.186v-44.598c0-19.86 16.159-36.019 36.021-36.019 19.86 0 36.019 16.158 36.019 36.019v44.598zm92.039 0v-44.598c0-30.889-25.131-56.019-56.021-56.019-30.889 0-56.019 25.13-56.019 56.019v44.598h-30.163v-162.588h172.367v162.588zm290.411 182.432h-105.857c-7.788 0-15.088-4.147-19.213-10.868l-49.363-127.209c-1.492-3.848-5.195-6.383-9.322-6.383h-56.491v-46.374h75.275c7.788 0 15.088 4.147 19.213 10.868l49.363 127.209c1.492 3.848 5.195 6.383 9.322 6.383h87.072v46.374z"/></g></g><g transform="matrix(0.09765625 0 0 0.09765625 150 325)" id="L1_183"><g><path d="m105.418 305.482v167.486h83.189v-32.162c0-37.331 30.173-67.594 67.393-67.594 37.22 0 67.393 30.263 67.393 67.594v32.162h83.189v-167.486z" fill="#ff7d97"/><path d="m406.582 392.541h95.418v80.427h-95.418z" fill="#ffee80"/><path d="m10 392.541h95.418v80.427h-95.418z" fill="#ffee80"/><path d="m160.311 236.548v-79.609h191.378v79.609" fill="#fff7bf"/><path d="m397.722 156.939h-283.444l141.722-117.907z" fill="#c193dc"/><path d="m210.794 236.548h-75.45v68.934h241.312v-68.934h-75.45" fill="#ccf5fc"/></g><g><path d="m502 382.541h-85.418v-77.059c0-5.522-4.477-10-10-10h-19.926v-58.934c0-5.523-4.477-10-10-10h-14.967v-59.609h36.033c4.212 0 7.972-2.639 9.404-6.6s.229-8.395-3.009-11.088l-141.722-117.906c-3.706-3.084-9.085-3.084-12.791 0l-141.722 117.906c-3.238 2.693-4.441 7.127-3.009 11.088s5.192 6.6 9.404 6.6h36.033v59.609h-14.967c-5.523 0-10 4.477-10 10v58.934h-19.926c-5.523 0-10 4.478-10 10v77.059h-85.417c-5.523 0-10 4.478-10 10v80.427c0 5.522 4.477 10 10 10h178.606c5.523 0 10-4.478 10-10v-32.162c0-31.757 25.747-57.594 57.394-57.594s57.394 25.837 57.394 57.594v32.162c0 5.522 4.477 10 10 10h178.606c5.523 0 10-4.478 10-10v-80.427c0-5.522-4.477-10-10-10zm-246-330.501 114.066 94.898h-228.132zm-110.656 194.508h65.45c5.523 0 10-4.478 10-10 0-5.523-4.477-10-10-10h-40.484v-59.609h171.379v59.609h-40.483c-5.523 0-10 4.477-10 10 0 5.522 4.477 10 10 10h65.45v48.934h-221.312zm-125.344 155.993h75.417v60.427h-75.417zm236-39.329c-42.675 0-77.394 34.809-77.394 77.594v22.162h-63.189v-147.485h281.165v147.485h-63.189v-22.162c.001-42.785-34.718-77.594-77.393-77.594zm236 99.756h-75.418v-60.427h75.418z"/><path d="m265.42 232.72c-1.605-3.85-5.558-6.38-9.735-6.154-4.051.219-7.663 2.918-8.966 6.77-1.334 3.944-.035 8.456 3.245 11.043 3.287 2.592 7.933 2.859 11.492.656 4.123-2.55 5.796-7.842 3.964-12.315z"/></g></g><g transform="matrix(0.05859375 0 0 0.05859375 335 160)" id="L1_184"><g><path d="m388.489 229.164h-264.978c-62.691 0-113.511 50.82-113.511 113.51s50.82 113.511 113.511 113.511c58.287 0 106.313-43.932 112.772-100.49h39.435c6.459 56.558 54.485 100.49 112.772 100.49 62.69 0 113.511-50.82 113.511-113.511s-50.821-113.51-113.512-113.51z" fill="#ccf5fc"/><circle cx="371" cy="371" r="21" fill="#ff7d97"/><circle cx="429" cy="313" r="21" fill="#fff7bf"/><path d="m173 320.079h-23.745v-23.745h-45.191v23.745h-23.745v45.191h23.745v23.745h45.191v-23.745h23.745z" fill="#c193dc"/><path d="m198.851 182.334h114.298v46.83h-114.298z" fill="#99ebfa"/></g><g><path d="m86.739 65.815h297.535c7.578 0 13.744 6.166 13.744 13.744 0 7.579-6.166 13.745-13.744 13.745h-107.104c-5.522 0-10 4.478-10 10s4.478 10 10 10h107.105c18.606 0 33.744-15.138 33.744-33.745s-15.138-33.744-33.744-33.744h-297.536c-5.523 0-10 4.478-10 10 0 5.523 4.478 10 10 10z"/><path d="m240.1 97.75c-2.432-3.549-6.898-5.247-11.063-4.055-3.97 1.136-6.867 4.679-7.22 8.79-.357 4.153 2.047 8.214 5.84 9.926 3.752 1.693 8.283.88 11.192-2.04 3.339-3.351 3.836-8.676 1.251-12.621z"/><path d="m388.489 219.164h-65.341v-36.83c0-5.523-4.478-10-10-10h-45.451v-6.189c0-17.98-14.627-32.606-32.606-32.606h-173.117c-5.579 0-10.117-4.538-10.117-10.116 0-5.579 4.538-10.117 10.117-10.117h124.784c5.523 0 10-4.478 10-10s-4.477-10-10-10h-124.784c-16.606 0-30.117 13.511-30.117 30.117s13.511 30.116 30.117 30.116h173.117c6.951 0 12.606 5.655 12.606 12.606v6.189h-48.846c-5.522 0-10 4.477-10 10v36.83h-65.341c-68.104 0-123.51 55.406-123.51 123.51s55.406 123.511 123.511 123.511c59.82 0 110.502-42.608 121.371-100.489h22.236c10.869 57.882 61.551 100.489 121.371 100.489 68.105 0 123.511-55.406 123.511-123.511 0-68.104-55.406-123.51-123.511-123.51zm-179.637-26.83h94.297v26.83h-94.297zm179.637 253.851c-52.661 0-96.871-39.39-102.836-91.624-.577-5.051-4.852-8.865-9.935-8.865h-39.436c-5.084 0-9.358 3.814-9.936 8.865-5.965 52.234-50.175 91.624-102.836 91.624-57.075 0-103.51-46.435-103.51-103.511 0-57.075 46.435-103.51 103.511-103.51h264.979c57.076 0 103.511 46.435 103.511 103.51-.001 57.076-46.436 103.511-103.512 103.511z"/><path d="m173 310.078h-13.744v-13.744c0-5.523-4.478-10-10-10h-45.192c-5.522 0-10 4.477-10 10v13.744h-13.745c-5.522 0-10 4.478-10 10v45.191c0 5.522 4.478 10 10 10h13.744v13.745c0 5.523 4.478 10 10 10h45.192c5.522 0 10-4.477 10-10v-13.744h13.745c5.523 0 10-4.478 10-10v-45.191c0-5.523-4.477-10.001-10-10.001zm-10 45.192h-13.744c-5.523 0-10 4.478-10 10v13.745h-25.192v-13.745c0-5.522-4.478-10-10-10h-13.745v-25.191h13.744c5.522 0 10-4.478 10-10v-13.744h25.192v13.744c0 5.522 4.477 10 10 10h13.745z"/><path d="m349.276 349.415c-12.261 12.261-12.26 32.211 0 44.472 5.94 5.94 13.837 9.211 22.236 9.211s16.297-3.271 22.235-9.211c5.941-5.939 9.212-13.836 9.212-22.236 0-8.399-3.271-16.296-9.211-22.236-12.261-12.261-32.21-12.262-44.472 0zm30.331 30.329c-.001 0-.001 0 0 0-2.163 2.163-5.037 3.354-8.095 3.354-3.057 0-5.932-1.191-8.094-3.354-4.463-4.463-4.463-11.725-.001-16.188 2.232-2.231 5.163-3.348 8.095-3.348s5.863 1.116 8.094 3.348c2.162 2.162 3.354 5.037 3.354 8.094 0 3.058-1.19 5.932-3.353 8.094z"/><path d="m429.466 282.251c-8.4 0-16.297 3.271-22.235 9.211-5.94 5.939-9.212 13.836-9.212 22.236 0 8.399 3.271 16.296 9.211 22.236 6.131 6.13 14.184 9.195 22.236 9.195 8.053 0 16.105-3.065 22.236-9.195 5.94-5.94 9.211-13.837 9.211-22.236 0-8.4-3.271-16.297-9.211-22.235-5.939-5.941-13.836-9.212-22.236-9.212zm8.094 39.541c-2.161 2.162-5.036 3.353-8.094 3.353s-5.933-1.19-8.094-3.353c-2.162-2.162-3.354-5.037-3.354-8.094 0-3.058 1.19-5.932 3.354-8.095 2.162-2.162 5.036-3.352 8.094-3.352s5.932 1.19 8.095 3.353c2.162 2.162 3.353 5.036 3.353 8.094-.001 3.057-1.192 5.932-3.354 8.094z"/></g></g><g transform="matrix(0.13671875 0 0 0.13671875 140 140)" id="L1_185"><g><path d="m364.628 163.45.003-.004-144.359-153.385v153.389z" fill="#faf7f5"/><path d="m220.272 10.061-144.36 153.385.003.004h144.357z" fill="#ff7d97"/><path d="m75.915 163.45 144.357 200.409v-200.409z" fill="#99ebfa"/><path d="m220.272 163.45v200.409l144.356-200.409z" fill="#fff7bf"/></g><g><path d="m415.972 404.289h-173.097c-6.961 0-12.605-5.643-12.605-12.605v-24.598l142.472-197.792c.245-.339.816-1.344.824-1.36 1.875-3.727 1.242-8.265-1.653-11.342l-144.36-153.384s-.007-.007-.019-.02c-3.911-4.259-10.637-4.247-14.542.018-.001.002-.002.003-.002.003l-144.359 153.384c-2.87 3.049-3.497 7.513-1.727 11.189.005.01.877 1.482.899 1.512l142.47 197.792v24.598c0 18.006 14.597 32.603 32.602 32.603h172.8c5.265 0 9.873 3.9 10.366 9.142.565 6.014-4.17 11.09-10.069 11.09h-44.913c-5.325 0-9.976 4.018-10.32 9.332-.378 5.823 4.235 10.665 9.977 10.665h44.615c16.386 0 30.254-12.823 30.741-29.201.505-17.019-13.192-31.026-30.1-31.026zm-185.702-71.418v-159.422h114.833zm0-179.419v-118.178l111.224 118.178zm-19.997-118.178v118.178h-111.225zm0 138.175v159.422l-114.833-159.422z"/><path d="m391.208 492.002h-187.636c-7.578 0-13.743-6.165-13.743-13.743 0-7.577 6.165-13.742 13.743-13.742h76.742c5.522 0 9.999-4.477 9.999-9.999s-4.477-9.999-9.999-9.999h-76.742c-18.605 0-33.741 15.136-33.741 33.74 0 18.605 15.136 33.741 33.741 33.741h187.636c5.522 0 9.999-4.477 9.999-9.999s-4.477-9.999-9.999-9.999z"/><path d="m317.381 460.066c2.329 3.459 6.691 5.178 10.746 4.149 3.99-1.012 7.032-4.461 7.497-8.557.471-4.153-1.757-8.256-5.509-10.101-3.801-1.868-8.482-1.103-11.484 1.89-3.337 3.328-3.857 8.701-1.25 12.619z"/></g></g><path d="M165,0C74.019,0,0,74.019,0,165s74.019,165,165,165c90.982,0,165-74.019,165-165S255.982,0,165,0z" transform="matrix(0.03030303120613098 0 0 0.03030303120613098 257.5 257.5)" id="L1_186" fill="#49c1a3"/></defs><g fi:class="KUsePattern"><pattern id="pattern_L1_182" width="350" height="350" patternUnits="userSpaceOnUse"><use xlink:href="#L1_182" x="-350" y="-350"/><use xlink:href="#L1_182" x="0" y="-350"/><use xlink:href="#L1_182" x="350" y="-350"/><use xlink:href="#L1_182" x="-350" y="0"/><use xlink:href="#L1_182" x="0" y="0"/><use xlink:href="#L1_182" x="350" y="0"/><use xlink:href="#L1_182" x="-350" y="350"/><use xlink:href="#L1_182" x="0" y="350"/><use xlink:href="#L1_182" x="350" y="350"/></pattern><rect x="0" y="0" width="100%" height="100%" fill="url(#pattern_L1_182)"/></g><g fi:class="KUsePattern"><pattern id="pattern_L1_183" width="350" height="350" patternUnits="userSpaceOnUse"><use xlink:href="#L1_183" x="-350" y="-350"/><use xlink:href="#L1_183" x="0" y="-350"/><use xlink:href="#L1_183" x="350" y="-350"/><use xlink:href="#L1_183" x="-350" y="0"/><use xlink:href="#L1_183" x="0" y="0"/><use xlink:href="#L1_183" x="350" y="0"/><use xlink:href="#L1_183" x="-350" y="350"/><use xlink:href="#L1_183" x="0" y="350"/><use xlink:href="#L1_183" x="350" y="350"/></pattern><rect x="0" y="0" width="100%" height="100%" fill="url(#pattern_L1_183)"/></g><g fi:class="KUsePattern"><pattern id="pattern_L1_184" width="350" height="350" patternUnits="userSpaceOnUse"><use xlink:href="#L1_184" x="-350" y="-350"/><use xlink:href="#L1_184" x="0" y="-350"/><use xlink:href="#L1_184" x="350" y="-350"/><use xlink:href="#L1_184" x="-350" y="0"/><use xlink:href="#L1_184" x="0" y="0"/><use xlink:href="#L1_184" x="350" y="0"/><use xlink:href="#L1_184" x="-350" y="350"/><use xlink:href="#L1_184" x="0" y="350"/><use xlink:href="#L1_184" x="350" y="350"/></pattern><rect x="0" y="0" width="100%" height="100%" fill="url(#pattern_L1_184)"/></g><g fi:class="KUsePattern"><pattern id="pattern_L1_185" width="350" height="350" patternUnits="userSpaceOnUse"><use xlink:href="#L1_185" x="-350" y="-350"/><use xlink:href="#L1_185" x="0" y="-350"/><use xlink:href="#L1_185" x="350" y="-350"/><use xlink:href="#L1_185" x="-350" y="0"/><use xlink:href="#L1_185" x="0" y="0"/><use xlink:href="#L1_185" x="350" y="0"/><use xlink:href="#L1_185" x="-350" y="350"/><use xlink:href="#L1_185" x="0" y="350"/><use xlink:href="#L1_185" x="350" y="350"/></pattern><rect x="0" y="0" width="100%" height="100%" fill="url(#pattern_L1_185)"/></g><g fi:class="KUsePattern"><pattern id="pattern_L1_186" width="350" height="350" patternUnits="userSpaceOnUse"><use xlink:href="#L1_186" x="-350" y="-350"/><use xlink:href="#L1_186" x="0" y="-350"/><use xlink:href="#L1_186" x="350" y="-350"/><use xlink:href="#L1_186" x="-350" y="0"/><use xlink:href="#L1_186" x="0" y="0"/><use xlink:href="#L1_186" x="350" y="0"/><use xlink:href="#L1_186" x="-350" y="350"/><use xlink:href="#L1_186" x="0" y="350"/><use xlink:href="#L1_186" x="350" y="350"/></pattern><rect x="0" y="0" width="100%" height="100%" fill="url(#pattern_L1_186)"/></g></svg>