<svg xmlns="http://www.w3.org/2000/svg" xmlns:xlink="http://www.w3.org/1999/xlink" xmlns:fi="http://pattern.flaticon.com/" x="0" y="0" width="700" height="350" viewBox="0 0 700 350"><rect x="0px" y="0px" width="100%" height="100%" opacity="0" fill="#ffffff"/><defs><g transform="matrix(0.0390625 0 0 0.0390625 252.5 340)" id="L1_0"><path d="m390.991 504.5h-269.982c-15.094 0-27.33-12.236-27.33-27.33v-442.34c0-15.094 12.236-27.33 27.33-27.33h269.982c15.094 0 27.33 12.236 27.33 27.33v442.34c0 15.094-12.236 27.33-27.33 27.33z" fill="#365e7d"/><path d="m390.991 7.5h-20.739c15.094 0 27.33 12.236 27.33 27.33v442.34c0 15.094-12.236 27.33-27.33 27.33h20.739c15.094 0 27.33-12.236 27.33-27.33v-442.341c.001-15.093-12.236-27.329-27.33-27.329z" fill="#2b4d66"/><path d="m128.68 424.163v-353.328c0-4.087 3.313-7.4 7.4-7.4h239.842c4.087 0 7.4 3.313 7.4 7.4v353.328c0 4.087-3.313 7.4-7.4 7.4h-239.843c-4.086 0-7.399-3.313-7.399-7.4z" fill="#b1e4f9" stroke="#b1e4f9"/><path d="m375.922 63.436h-27.305c4.087 0 7.4 3.313 7.4 7.399v353.328c0 4.086-3.313 7.399-7.4 7.399h27.305c4.087 0 7.4-3.313 7.4-7.399v-353.328c-.001-4.086-3.314-7.399-7.4-7.399z" fill="#90d8f9"/><g><path d="m264.945 40.906c4.143 0 7.5-3.357 7.5-7.5s-3.357-7.5-7.5-7.5h-17.89c-4.143 0-7.5 3.357-7.5 7.5s3.357 7.5 7.5 7.5z"/><path d="m241.072 461.287c-4.143 0-7.5 3.357-7.5 7.5s3.357 7.5 7.5 7.5h29.856c4.143 0 7.5-3.357 7.5-7.5s-3.357-7.5-7.5-7.5z"/><path d="m233.389 165.214c0-4.143-3.357-7.5-7.5-7.5h-15.909c-4.143 0-7.5 3.357-7.5 7.5s3.357 7.5 7.5 7.5h8.409v66.931c0 4.143 3.357 7.5 7.5 7.5s7.5-3.357 7.5-7.5z"/><path d="m225.889 356.495c4.143 0 7.5-3.357 7.5-7.5v-74.431c0-4.143-3.357-7.5-7.5-7.5h-15.909c-4.143 0-7.5 3.357-7.5 7.5s3.357 7.5 7.5 7.5h8.409v66.931c0 4.143 3.357 7.5 7.5 7.5z"/><path d="m305.287 183.53c0-14.637-11.908-26.545-26.546-26.545-12.656 0-23.61 9.004-26.047 21.408-.798 4.064 1.85 8.007 5.914 8.805 4.069.796 8.008-1.85 8.805-5.914 1.059-5.388 5.822-9.299 11.328-9.299 6.227 0 11.317 4.953 11.538 11.126-.077.228.171 5.027-6.918 15.156-11.803 16.865-18.846 26.086-22.63 31.04-4.594 6.016-6.495 8.505-5.199 12.721.754 2.454 2.615 4.339 5.107 5.17 1.025.343 2.072.692 16.274.692 5.668 0 13.432-.056 24.122-.19 4.142-.052 7.457-3.451 7.404-7.594-.052-4.142-3.448-7.504-7.594-7.404-8.26.104-17.056.168-23.989.17 4.189-5.569 10.274-13.831 18.793-26.003 4.195-5.991 9.638-15.642 9.638-23.339z"/><path d="m280.498 358.014c16.004 0 29.023-13.02 29.023-29.023v-34.422c0-16.004-13.02-29.023-29.023-29.023s-29.023 13.02-29.023 29.023v34.422c0 16.003 13.019 29.023 29.023 29.023zm-14.023-63.446c0-7.732 6.291-14.023 14.023-14.023s14.023 6.291 14.023 14.023v34.422c0 7.732-6.291 14.023-14.023 14.023s-14.023-6.291-14.023-14.023z"/><path d="m290.805 107.233c0-4.143-3.357-7.5-7.5-7.5h-54.609c-4.143 0-7.5 3.357-7.5 7.5s3.357 7.5 7.5 7.5h54.609c4.142 0 7.5-3.357 7.5-7.5z"/><path d="m390.991 0h-269.982c-19.205 0-34.83 15.624-34.83 34.829v381.708c0 4.143 3.357 7.5 7.5 7.5s7.5-3.357 7.5-7.5v-381.708c0-10.934 8.896-19.829 19.83-19.829h269.982c10.935 0 19.83 8.896 19.83 19.829v442.341c0 10.935-8.896 19.83-19.83 19.83h-269.982c-10.935 0-19.83-8.896-19.83-19.83v-30.646c0-4.143-3.357-7.5-7.5-7.5s-7.5 3.357-7.5 7.5v30.646c0 19.205 15.625 34.83 34.83 34.83h269.982c19.205 0 34.83-15.625 34.83-34.83v-442.341c0-19.205-15.625-34.829-34.83-34.829z"/><path d="m121.18 70.835v353.328c0 8.216 6.684 14.899 14.899 14.899h239.843c8.216 0 14.899-6.684 14.899-14.899v-353.328c0-8.216-6.684-14.899-14.899-14.899h-54.742c-4.143 0-7.5 3.357-7.5 7.5s3.357 7.5 7.5 7.5h54.642v353.127h-239.642v-353.127h155.013c4.143 0 7.5-3.357 7.5-7.5s-3.357-7.5-7.5-7.5h-155.114c-8.216 0-14.899 6.683-14.899 14.899z"/></g></g><g transform="matrix(0.17578125 0 0 0.17578125 217.5 217.5)" id="L1_1"><path d="m367.876 46.853c0-21.686 17.58-39.266 39.266-39.266h-305.632c-17.246 0-31.226 13.98-31.226 31.226v355.585h297.592v-288.279z" fill="#ffe07d"/><path d="m383.436 7.586c-21.686 0-39.266 17.58-39.266 39.266v39.266 20 96.449c0 9.162-6.018 17.312-14.835 19.799-65.025 18.335-112.685 78.087-112.685 148.978 0 18.637 3.296 36.504 9.333 53.053h118.187 23.706v-318.278-59.266c0-21.686 17.58-39.266 39.266-39.266h-23.706z" fill="#ffd064"/><path d="m332.001 424.397h-268.985c-30.66 0-55.516-24.855-55.516-55.516v-14.537h324.5v70.053z" fill="#eab14d"/><path d="m216.649 371.345c0 18.637 3.296 36.504 9.333 53.053h106.018v-70.053h-114.418c-.61 5.584-.933 11.254-.933 17z" fill="#e49542"/><circle cx="371" cy="371" r="133" fill="#dd636e"/><path d="m371.431 238.276c-3.528 0-7.023.14-10.482.41 68.592 5.345 122.587 62.695 122.587 132.659s-53.994 127.314-122.586 132.659c3.459.27 6.954.41 10.482.41 73.492 0 133.069-59.577 133.069-133.069s-59.578-133.069-133.07-133.069z" fill="#da4a54"/><circle cx="371" cy="371" r="99" fill="#f4fbff"/><path d="m371.431 272.09c-4.599 0-9.123.32-13.556.925 48.403 6.611 85.7 48.112 85.7 98.33s-37.297 91.719-85.7 98.33c4.433.605 8.957.925 13.556.925 54.817 0 99.255-44.438 99.255-99.255s-44.438-99.255-99.255-99.255z" fill="#daf1f4"/><path d="m439.419 106.119h-71.543v-59.266c0-21.686 17.58-39.266 39.266-39.266 21.686 0 39.266 17.58 39.266 39.266v52.277c.001 3.86-3.129 6.989-6.989 6.989z" fill="#eab14d"/><path d="m419.934 9.729c-4.011-1.382-8.311-2.143-12.791-2.143-21.686 0-39.266 17.58-39.266 39.266v59.266h25.583v-59.265c-.001-17.206 11.07-31.817 26.474-37.124z" fill="#e49542"/><g><path d="m320.418 60.309h-196.727c-4.143 0-7.5 3.357-7.5 7.5s3.357 7.5 7.5 7.5h196.727c4.143 0 7.5-3.357 7.5-7.5s-3.357-7.5-7.5-7.5z"/><path d="m320.418 135.097h-196.727c-4.143 0-7.5 3.357-7.5 7.5s3.357 7.5 7.5 7.5h196.727c4.143 0 7.5-3.357 7.5-7.5s-3.357-7.5-7.5-7.5z"/><path d="m320.418 209.886h-196.727c-4.143 0-7.5 3.357-7.5 7.5s3.357 7.5 7.5 7.5h196.727c4.143 0 7.5-3.357 7.5-7.5s-3.357-7.5-7.5-7.5z"/><path d="m371.432 264.589c-58.865 0-106.755 47.89-106.755 106.755s47.889 106.756 106.755 106.756 106.755-47.891 106.755-106.756-47.89-106.755-106.755-106.755zm0 198.511c-50.594 0-91.755-41.161-91.755-91.756 0-50.594 41.161-91.755 91.755-91.755s91.755 41.161 91.755 91.755c0 50.595-41.162 91.756-91.755 91.756z"/><path d="m371.432 310.136c4.143 0 7.5-3.357 7.5-7.5v-3.436c0-4.143-3.357-7.5-7.5-7.5s-7.5 3.357-7.5 7.5v3.436c0 4.143 3.357 7.5 7.5 7.5z"/><path d="m417.144 315.027-2.43 2.429c-2.93 2.929-2.931 7.678-.003 10.606 2.926 2.928 7.675 2.933 10.606.003l2.43-2.429c2.93-2.929 2.931-7.678.003-10.606-2.929-2.931-7.678-2.93-10.606-.003z"/><path d="m432.64 371.344c0 4.143 3.357 7.5 7.5 7.5h3.436c4.143 0 7.5-3.357 7.5-7.5s-3.357-7.5-7.5-7.5h-3.436c-4.143 0-7.5 3.358-7.5 7.5z"/><path d="m302.723 363.844h-3.436c-4.143 0-7.5 3.357-7.5 7.5s3.357 7.5 7.5 7.5h3.436c4.143 0 7.5-3.357 7.5-7.5s-3.358-7.5-7.5-7.5z"/><path d="m425.317 414.625c-2.93-2.93-7.679-2.929-10.606.003-2.928 2.929-2.927 7.678.003 10.606l2.43 2.429c2.926 2.926 7.677 2.929 10.606-.003 2.928-2.929 2.927-7.678-.003-10.606z"/><path d="m371.432 432.553c-4.143 0-7.5 3.357-7.5 7.5v3.436c0 4.143 3.357 7.5 7.5 7.5s7.5-3.357 7.5-7.5v-3.436c0-4.142-3.358-7.5-7.5-7.5z"/><path d="m317.543 414.625-2.429 2.429c-2.929 2.93-2.929 7.678 0 10.607 2.931 2.929 7.678 2.928 10.607 0l2.429-2.429c2.929-2.93 2.929-7.678 0-10.607-2.929-2.927-7.677-2.927-10.607 0z"/><path d="m325.722 315.028c-2.93-2.928-7.678-2.928-10.607 0-2.929 2.93-2.929 7.678 0 10.607l2.429 2.429c2.931 2.929 7.678 2.928 10.607 0 2.929-2.93 2.929-7.678 0-10.607z"/><path d="m391.874 363.844h-12.942v-32.084c0-4.143-3.357-7.5-7.5-7.5s-7.5 3.357-7.5 7.5v39.584c0 4.143 3.357 7.5 7.5 7.5h20.442c4.143 0 7.5-3.357 7.5-7.5s-3.357-7.5-7.5-7.5z"/><path d="m485.521 289.224c-2.424-3.36-7.11-4.117-10.471-1.697-3.359 2.423-4.119 7.11-1.697 10.471 15.47 21.455 23.647 46.818 23.647 73.346 0 69.239-56.33 125.569-125.568 125.569-69.239 0-125.569-56.33-125.569-125.569 0-69.238 56.33-125.568 125.569-125.568 30.53 0 59.962 11.095 82.873 31.24 3.109 2.732 7.85 2.431 10.585-.681 2.734-3.11 2.431-7.85-.681-10.585-24.662-21.685-56.072-33.996-88.833-34.913v-117.218h64.043c7.989 0 14.489-6.5 14.489-14.489v-52.277c0-26.351-21.828-46.767-45.995-46.767h-176.27c-4.143 0-7.5 3.357-7.5 7.5s3.357 7.5 7.5 7.5h141.219c-7.741 8.348-12.486 19.511-12.486 31.767v184.356c-40.323 3.152-75.922 23.391-99.542 53.465h-137.143c-4.143 0-7.5 3.357-7.5 7.5s3.357 7.5 7.5 7.5h126.861c-8.507 14.293-14.556 30.209-17.549 47.17h-155.219v-308.032c0-13.082 10.644-23.726 23.726-23.726h100.146c4.143 0 7.5-3.357 7.5-7.5s-3.357-7.5-7.5-7.5h-100.146c-21.354 0-38.726 17.372-38.726 38.726v308.032h-55.284c-4.143 0-7.5 3.357-7.5 7.5v14.537c0 34.747 28.27 63.016 63.017 63.016h24.154c4.143 0 7.5-3.357 7.5-7.5s-3.357-7.5-7.5-7.5h-24.154c-26.477 0-48.017-21.54-48.017-48.016v-7.037h216.19c-.211 3.141-.328 6.307-.328 9.5 0 15.937 2.671 31.26 7.58 45.553h-121.284c-4.143 0-7.5 3.357-7.5 7.5s3.357 7.5 7.5 7.5h127.43c22.664 47.284 71.002 80.017 126.843 80.017 77.51 0 140.568-63.06 140.568-140.569.001-29.698-9.155-58.095-26.478-82.121zm-46.613-242.371v51.766h-63.532v-51.766c0-17.517 14.25-31.767 31.767-31.767 17.515 0 31.765 14.25 31.765 31.767z"/></g></g><g transform="matrix(0.13206017156295854 -0.03538541632261026 0.03538541632261026 0.13206017156295854 132.1339295012944 150.25126265847084)" id="L1_2"><circle cx="256" cy="256" r="248" fill="#eab14d"/><path d="m256 7.5c-4.836 0-9.636.153-14.403.426 130.537 7.462 234.096 115.667 234.096 248.074 0 132.406-103.559 240.612-234.097 248.074 4.768.272 9.567.426 14.403.426 137.243 0 248.5-111.257 248.5-248.5.001-137.243-111.257-248.5-248.499-248.5z" fill="#e49542"/><path d="m454.653 255.998c0 109.72-88.94 198.66-198.65 198.66-109.72 0-198.66-88.94-198.66-198.66 0-109.71 88.94-198.65 198.66-198.65 4.577 0 15.958 67.372 20.458 67.677 96.898 6.561 92.471 8.25 101.823 104.358.623 6.407 76.369 20.044 76.369 26.615z" fill="#f4fbff"/><path d="m378.283 229.383c-9.351-96.107-4.925-97.797-101.823-104.358-4.5-.305 55.206 8.25 64.558 104.358.624 6.407 76.369 20.044 76.369 26.615 0 103.435-79.047 188.389-180.018 197.783 6.136.571 12.349.876 18.634.876 109.71 0 198.65-88.94 198.65-198.66 0-6.57-75.746-20.207-76.37-26.614z" fill="#daf1f4"/><path d="m454.653 255.998h-198.65v-198.65c109.71 0 198.65 88.94 198.65 198.65z" fill="#dd636e"/><path d="m256.003 57.348v3.505c91.895 17.444 161.385 98.174 161.385 195.145h37.265c0-109.71-88.94-198.65-198.65-198.65z" fill="#da4a54"/><g><path d="m173.444 358.335c-13.806 0-25.564-10.164-27.476-23.858-.178-1.271-.268-2.574-.268-3.877 0-4.143-3.357-7.5-7.5-7.5s-7.5 3.357-7.5 7.5c0 1.995.139 3.998.412 5.951 2.945 21.114 21.059 36.786 42.327 36.784 22.705 0 41.505-17.962 42.673-40.472 1.271-24.508-18.18-44.999-42.677-44.999-5.892 0-10.472.481-14.498 1.378l5.449-32.889h36.926c4.143 0 7.5-3.357 7.5-7.5s-3.357-7.5-7.5-7.5h-43.285c-3.669 0-6.8 2.654-7.399 6.274l-8.575 51.756c-.997 6.028 5.319 10.704 10.825 7.897 6.924-3.553 12.887-4.417 20.558-4.417 15.767 0 28.529 13.175 27.696 29.222-.756 14.598-12.952 26.25-27.688 26.25z"/><path d="m174.096 445.23c25.918 11.232 53.476 16.928 81.907 16.928 113.671 0 206.149-92.483 206.149-206.16 0-113.672-92.479-206.15-206.149-206.15-113.677 0-206.16 92.479-206.16 206.15 0 72.78 37.936 137.827 96.697 174.715 3.506 2.2 8.136 1.146 10.339-2.364 2.203-3.508 1.145-8.137-2.364-10.339-54.275-34.076-89.672-94.256-89.672-162.012 0-102.888 81.718-187.035 183.66-190.99v84.354c0 4.143 3.357 7.5 7.5 7.5s7.5-3.357 7.5-7.5v-84.354c99.447 3.858 179.631 84.043 183.489 183.49h-183.489v-69.148c0-4.143-3.357-7.5-7.5-7.5s-7.5 3.357-7.5 7.5v76.648c0 4.143 3.357 7.5 7.5 7.5h190.989c-3.954 101.942-88.101 183.66-190.989 183.66-26.368 0-51.919-5.279-75.942-15.691-3.8-1.646-8.216.1-9.864 3.899-1.647 3.801.098 8.217 3.899 9.864z"/><path d="m481.849 135.393c-1.956-3.652-6.499-5.034-10.151-3.074-3.652 1.954-5.029 6.499-3.074 10.15 18.564 34.694 28.376 73.952 28.376 113.531 0 133.193-107.789 241-241 241-133.194 0-241-107.787-241-241 0-133.194 107.787-241 241-241 79.53 0 152.413 38.872 197.149 102.371 2.385 3.387 7.064 4.198 10.45 1.812 3.387-2.385 4.197-7.064 1.812-10.45-47.697-67.705-125.264-108.733-209.411-108.733-141.488 0-256 114.502-256 256 0 141.488 114.502 256 256 256 141.484 0 256-114.498 256-256 0-42.039-10.427-83.745-30.151-120.607z"/></g></g><g transform="matrix(0.078125 0 0 0.078125 155 330)" id="L1_3"><path d="m403.23 135.495-33.804-37.679-19.636-63.139-93.79-10.824v-.022l-.097.011-.097-.011v.022l-93.79 10.824-19.636 63.139-33.804 37.679-54.134 1.021v149.19l5.14 93.728 55.114 6.451 26.87 39.367 20.399 49.954 66.427 9.485h27.414.194 27.415l66.427-9.485 20.398-49.954 26.87-39.367 55.114-6.451 5.14-93.728v-149.19z" fill="#664545"/><g fill="#523838"><path d="m369.426 97.816-19.636-63.139-93.79-10.824v-.022l-.097.011-.097-.011v.022l-93.79 10.824-19.636 63.139-33.804 37.679-54.134 1.021v33.358h34.747c51.838 0 94.011-42.173 94.011-94.01 0-7.571 6.159-13.73 13.73-13.73h118.141c7.57 0 13.729 6.159 13.729 13.73 0 51.837 42.174 94.01 94.012 94.01h34.552v-33.358l-54.134-1.021z"/><path d="m452.224 379.434 2.046-37.309h-31.458c-51.838 0-94.012 42.173-94.012 94.011 0 7.571-6.159 13.73-13.729 13.73h-118.14c-7.571 0-13.73-6.159-13.73-13.73 0-51.838-42.173-94.011-94.011-94.011h-31.654l2.046 37.309 55.114 6.451 26.87 39.367 20.398 49.954 66.427 9.486h27.414.195 27.414l66.427-9.486 20.399-49.954 26.87-39.367z"/></g><path d="m42.704 136.516h33.756v242.918h-33.756z" fill="#eab14d"/><path d="m435.54 136.516h33.756v242.918h-33.756z" fill="#eab14d"/><g fill="#e49542"><path d="m42.705 171.791c1.014.174 2.049.284 3.113.284h30.642v-35.559h-33.755z"/><path d="m435.54 172.075h30.643c1.063 0 2.099-.11 3.113-.284v-35.275h-33.756z"/><path d="m435.54 378.442h30.643c1.063 0 2.099-.11 3.113-.284v-36.066c-1.014-.174-2.049-.284-3.113-.284h-30.643z"/><path d="m42.705 378.158c1.014.174 2.049.284 3.113.284h30.642v-36.634h-30.643c-1.063 0-2.099.11-3.113.284v36.066z"/></g><path d="m466.183 151.874h-43.371c-41.913 0-76.012-34.099-76.012-76.011 0-17.497-14.234-31.73-31.729-31.73h-118.14c-17.497 0-31.73 14.234-31.73 31.73 0 41.912-34.099 76.011-76.011 76.011h-43.373c-10.116 0-18.317-8.201-18.317-18.317s8.201-18.317 18.317-18.317h43.373c21.712 0 39.377-17.665 39.377-39.377 0-37.696 30.668-68.364 68.364-68.364h118.141c37.695 0 68.363 30.668 68.363 68.364 0 21.712 17.665 39.377 39.378 39.377h43.371c10.116 0 18.317 8.201 18.317 18.317s-8.202 18.317-18.318 18.317z" fill="#8b5e5e"/><g fill="#785252"><path d="m363.434 75.864c0 21.712 17.665 39.377 39.378 39.377h20c-21.713 0-39.378-17.665-39.378-39.377 0-37.696-30.668-68.364-68.363-68.364h-20c37.696 0 68.363 30.667 68.363 68.364z"/><path d="m466.183 115.241h-20c10.116 0 18.317 8.201 18.317 18.317s-8.201 18.317-18.317 18.317h20c10.116 0 18.317-8.201 18.317-18.317 0-10.117-8.201-18.317-18.317-18.317z"/></g><path d="m466.183 360.125h-43.371c-41.913 0-76.012 34.099-76.012 76.011 0 17.496-14.234 31.73-31.729 31.73h-118.14c-17.497 0-31.73-14.234-31.73-31.73 0-41.912-34.099-76.011-76.011-76.011h-43.373c-10.116 0-18.317 8.201-18.317 18.317s8.201 18.317 18.317 18.317h43.373c21.712 0 39.377 17.665 39.377 39.377 0 37.696 30.668 68.364 68.364 68.364h118.141c37.695 0 68.363-30.668 68.363-68.364 0-21.712 17.665-39.377 39.378-39.377h43.371c10.116 0 18.317-8.201 18.317-18.317s-8.202-18.317-18.318-18.317z" fill="#8b5e5e"/><g fill="#785252"><path d="m363.434 436.135c0 37.696-30.668 68.364-68.363 68.364h20c37.695 0 68.363-30.668 68.363-68.364 0-21.712 17.665-39.377 39.378-39.377h-20c-21.713.001-39.378 17.665-39.378 39.377z"/><path d="m466.183 360.125h-20c10.116 0 18.317 8.201 18.317 18.317s-8.201 18.317-18.317 18.317h20c10.116 0 18.317-8.201 18.317-18.317s-8.201-18.317-18.317-18.317z"/></g><circle cx="256" cy="256" r="93" fill="#f4fbff"/><path d="m256 162.016c-3.998 0-7.937.252-11.804.736 46.334 5.806 82.18 45.34 82.18 93.248s-35.846 87.441-82.18 93.248c3.867.485 7.806.736 11.804.736 51.906 0 93.984-42.078 93.984-93.984s-42.078-93.984-93.984-93.984z" fill="#daf1f4"/><circle cx="256" cy="102" r="32" fill="#f4fbff"/><path d="m256 69.683c-3.196 0-6.281.464-9.203 1.314 13.693 3.982 23.704 16.614 23.704 31.592s-10.011 27.61-23.704 31.592c2.921.85 6.007 1.314 9.203 1.314 18.174 0 32.906-14.733 32.906-32.906 0-18.174-14.732-32.906-32.906-32.906z" fill="#daf1f4"/><path d="m275.946 437.102h-39.892c-4.232 0-7.663-3.431-7.663-7.663v-19.946c0-15.248 12.361-27.608 27.608-27.608 15.248 0 27.608 12.361 27.608 27.608v19.946c.002 4.232-3.429 7.663-7.661 7.663z" fill="#8b5e5e"/><path d="m256 381.885c-3.102 0-6.081.519-8.864 1.463 10.898 3.694 18.745 14 18.745 26.146v19.946c0 4.232-3.43 7.662-7.661 7.663h17.726c4.232 0 7.663-3.431 7.663-7.663v-19.946c0-15.249-12.361-27.609-27.609-27.609z" fill="#785252"/><g><path d="m476.796 354.916v-197.833c8.955-4.056 15.204-13.071 15.204-23.525 0-14.235-11.581-25.817-25.816-25.817h-43.371c-17.577 0-31.878-14.3-31.878-31.876 0-41.833-34.033-75.865-75.864-75.865h-60.224c-4.143 0-7.5 3.357-7.5 7.5s3.357 7.5 7.5 7.5h60.224c33.561 0 60.863 27.304 60.863 60.864 0 25.848 21.029 46.876 46.878 46.876h43.371c5.964 0 10.816 4.853 10.816 10.817 0 5.273-3.796 9.672-8.798 10.621-2.056.304 2.481.173-45.389.196-37.777 0-68.512-30.733-68.512-68.51 0-21.632-17.599-39.23-39.229-39.23h-118.14c-21.632 0-39.23 17.599-39.23 39.23 0 37.776-30.733 68.51-68.511 68.51-47.826-.023-43.386.106-45.388-.196-5.004-.948-8.802-5.346-8.802-10.62 0-5.965 4.853-10.817 10.817-10.817h43.372c25.848 0 46.877-21.028 46.877-46.876 0-33.561 27.304-60.865 60.865-60.865h27.931c4.143 0 7.5-3.357 7.5-7.5s-3.357-7.5-7.5-7.5h-27.931c-41.832 0-75.864 34.032-75.864 75.864 0 17.576-14.3 31.876-31.877 31.876h-43.373c-14.235 0-25.817 11.582-25.817 25.818 0 10.453 6.249 19.469 15.204 23.525v197.834c-8.955 4.056-15.204 13.071-15.204 23.524 0 14.235 11.582 25.817 25.817 25.817h43.372c17.577 0 31.877 14.3 31.877 31.877 0 41.832 34.032 75.864 75.864 75.864h118.141c41.831 0 75.863-34.032 75.863-75.864 0-17.577 14.301-31.877 31.878-31.877h43.371c14.235 0 25.816-11.582 25.816-25.817.001-10.453-6.248-19.469-15.203-23.525zm-304.096-279.052c0-13.36 10.87-24.23 24.23-24.23h118.141c13.36 0 24.229 10.87 24.229 24.23 0 46.048 37.463 83.51 83.512 83.51h5.228v78.961c0 4.143 3.357 7.5 7.5 7.5s7.5-3.357 7.5-7.5v-78.961h18.756v193.251h-18.756v-84.303c0-4.143-3.357-7.5-7.5-7.5s-7.5 3.357-7.5 7.5v84.303h-5.228c-46.049 0-83.512 37.463-83.512 83.511 0 13.36-10.869 24.23-24.229 24.23h-118.14c-13.36 0-24.23-10.87-24.23-24.23 0-46.048-37.463-83.511-83.511-83.511h-5.23v-193.251h5.229c46.048 0 83.511-37.462 83.511-83.51zm-103.74 83.51v193.251h-18.756v-193.251zm397.224 229.885h-43.371c-25.849 0-46.878 21.029-46.878 46.877 0 33.561-27.303 60.864-60.863 60.864h-118.141c-33.561 0-60.864-27.304-60.864-60.864 0-25.848-21.029-46.877-46.877-46.877h-43.373c-5.965 0-10.817-4.853-10.817-10.817 0-5.321 3.871-9.772 8.972-10.64 1.609-.277-1.544-.154 45.218-.177 37.777 0 68.511 30.733 68.511 68.511 0 21.632 17.599 39.23 39.23 39.23h118.141c21.631 0 39.229-17.599 39.229-39.23 0-37.777 30.734-68.511 68.512-68.511 47.331.023 43.469-.099 45.325.186 5.033.924 8.862 5.334 8.862 10.63 0 5.965-4.853 10.818-10.816 10.818z"/><path d="m256 142.995c22.28 0 40.406-18.126 40.406-40.406s-18.126-40.406-40.406-40.406-40.406 18.126-40.406 40.406 18.126 40.406 40.406 40.406zm0-65.812c14.009 0 25.406 11.397 25.406 25.406s-11.397 25.406-25.406 25.406-25.406-11.397-25.406-25.406 11.397-25.406 25.406-25.406z"/><path d="m256 110.089c4.143 0 7.5-3.357 7.5-7.5v-9.546c0-4.143-3.357-7.5-7.5-7.5s-7.5 3.357-7.5 7.5v9.546c0 4.142 3.357 7.5 7.5 7.5z"/><path d="m256 201.11c4.143 0 7.5-3.357 7.5-7.5v-3.45c0-4.143-3.357-7.5-7.5-7.5s-7.5 3.357-7.5 7.5v3.45c0 4.143 3.357 7.5 7.5 7.5z"/><path d="m307.86 204.14c-2.93-2.928-7.678-2.928-10.607 0l-2.44 2.44c-2.929 2.93-2.929 7.678 0 10.607 1.465 1.464 3.385 2.196 5.304 2.196s3.839-.732 5.304-2.196l2.44-2.44c2.928-2.93 2.928-7.678-.001-10.607z"/><path d="m321.841 263.5c4.143 0 7.5-3.357 7.5-7.5s-3.357-7.5-7.5-7.5h-3.451c-4.143 0-7.5 3.357-7.5 7.5s3.357 7.5 7.5 7.5z"/><path d="m305.418 294.812c-2.93-2.93-7.679-2.929-10.606.003-2.928 2.929-2.927 7.678.003 10.606l2.439 2.439c1.465 1.464 3.384 2.195 5.303 2.195 1.92 0 3.84-.732 5.305-2.198 2.928-2.929 2.927-7.678-.003-10.606z"/><path d="m248.5 321.84c0 4.143 3.357 7.5 7.5 7.5s7.5-3.357 7.5-7.5v-3.45c0-4.143-3.357-7.5-7.5-7.5s-7.5 3.357-7.5 7.5z"/><path d="m214.748 307.859 2.439-2.439c2.929-2.93 2.929-7.678 0-10.607-2.93-2.928-7.678-2.928-10.607 0l-2.439 2.439c-2.929 2.93-2.929 7.678 0 10.607 1.465 1.464 3.385 2.196 5.304 2.196s3.838-.732 5.303-2.196z"/><path d="m190.16 248.5c-4.143 0-7.5 3.357-7.5 7.5s3.357 7.5 7.5 7.5h3.45c4.143 0 7.5-3.357 7.5-7.5s-3.357-7.5-7.5-7.5z"/><path d="m211.884 219.384c1.919 0 3.838-.732 5.302-2.195 2.93-2.929 2.931-7.678.003-10.606l-2.439-2.44c-2.929-2.931-7.678-2.93-10.606-.003-2.93 2.929-2.931 7.678-.003 10.607l2.439 2.439c1.464 1.465 3.384 2.198 5.304 2.198z"/><path d="m248.5 256c0 4.143 3.357 7.5 7.5 7.5h17.134c4.143 0 7.5-3.357 7.5-7.5s-3.357-7.5-7.5-7.5h-9.634v-29.657c0-4.143-3.357-7.5-7.5-7.5s-7.5 3.357-7.5 7.5z"/><path d="m384.48 305.942c-3.283 2.524-3.898 7.233-1.373 10.518 2.522 3.282 7.23 3.899 10.518 1.373.502-.385 1.227-.293 1.612.21.729.946.726 1.94.659 2.448s-.318 1.469-1.265 2.196c-1.272.979-2.847 1.404-4.446 1.197-1.593-.208-3.009-1.024-3.988-2.297-2.522-3.284-7.232-3.899-10.517-1.374-3.284 2.524-3.899 7.233-1.374 10.517 3.422 4.45 8.372 7.302 13.938 8.028.924.12 1.846.18 2.763.18 4.604 0 9.058-1.507 12.769-4.36 3.878-2.982 6.361-7.296 6.994-12.146s-.661-9.656-3.644-13.534c-5.427-7.054-15.584-8.384-22.646-2.956z"/><path d="m353.397 336.989c-7.677 3.143-17.937 10.382-23.854 27.054-1.385 3.902.423 8.374 4.295 9.84.878.333 1.778.49 2.661.49 3.103 0 6.005-1.94 7.083-5.035 4.073-11.694 10.947-16.49 15.53-18.442 2.838-1.209 4.595-4.091 4.506-7.174-.148-5.184-5.422-8.697-10.221-6.733z"/><path d="m108.224 334.577c3.711 2.854 8.164 4.361 12.77 4.361.916 0 1.839-.06 2.763-.18 5.565-.727 10.516-3.577 13.938-8.027 2.525-3.283 1.91-7.992-1.373-10.518-3.286-2.525-7.992-1.911-10.518 1.373-.979 1.273-2.396 2.09-3.989 2.298-1.591.207-3.171-.217-4.445-1.197-.946-.728-1.198-1.688-1.265-2.196s-.069-1.502.659-2.448c.387-.503 1.112-.595 1.612-.21 3.284 2.524 7.993 1.908 10.518-1.373 2.525-3.284 1.91-7.993-1.373-10.518-7.059-5.428-17.219-4.102-22.647 2.956-2.981 3.877-4.275 8.684-3.643 13.533.632 4.851 3.116 9.165 6.993 12.146z"/><path d="m148.212 349.576c.028.001 3.14.252 6.949 2.363 5.919 3.28 10.379 9.134 13.257 17.397 1.078 3.096 3.98 5.035 7.083 5.035.818 0 1.65-.135 2.467-.419 3.912-1.362 5.979-5.638 4.616-9.55-10.032-28.804-32.969-29.793-33.94-29.821-4.122-.137-7.594 3.141-7.713 7.281-.119 4.141 3.14 7.595 7.281 7.714z"/><path d="m375.68 191.785c3.285 2.524 7.991 1.909 10.518-1.373.979-1.273 2.396-2.089 3.988-2.297 1.595-.204 3.172.217 4.447 1.197.945.728 1.197 1.688 1.264 2.196.066.508.069 1.501-.658 2.447-.387.503-1.112.595-1.613.21-3.287-2.526-7.995-1.909-10.518 1.373-2.525 3.284-1.91 7.993 1.373 10.518 2.929 2.252 6.391 3.342 9.827 3.341 4.847 0 9.644-2.167 12.819-6.296 2.982-3.877 4.276-8.684 3.644-13.534s-3.117-9.164-6.994-12.146c-4.449-3.422-9.971-4.905-15.531-4.181-5.566.727-10.517 3.577-13.938 8.026-2.527 3.285-1.912 7.994 1.372 10.519z"/><path d="m353.442 175.028c4.791 1.954 10.057-1.522 10.245-6.693.115-3.149-1.769-5.991-4.673-7.214-4.591-1.933-11.338-6.706-15.432-18.459-1.461-4.193-6.269-6.266-10.385-4.269-3.481 1.688-4.962 5.871-3.671 9.517 5.927 16.737 16.228 23.983 23.916 27.118z"/><path d="m115.585 209.269c.71.093 1.418.139 2.122.139 3.539 0 6.961-1.157 9.813-3.351 3.283-2.524 3.898-7.233 1.373-10.518-2.523-3.283-7.23-3.899-10.518-1.373-.5.386-1.225.294-1.613-.211-.728-.945-.725-1.938-.658-2.446.066-.509.318-1.469 1.266-2.197 2.627-2.021 6.412-1.527 8.435 1.102 2.524 3.283 7.233 3.899 10.518 1.371 3.283-2.525 3.896-7.234 1.371-10.518-3.422-4.448-8.372-7.299-13.938-8.025-5.564-.725-11.081.76-15.529 4.181-3.878 2.981-6.362 7.295-6.995 12.146s.661 9.657 3.643 13.533c2.628 3.419 6.432 5.609 10.71 6.167z"/><path d="m158.739 174.954c7.717-3.195 17.984-10.529 23.845-27.358 1.426-4.094-.904-8.586-5.173-9.72-3.836-1.02-7.755 1.302-9.083 5.043-4.047 11.407-10.771 16.164-15.32 18.134-2.86 1.239-4.719 4.042-4.63 7.157.152 5.25 5.508 8.753 10.361 6.744z"/><path d="m256 374.385c-19.358 0-35.108 15.75-35.108 35.108v19.946c0 8.36 6.802 15.162 15.163 15.162h39.892c8.36 0 15.162-6.802 15.162-15.162v-19.946c-.001-19.358-15.751-35.108-35.109-35.108zm20.108 55.054c0 .09-.072.162-.162.162h-39.892c-.09 0-.163-.072-.163-.162v-19.946c0-11.088 9.021-20.108 20.108-20.108s20.108 9.021 20.108 20.108v19.946z"/><path d="m186.52 329.961c3.017 2.837 7.764 2.691 10.601-.329 2.837-3.018 2.689-7.765-.329-10.601-17.588-16.529-27.274-38.914-27.274-63.031 0-47.688 38.796-86.484 86.483-86.484s86.484 38.797 86.484 86.484-38.797 86.483-86.485 86.483c-12.684 0-24.907-2.687-36.331-7.983-3.758-1.744-8.218-.11-9.959 3.648-1.743 3.758-.109 8.217 3.648 9.959 13.416 6.222 27.763 9.376 42.642 9.376 55.959 0 101.484-45.525 101.484-101.483 0-55.959-45.525-101.484-101.484-101.484-55.958 0-101.483 45.525-101.483 101.484 0 27.891 11.664 54.849 32.003 73.961z"/></g></g><g transform="matrix(0.1697916491523753 0.04549553527192747 -0.04549553527192747 0.1697916491523753 -31.985649256458004 294.85471754476356)" id="L1_4"><path d="m469.475 199.955h-85.171c-4.379 0-7.928-3.55-7.928-7.928 0-66.481-53.894-120.375-120.375-120.375-66.481 0-120.375 53.894-120.375 120.375 0 4.379-3.55 7.928-7.928 7.928h-85.172c-19.344 0-35.026 15.682-35.026 35.026v170.342c0 19.344 15.682 35.026 35.026 35.026h426.949c19.344 0 35.026-15.681 35.026-35.026v-170.343c-.001-19.344-15.682-35.025-35.026-35.025z" fill="#365e7d"/><g fill="#2b4d66"><path d="m469.475 199.955h-28.837c19.344 0 35.025 15.681 35.025 35.025v170.343c0 19.344-15.681 35.026-35.026 35.026h28.837c19.344 0 35.026-15.682 35.026-35.026v-170.343c0-19.344-15.681-35.025-35.025-35.025z"/><path d="m347.538 192.026c0 4.379 3.55 7.928 7.928 7.928h28.837c-4.379 0-7.928-3.55-7.928-7.928 0-66.481-53.894-120.375-120.375-120.375-4.88 0-9.69.298-14.418.863 59.682 7.126 105.956 57.911 105.956 119.512z"/></g><path d="m57.5 377.356v-114.41c0-7.175 5.817-12.992 12.992-12.992h371.016c7.175 0 12.992 5.817 12.992 12.992v114.41c0 7.175-5.817 12.992-12.992 12.992h-371.016c-7.175 0-12.992-5.816-12.992-12.992z" fill="#f4fbff"/><path d="m441.508 249.955h-28.837c7.175 0 12.992 5.817 12.992 12.992v114.41c0 7.175-5.817 12.992-12.992 12.992h28.837c7.175 0 12.992-5.817 12.992-12.992v-114.41c0-7.176-5.817-12.992-12.992-12.992z" fill="#daf1f4"/><path d="m279.419 169.893c-14.049-1.598-25.199-13.143-26.321-27.238-.51-6.41 1.007-12.433 3.975-17.505.485-.829-.089-1.886-1.05-1.887-.007 0-.015 0-.022 0-22.078 0-39.794 18.679-38.205 41.097 1.33 18.767 16.455 33.975 35.215 35.398 19.474 1.478 36.154-11.619 40.298-29.519.22-.949-.672-1.77-1.603-1.481-3.824 1.183-7.973 1.626-12.287 1.135z" fill="#b1e4f9" stroke="#b1e4f9"/><path d="m239.04 144.542c1.642 20.62 17.952 37.508 38.505 39.846 3.112.354 6.165.373 9.131.097 3.121-4.174 5.418-9.001 6.632-14.246.22-.949-.672-1.77-1.602-1.481-3.824 1.184-7.973 1.626-12.287 1.136-14.049-1.598-25.199-13.143-26.321-27.238-.51-6.409 1.007-12.433 3.975-17.505.485-.829-.089-1.886-1.05-1.887-.008 0-.015 0-.022 0-5.138 0-10.034 1.022-14.511 2.857-2.056 5.684-2.968 11.916-2.45 18.421z" fill="#90d8f9"/><g><path d="m469.475 192.455h-85.171c-.236 0-.429-.192-.429-.429 0-70.51-57.364-127.874-127.875-127.874-70.51 0-127.874 57.364-127.874 127.875 0 .236-.192.428-.429.428h-85.171c-23.449 0-42.526 19.077-42.526 42.525v105.121c0 4.143 3.357 7.5 7.5 7.5s7.5-3.357 7.5-7.5v-105.121c0-15.178 12.349-27.525 27.526-27.525h85.171c8.508 0 15.429-6.921 15.429-15.429 0-62.239 50.636-112.874 112.875-112.874s112.874 50.636 112.874 112.875c0 8.507 6.921 15.428 15.429 15.428h85.171c15.178 0 27.525 12.348 27.525 27.525v170.343c0 15.178-12.348 27.525-27.525 27.525h-426.949c-15.177 0-27.526-12.348-27.526-27.525v-35.234c0-4.143-3.357-7.5-7.5-7.5s-7.5 3.357-7.5 7.5v35.234c0 23.448 19.077 42.525 42.526 42.525h426.948c23.448 0 42.525-19.077 42.525-42.525v-170.343c.001-23.448-19.076-42.525-42.524-42.525z"/><path d="m50 262.947v114.409c0 11.3 9.192 20.492 20.492 20.492h298.818c4.143 0 7.5-3.357 7.5-7.5s-3.357-7.5-7.5-7.5h-298.818c-3.028 0-5.492-2.464-5.492-5.492v-114.409c0-3.028 2.464-5.492 5.492-5.492h371.016c3.028 0 5.492 2.464 5.492 5.492v114.409c0 3.028-2.464 5.492-5.492 5.492h-42.211c-4.143 0-7.5 3.357-7.5 7.5s3.357 7.5 7.5 7.5h42.211c11.3 0 20.492-9.192 20.492-20.492v-114.409c0-11.3-9.192-20.492-20.492-20.492h-371.016c-11.3 0-20.492 9.192-20.492 20.492z"/><path d="m316.664 277.722c-4.268-.236-8.073 2.527-9.227 6.521l-13.687 48.012-14.188-48.089c-1.155-3.934-4.996-6.729-9.3-6.434-4.111.276-7.526 3.296-8.321 7.428l-12.284 68.057c-.735 4.076 1.973 7.977 6.049 8.713 4.068.733 7.978-1.972 8.713-6.049l7.843-43.452 12.896 43.712c.026.089.054.178.084.266 1.244 3.706 4.698 6.188 8.604 6.188h.047c3.926-.021 7.378-2.543 8.59-6.276.027-.086.054-.173.079-.26l12.451-43.68 8.329 43.578c.777 4.069 4.716 6.744 8.774 5.958 4.068-.777 6.736-4.706 5.958-8.774l-13.028-68.169c-.821-4.036-4.269-7.017-8.382-7.25z"/><path d="m181.29 277.708c-4.109 0-7.5 3.332-7.5 7.5v69.888c0 4.143 3.357 7.5 7.5 7.5s7.5-3.357 7.5-7.5v-22.898c4.212-.022 9.2-.045 11.96-.045 15.224 0 27.608-12.212 27.608-27.222 0-15.011-12.385-27.223-27.608-27.223zm32.068 27.222c0 6.625-5.774 12.222-12.608 12.222-2.74 0-7.667.022-11.866.045-.062-11.942-.029-9.275-.071-24.489h11.938c6.833 0 12.607 5.597 12.607 12.222z"/><path d="m263.586 120.147c-1.549-2.701-4.443-4.382-7.585-4.385-12.666 0-24.884 5.317-33.521 14.588-8.758 9.401-13.079 21.667-12.167 34.541.151 2.118.456 4.25.906 6.338.875 4.05 4.867 6.624 8.913 5.749 4.049-.873 6.623-4.863 5.749-8.913-.302-1.397-.505-2.823-.605-4.236-.615-8.674 2.29-16.932 8.179-23.254 3.614-3.879 8.021-6.689 12.887-8.284-.77 3.561-1.017 7.244-.721 10.959 1.413 17.746 15.271 32.085 32.951 34.096 1.262.144 2.521.224 3.774.242-5.865 9.719-16.801 15.603-28.769 14.691-4.677-.354-9.115-1.76-13.19-4.177-3.563-2.113-8.164-.938-10.276 2.626-2.112 3.562-.938 8.163 2.626 10.276 5.992 3.553 12.806 5.708 19.706 6.231 1.205.092 2.403.137 3.592.137 21.286 0 39.715-14.431 44.577-35.436.709-3.046-.272-6.261-2.562-8.391-2.291-2.132-5.574-2.881-8.562-1.954-2.973.92-6.075 1.207-9.222.849-10.396-1.182-18.861-9.944-19.692-20.382-.369-4.631.658-9.168 2.975-13.126 1.58-2.703 1.594-6.069.037-8.785z"/></g></g><g transform="matrix(0.0390625 0 0 0.0390625 77.5 340)" id="L1_5"><path d="m469.475 199.955h-85.171c-4.379 0-7.928-3.55-7.928-7.928 0-66.481-53.894-120.375-120.375-120.375-66.481 0-120.375 53.894-120.375 120.375 0 4.379-3.55 7.928-7.928 7.928h-85.172c-19.344 0-35.026 15.682-35.026 35.026v170.342c0 19.344 15.682 35.026 35.026 35.026h426.949c19.344 0 35.026-15.681 35.026-35.026v-170.343c-.001-19.344-15.682-35.025-35.026-35.025z" fill="#ffe07d"/><g fill="#ffd064"><path d="m469.475 199.955h-28.837c19.344 0 35.025 15.681 35.025 35.025v170.343c0 19.344-15.681 35.026-35.026 35.026h28.837c19.344 0 35.026-15.682 35.026-35.026v-170.343c0-19.344-15.681-35.025-35.025-35.025z"/><path d="m347.538 192.026c0 4.379 3.55 7.928 7.928 7.928h28.837c-4.379 0-7.928-3.55-7.928-7.928 0-66.481-53.894-120.375-120.375-120.375-4.88 0-9.69.298-14.418.863 59.682 7.126 105.956 57.911 105.956 119.512z"/></g><path d="m57.5 377.356v-114.41c0-7.175 5.817-12.992 12.992-12.992h371.016c7.175 0 12.992 5.817 12.992 12.992v114.41c0 7.175-5.817 12.992-12.992 12.992h-371.016c-7.175 0-12.992-5.816-12.992-12.992z" fill="#f4fbff"/><path d="m441.508 249.955h-28.837c7.175 0 12.992 5.817 12.992 12.992v114.41c0 7.175-5.817 12.992-12.992 12.992h28.837c7.175 0 12.992-5.817 12.992-12.992v-114.41c0-7.176-5.817-12.992-12.992-12.992z" fill="#daf1f4"/><circle cx="256" cy="161" r="38" fill="#eab14d"/><path d="m256 123.263c-3.683 0-7.241.531-10.612 1.501 15.99 4.603 27.692 19.332 27.692 36.803s-11.702 32.2-27.692 36.803c3.371.97 6.929 1.501 10.612 1.501 21.155 0 38.304-17.149 38.304-38.304s-17.149-38.304-38.304-38.304z" fill="#e49542"/><g><path d="m208.095 283.334c-1.407-3.419-4.703-5.627-8.4-5.627h-.01c-3.7.005-6.997 2.22-8.397 5.645-.023.057-.046.113-.067.171l-26.242 68.903c-1.475 3.87.469 8.203 4.34 9.678 3.865 1.476 8.203-.469 9.678-4.34l4.696-12.329h31.811l4.645 12.309c1.133 3.003 3.987 4.854 7.018 4.854.88 0 1.775-.156 2.647-.485 3.875-1.462 5.831-5.789 4.368-9.665l-26.004-68.906c-.028-.071-.055-.139-.083-.208zm-18.691 47.101 10.265-26.953 10.172 26.953z"/><path d="m325.973 277.722c-4.131-.228-7.877 2.341-9.15 6.261-.027.087-.054.173-.079.261l-13.688 48.013-14.188-48.09c-.026-.089-.054-.177-.083-.265-1.312-3.908-5.086-6.432-9.214-6.169-4.113.275-7.529 3.295-8.324 7.428l-12.283 68.057c-.735 4.076 1.973 7.978 6.049 8.713 4.074.733 7.978-1.972 8.713-6.049l7.842-43.452 12.896 43.712c.026.089.054.178.084.266 1.244 3.706 4.698 6.188 8.604 6.188h.047c3.926-.021 7.378-2.543 8.59-6.276.027-.086.054-.173.079-.26l12.451-43.679 8.329 43.577c.778 4.069 4.71 6.744 8.774 5.958 4.068-.777 6.736-4.706 5.958-8.774l-13.027-68.164c-.821-4.039-4.267-7.022-8.38-7.256z"/><path d="m261.817 102.039v-4.596c0-4.143-3.357-7.5-7.5-7.5s-7.5 3.357-7.5 7.5v4.596c0 4.143 3.357 7.5 7.5 7.5s7.5-3.358 7.5-7.5z"/><path d="m294.85 109.731-3.249 3.249c-2.929 2.93-2.929 7.678 0 10.607 2.931 2.929 7.678 2.928 10.607 0l3.249-3.249c2.929-2.93 2.929-7.678 0-10.607-2.93-2.928-7.678-2.928-10.607 0z"/><path d="m315.529 167.384h4.596c4.143 0 7.5-3.357 7.5-7.5s-3.357-7.5-7.5-7.5h-4.596c-4.143 0-7.5 3.357-7.5 7.5s3.358 7.5 7.5 7.5z"/><path d="m304.587 197.167c-2.93-2.928-7.678-2.928-10.607 0-2.929 2.93-2.929 7.678 0 10.607l3.25 3.25c2.931 2.929 7.678 2.928 10.607 0 2.929-2.93 2.929-7.678 0-10.607z"/><path d="m250.183 221.096v4.595c0 4.143 3.357 7.5 7.5 7.5s7.5-3.357 7.5-7.5v-4.595c0-4.143-3.357-7.5-7.5-7.5s-7.5 3.358-7.5 7.5z"/><path d="m209.793 199.546-3.249 3.249c-2.929 2.93-2.929 7.678 0 10.607 2.931 2.929 7.678 2.928 10.607 0l3.249-3.249c2.929-2.93 2.929-7.678 0-10.607-2.929-2.927-7.677-2.927-10.607 0z"/><path d="m196.472 155.75h-4.596c-4.143 0-7.5 3.357-7.5 7.5s3.357 7.5 7.5 7.5h4.596c4.143 0 7.5-3.357 7.5-7.5s-3.358-7.5-7.5-7.5z"/><path d="m214.771 112.111c-2.93-2.928-7.678-2.928-10.607 0-2.929 2.93-2.929 7.678 0 10.607l3.249 3.249c2.931 2.929 7.678 2.928 10.607 0 2.929-2.93 2.929-7.678 0-10.607z"/><path d="m469.475 192.455h-85.171c-.236 0-.429-.192-.429-.429 0-70.51-57.364-127.874-127.875-127.874-70.51 0-127.874 57.364-127.874 127.875 0 .236-.192.428-.429.428h-85.171c-23.449 0-42.526 19.077-42.526 42.525v105.121c0 4.143 3.357 7.5 7.5 7.5s7.5-3.357 7.5-7.5v-105.121c0-15.178 12.349-27.525 27.526-27.525h85.171c8.508 0 15.429-6.921 15.429-15.429 0-62.239 50.636-112.874 112.875-112.874s112.874 50.636 112.874 112.875c0 8.507 6.921 15.428 15.429 15.428h85.171c15.178 0 27.525 12.348 27.525 27.525v170.343c0 15.178-12.348 27.525-27.525 27.525h-426.949c-15.177 0-27.526-12.348-27.526-27.525v-35.234c0-4.143-3.357-7.5-7.5-7.5s-7.5 3.357-7.5 7.5v35.234c0 23.448 19.077 42.525 42.526 42.525h426.948c23.448 0 42.525-19.077 42.525-42.525v-170.343c.001-23.448-19.076-42.525-42.524-42.525z"/><path d="m50 262.947v114.409c0 11.3 9.192 20.492 20.492 20.492h298.818c4.143 0 7.5-3.357 7.5-7.5s-3.357-7.5-7.5-7.5h-298.818c-3.028 0-5.492-2.464-5.492-5.492v-114.409c0-3.028 2.464-5.492 5.492-5.492h371.016c3.028 0 5.492 2.464 5.492 5.492v114.409c0 3.028-2.464 5.492-5.492 5.492h-42.211c-4.143 0-7.5 3.357-7.5 7.5s3.357 7.5 7.5 7.5h42.211c11.3 0 20.492-9.192 20.492-20.492v-114.409c0-11.3-9.192-20.492-20.492-20.492h-371.016c-11.3 0-20.492 9.192-20.492 20.492z"/><path d="m210.196 161.567c0 25.257 20.548 45.805 45.804 45.805 18.399 0 34.947-10.94 42.157-27.872 1.623-3.811-.151-8.216-3.962-9.839-3.813-1.623-8.217.151-9.839 3.962-4.851 11.39-15.98 18.749-28.356 18.749-16.985 0-30.804-13.819-30.804-30.805s13.818-30.804 30.804-30.804c12.376 0 23.507 7.359 28.356 18.749 1.623 3.81 6.022 5.584 9.839 3.962 3.811-1.623 5.585-6.027 3.962-9.839-7.21-16.932-23.758-27.872-42.157-27.872-25.256 0-45.804 20.548-45.804 45.804z"/></g></g><g transform="matrix(0.078125 0 0 0.078125 67.5 67.5)" id="L1_6"><path d="m414.08 83.791c10.599-38.366-18.241-76.291-58.044-76.291h-100.035-100.035c-39.803 0-68.644 37.925-58.044 76.291 14.73 53.318 44.044 97.226 68.015 133.968 15.163 23.243 15.163 53.238 0 76.481-23.971 36.743-53.285 80.651-68.015 133.968-10.599 38.366 18.241 76.291 58.044 76.291h200.07c39.803 0 68.644-37.925 58.044-76.291-14.73-53.318-44.044-97.226-68.015-133.968-15.163-23.243-15.163-53.238 0-76.481 23.971-36.742 53.285-80.65 68.015-133.968z" fill="#b1e4f9" stroke="#b1e4f9"/><path d="m346.065 294.241c-15.164-23.243-15.164-53.238 0-76.481 23.971-36.743 53.285-80.651 68.015-133.968 10.599-38.367-18.241-76.292-58.044-76.292h-22.676c39.803 0 68.644 37.925 58.044 76.291-14.73 53.318-44.044 97.226-68.015 133.968-15.164 23.243-15.164 53.238 0 76.481 23.971 36.743 53.285 80.651 68.015 133.968 10.599 38.366-18.241 76.291-58.044 76.291h22.676c39.803 0 68.644-37.925 58.044-76.291-14.73-53.317-44.044-97.225-68.015-133.967z" fill="#90d8f9"/><path d="m172.421 153.285c8.15 13.71 16.65 26.73 24.76 39.16l2.26 3.46c11.9 18.25 17.86 39.17 17.86 60.09s-5.95 41.85-17.86 60.1l-2.26 3.46c-17.31 26.51-36.4 55.74-50.03 88.56l60.505 38.048c30.25-15.975 66.44-15.975 96.69 0l60.505-38.048c-13.63-32.83-32.72-62.06-50.03-88.57l-2.26-3.45c-11.91-18.25-17.86-39.18-17.86-60.1s5.96-41.84 17.86-60.09l2.26-3.45c8.12-12.43 16.62-25.45 24.76-39.17 14.5-24.37 27.87-50.92 35.94-80.14 2.33-8.43-1.13-14.69-3.4-17.67s-7.37-7.98-16.09-7.98h-200.061c-8.72 0-13.82 5-16.09 7.98s-5.73 9.24-3.4 17.66c8.071 29.22 21.441 55.77 35.941 80.15z" fill="#f4fbff"/><path d="m314.821 192.455c8.12-12.43 16.62-25.45 24.76-39.17 14.5-24.37 27.87-50.92 35.94-80.14 2.33-8.43-1.13-14.69-3.4-17.67s-7.37-7.98-16.09-7.98h-20.009c8.72 0 13.82 5 16.09 7.98s5.73 9.24 3.4 17.67c-8.07 29.22-21.44 55.77-35.94 80.14-8.14 13.72-16.64 26.74-24.76 39.17l-2.26 3.45c-11.9 18.25-17.86 39.17-17.86 60.09s5.95 41.85 17.86 60.1l2.26 3.45c17.31 26.51 36.4 55.74 50.03 88.57l-52.142 32.789c3.96 1.502 7.85 3.254 11.646 5.259l60.505-38.048c-13.63-32.83-32.72-62.06-50.03-88.57l-2.26-3.45c-11.91-18.25-17.86-39.18-17.86-60.1s5.96-41.84 17.86-60.09z" fill="#daf1f4"/><path d="m339.581 153.285c-8.14 13.72-16.64 26.74-24.76 39.17l-2.26 3.45c-11.9 18.25-17.86 39.17-17.86 60.09l-30.706 125.64c-2.045 8.367-13.943 8.367-15.988 0l-30.706-125.64c0-20.92-5.96-41.84-17.86-60.09l-2.26-3.46c-8.11-12.43-16.61-25.45-24.76-39.16l25.82 10.452c37.046 14.997 78.473 14.997 115.52 0z" fill="#eab14d"/><path d="m313.76 163.737c-.092.037-.184.071-.275.108-6.125 9.889-12.341 19.412-18.35 28.61l-2.26 3.45c-10.319 15.825-16.171 33.658-17.544 51.758-.538 7.094-1.731 14.123-3.42 21.034l-25.753 105.373 1.849 7.565c2.045 8.367 13.943 8.367 15.988 0l30.706-125.64c0-20.92 5.96-41.84 17.86-60.09l2.26-3.45c8.12-12.43 16.62-25.45 24.76-39.17z" fill="#e49542"/><path d="m372.121 456.525c-2.27 2.98-7.37 7.98-16.09 7.98h-200.061c-8.72 0-13.82-5-16.09-7.98s-5.73-9.24-3.4-17.67c2.92-10.59 6.54-20.83 10.67-30.74l60.505-31.952c30.251-15.975 66.44-15.975 96.69 0l60.505 31.952c4.13 9.91 7.75 20.16 10.67 30.75 2.331 8.42-1.129 14.68-3.399 17.66z" fill="#eab14d"/><path d="m375.52 438.865c-2.92-10.59-6.54-20.84-10.67-30.75l-60.505-31.952c-20.011-10.567-42.619-14.138-64.388-10.725 11.14 1.747 22.062 5.317 32.302 10.725l35.853 18.933c17.179 9.072 30.044 24.729 35.234 43.451.029.106.059.212.088.318 2.33 8.42-1.13 14.68-3.4 17.66s-7.37 7.98-16.09 7.98h32.086c8.72 0 13.82-5 16.09-7.98 2.271-2.98 5.731-9.24 3.4-17.66z" fill="#e49542"/><g><path d="m187.047 424.214c-2.212-3.503-6.844-4.548-10.346-2.338-3.502 2.211-4.549 6.843-2.338 10.346l1.047 1.658c2.208 3.497 6.835 4.552 10.346 2.338 3.502-2.211 4.549-6.843 2.338-10.346z"/><path d="m252.265 285.654c-3.502 2.212-4.547 6.845-2.335 10.347l1.047 1.657c1.427 2.259 3.86 3.495 6.348 3.495 1.369 0 2.756-.375 3.999-1.16 3.502-2.212 4.547-6.845 2.335-10.347l-1.047-1.657c-2.212-3.502-6.845-4.546-10.347-2.335z"/><path d="m224.551 190.366c-3.503 2.21-4.552 6.842-2.341 10.345l1.046 1.658c2.213 3.509 6.847 4.548 10.345 2.341 3.503-2.21 4.552-6.842 2.341-10.345l-1.046-1.658c-2.21-3.504-6.844-4.552-10.345-2.341z"/><path d="m252.269 413.001c1.999 0 3.994-.794 5.47-2.367l1.557-1.658c2.835-3.02 2.686-7.766-.335-10.601-3.02-2.837-7.767-2.686-10.601.335l-1.557 1.658c-4.518 4.813-1.027 12.633 5.466 12.633z"/><path d="m279.381 235.333 1.557-1.658c2.835-3.02 2.686-7.766-.334-10.601-3.02-2.836-7.766-2.686-10.602.333l-1.557 1.658c-2.835 3.02-2.686 7.766.334 10.601 3.02 2.836 7.767 2.686 10.602-.333z"/><path d="m314.275 444.952c4.143 0 7.5-3.357 7.5-7.5v-1.768c0-4.143-3.357-7.5-7.5-7.5s-7.5 3.357-7.5 7.5v1.768c0 4.142 3.357 7.5 7.5 7.5z"/><path d="m190.883 315.482c-17.231 26.389-36.762 56.298-50.649 89.734-.002.005-.005.011-.007.016-4.423 10.613-8.116 21.255-10.975 31.625-4.916 17.779 8.441 35.148 26.718 35.148h200.061c18.336 0 31.619-17.431 26.721-35.134-2.866-10.395-6.56-21.041-10.974-31.633-.001-.003-.003-.006-.004-.01s-.003-.007-.004-.01c-14.036-33.799-33.355-63.252-52.927-93.222-10.887-16.683-16.642-36.047-16.642-56.001 0-19.934 5.755-39.296 16.635-55.98 9.103-13.952 18.222-27.776 27.19-42.895.001-.003.003-.005.004-.008v-.001c17.929-30.134 29.597-56.181 36.719-81.969 4.915-17.781-8.443-35.148-26.719-35.148h-144.291c-4.143 0-7.5 3.358-7.5 7.5s3.357 7.5 7.5 7.5h144.292c8.411 0 14.528 7.95 12.261 16.153-6.587 23.849-17.385 48.105-33.888 76.141l-23.457 9.496c-9.14 3.7-18.725 6.486-28.487 8.279-4.073.748-6.77 4.658-6.021 8.731.749 4.075 4.661 6.77 8.732 6.021 20.035-3.681 33.279-10.017 36.016-10.995-18.368 28.855-33.681 47.46-33.982 86.255l-24.875 101.784c-4.216-.241-8.442-.241-12.658 0l-24.875-101.782c-.298-38.43-14.88-56.28-33.898-86.144-.022-.034-.043-.069-.065-.103 3.063.955 27.176 13.125 62.889 13.628.036 0 .071.001.107.001 4.093 0 7.439-3.289 7.497-7.394.059-4.142-3.252-7.547-7.394-7.605-18.227-.257-36.018-3.849-52.878-10.675l-23.457-9.496c-16.504-28.047-27.303-52.308-33.888-76.154-2.271-8.203 3.869-16.14 12.261-16.14h25.782c4.143 0 7.5-3.358 7.5-7.5s-3.357-7.5-7.5-7.5h-25.783c-18.336 0-31.617 17.433-26.719 35.137 7.12 25.781 18.789 51.833 36.722 81.986 26.716 44.937 43.827 59.342 43.827 98.877 0 35.158-17.975 57.519-18.917 59.487zm102.404-22.112c9.627 28.699 30.463 47.469 55.553 97.809-34.411-17.128-46.446-27.518-71.532-32.428zm-26.18 78.955c.085.011.169.019.254.027 28.211 3.363 40.615 15.813 91.576 41.121 3.728 9.2 6.876 18.401 9.355 27.392 2.278 8.229-3.901 16.141-12.262 16.141h-200.06c-8.409 0-14.528-7.948-12.259-16.157 2.472-8.966 5.619-18.161 9.354-27.375 51.174-25.414 63.419-37.765 91.577-41.121.083-.008.167-.015.251-.027 7.379-.86 14.834-.861 22.214-.001zm-103.942 18.852c12.195-24.461 26.938-47.065 40.295-67.52 1.231-2.125 9.451-12.983 15.254-30.286l15.979 65.38c-24.952 4.883-36.603 15.042-71.528 32.426z"/><path d="m352.346 290.143c-13.53-20.741-13.53-47.545 0-68.285l2.249-3.445c23.226-35.57 52.131-79.839 66.714-132.625 5.684-20.572 1.53-42.109-11.394-59.088-12.917-16.968-32.554-26.7-53.88-26.7h-200.07c-21.324 0-40.963 9.732-53.879 26.701-12.925 16.979-17.078 38.516-11.394 59.088 14.583 52.786 43.488 97.054 66.714 132.625l2.249 3.444c13.53 20.741 13.53 47.544 0 68.286l-2.247 3.442c-23.227 35.57-52.133 79.839-66.716 132.626-5.684 20.572-1.53 42.108 11.395 59.088 12.915 16.968 32.554 26.7 53.878 26.7h128.322c4.143 0 7.5-3.357 7.5-7.5s-3.357-7.5-7.5-7.5h-128.322c-16.601 0-31.889-7.576-41.943-20.786-10.063-13.221-13.297-29.99-8.871-46.009 13.961-50.535 40.979-91.913 64.816-128.419l2.25-3.448c16.779-25.72 16.779-58.957 0-84.677l-2.252-3.449c-23.837-36.506-50.854-77.883-64.814-128.418-4.426-16.019-1.192-32.788 8.871-46.008 10.054-13.21 25.342-20.786 41.943-20.786h200.07c16.601 0 31.889 7.576 41.943 20.786 10.063 13.221 13.297 29.99 8.871 46.009-13.96 50.535-40.978 91.912-64.814 128.418l-2.252 3.449c-16.779 25.72-16.779 58.957 0 84.677 27.407 41.974 53.219 81.741 67.066 131.867 9.294 33.64-15.978 66.795-50.814 66.795h-41.761c-4.143 0-7.5 3.357-7.5 7.5s3.357 7.5 7.5 7.5h41.761c21.325 0 40.963-9.732 53.879-26.7 12.925-16.979 17.078-38.517 11.395-59.089-14.265-51.637-41.31-93.719-68.963-136.069z"/></g></g><g transform="matrix(0.07804527878761292 0 0 0.07804527878761292 242.5 67.5)" id="L1_7"><circle cx="175" cy="224" r="167" fill="#5766cb"/><path d="m343.198 224.6c0-92.7-75.149-167.849-167.849-167.849-3.774 0-7.516.137-11.228.383 79.431 5.248 143.571 65.66 154.853 143.046 2.247 15.413-9.81 29.205-25.386 29.205h-17.089c-10.408 0-19.696 4.881-25.697 12.474-9.188 11.626-23.182 18.419-38 18.419h-5.204c-59.932 0-109.047 48.268-109.487 107.597-.014 1.955.041 3.902.131 5.846 109.832 56.909 244.956-21.935 244.956-149.121z" fill="#3d4fc3"/><circle cx="175" cy="224" r="128" fill="#f4fbff"/><path d="m304.195 224.6c0-71.16-57.686-128.846-128.846-128.846-4.231 0-8.413.21-12.54.609 60.164 5.812 108.664 53.198 115.478 113.562 1.069 9.47-4.69 18.234-13.601 21.612-4.592 1.74-9.607 4.856-13.952 10.409-8.911 11.39-22.333 18.332-36.794 18.332h-6.342c-47.317 0-87.885 30.091-103.086 71.954 17.059 11.25 36.953 18.538 58.376 20.597-.026.002-.052.006-.079.008 76.272 7.349 141.386-52.449 141.386-128.237z" fill="#daf1f4"/><path d="m418.149 282.026h-211.953c-47.902 0-87.607 38.315-87.962 86.216-.358 48.281 38.673 87.532 86.872 87.532 32.862 0 61.462-18.247 76.222-45.161 6.051-11.034 17.715-17.814 30.299-17.814 12.561 0 24.237 6.738 30.269 17.757 14.531 26.545 42.52 44.674 74.789 45.207 47.457.784 87.196-37.315 88.314-84.766 1.152-48.938-38.174-88.971-86.85-88.971z" fill="#f4fbff"/><g fill="#daf1f4"><path d="m285.146 392.798c-12.585 0-24.248 6.78-30.299 17.814-12.744 23.238-35.808 40.002-63.021 44.153 4.33.664 8.765 1.009 13.28 1.009 32.862 0 61.462-18.247 76.222-45.162 3.834-6.991 9.923-12.265 17.069-15.199-4.141-1.698-8.635-2.615-13.251-2.615z"/><path d="m418.149 282.026h-26.481c48.676 0 88.002 40.033 86.849 88.97-1.001 42.482-32.959 77.463-73.697 83.762 3.876.597 7.837.938 11.864 1.004 47.457.784 87.196-37.315 88.314-84.766 1.153-48.938-38.173-88.97-86.849-88.97z"/></g><circle cx="387" cy="346" r="20" fill="#5766cb"/><path d="m387.701 325.695c-2.917 0-5.684.624-8.192 1.729 7.157 3.153 12.159 10.299 12.159 18.622s-5.002 15.468-12.159 18.622c2.508 1.105 5.275 1.729 8.192 1.729 11.24 0 20.352-9.111 20.352-20.351-.001-11.24-9.112-20.351-20.352-20.351z" fill="#3d4fc3"/><circle cx="434" cy="392" r="20" fill="#dd636e"/><path d="m434.484 372.478c-2.91 0-5.672.621-8.176 1.722 7.166 3.149 12.176 10.3 12.176 18.63s-5.01 15.48-12.176 18.63c2.504 1.1 5.265 1.722 8.176 1.722 11.24 0 20.351-9.112 20.351-20.352.001-11.241-9.111-20.352-20.351-20.352z" fill="#da4a54"/><path d="m357.407 282.026h-91.559v-21.131c0-5.622 4.557-10.179 10.179-10.179h71.202c5.622 0 10.179 4.557 10.179 10.179v21.131z" fill="#365e7d"/><path d="m347.229 250.716h-28.486c5.622 0 10.179 4.557 10.179 10.179v21.131h28.486v-21.131c-.001-5.622-4.558-10.179-10.179-10.179z" fill="#2b4d66"/><g><path d="m175.349 136.992c4.142 0 7.5-3.357 7.5-7.5v-8.658c0-4.143-3.358-7.5-7.5-7.5s-7.5 3.357-7.5 7.5v8.658c0 4.143 3.358 7.5 7.5 7.5z"/><path d="m247.903 162.652 6.122-6.122c2.929-2.93 2.929-7.678 0-10.607-2.929-2.928-7.678-2.928-10.606 0l-6.122 6.122c-2.929 2.93-2.929 7.678 0 10.607 2.93 2.929 7.678 2.928 10.606 0z"/><path d="m270.457 232.1h8.658c4.143 0 7.5-3.357 7.5-7.5s-3.357-7.5-7.5-7.5h-8.658c-4.143 0-7.5 3.357-7.5 7.5s3.357 7.5 7.5 7.5z"/><path d="m96.672 303.277c2.93 2.929 7.678 2.928 10.606 0l6.122-6.122c2.929-2.93 2.929-7.678 0-10.607-2.929-2.928-7.678-2.928-10.606 0l-6.122 6.122c-2.929 2.929-2.929 7.677 0 10.607z"/><path d="m87.741 224.6c0-4.143-3.358-7.5-7.5-7.5h-8.658c-4.142 0-7.5 3.357-7.5 7.5s3.358 7.5 7.5 7.5h8.658c4.142 0 7.5-3.358 7.5-7.5z"/><path d="m102.794 162.652c2.93 2.929 7.678 2.928 10.606 0 2.929-2.93 2.929-7.678 0-10.607l-6.122-6.122c-2.929-2.928-7.678-2.928-10.606 0-2.929 2.93-2.929 7.678 0 10.607z"/><path d="m167.849 227.118c0 6.998 8.71 10.131 13.203 4.871l22.132-25.909c2.69-3.149 2.318-7.884-.831-10.573-3.148-2.691-7.883-2.318-10.574.831l-8.93 10.453v-37.633c0-4.143-3.358-7.5-7.5-7.5s-7.5 3.357-7.5 7.5z"/><path d="m190.775 344.103 7.833-7.814 7.833 7.814c2.927 2.921 7.677 2.924 10.606-.013 2.925-2.933 2.92-7.682-.013-10.606l-13.13-13.099c-2.928-2.92-7.666-2.92-10.594 0l-13.13 13.099c-2.933 2.925-2.938 7.674-.013 10.606 2.926 2.933 7.675 2.937 10.608.013z"/><path d="m234.787 384.824 13.098-13.13c2.92-2.928 2.92-7.666 0-10.594l-13.098-13.131c-2.925-2.932-7.674-2.94-10.607-.013-2.933 2.925-2.938 7.674-.013 10.606l7.814 7.834-7.814 7.833c-2.925 2.933-2.92 7.682.013 10.606 2.928 2.923 7.678 2.926 10.607-.011z"/><path d="m196.576 415.675c1.464 1.46 3.38 2.19 5.297 2.19s3.833-.73 5.297-2.19l13.13-13.099c2.933-2.925 2.938-7.674.013-10.606-2.925-2.934-7.674-2.938-10.606-.013l-7.833 7.814-7.833-7.814c-2.933-2.927-7.682-2.922-10.606.013-2.925 2.933-2.92 7.682.013 10.606z"/><path d="m387.701 318.194c-15.357 0-27.852 12.494-27.852 27.852s12.494 27.852 27.852 27.852 27.852-12.494 27.852-27.852-12.495-27.852-27.852-27.852zm0 40.704c-7.086 0-12.852-5.766-12.852-12.852s5.766-12.852 12.852-12.852 12.852 5.766 12.852 12.852-5.766 12.852-12.852 12.852z"/><path d="m434.484 420.681c15.357 0 27.852-12.494 27.852-27.852s-12.494-27.852-27.852-27.852-27.852 12.494-27.852 27.852 12.494 27.852 27.852 27.852zm0-40.703c7.086 0 12.852 5.766 12.852 12.852s-5.766 12.852-12.852 12.852-12.852-5.766-12.852-12.852 5.766-12.852 12.852-12.852z"/><path d="m290.359 345.767c-4.143 0-7.5 3.357-7.5 7.5s3.357 7.5 7.5 7.5h7.593c4.143 0 7.5-3.357 7.5-7.5s-3.357-7.5-7.5-7.5z"/><path d="m325.303 360.767h7.593c4.143 0 7.5-3.357 7.5-7.5s-3.357-7.5-7.5-7.5h-7.593c-4.143 0-7.5 3.357-7.5 7.5s3.358 7.5 7.5 7.5z"/><path d="m176.3 351.222c-2.934-2.927-7.681-2.921-10.607.013l-13.098 13.131c-2.92 2.928-2.92 7.666 0 10.594l13.098 13.13c2.92 2.928 7.67 2.943 10.606.013 2.933-2.925 2.938-7.674.013-10.606l-7.814-7.833 7.814-7.834c2.927-2.934 2.921-7.683-.012-10.608z"/><path d="m336.599 307.582c0-4.143-3.357-7.5-7.5-7.5h-34.944c-4.143 0-7.5 3.357-7.5 7.5s3.357 7.5 7.5 7.5h34.944c4.143 0 7.5-3.357 7.5-7.5z"/><path d="m418.149 274.526h-53.242v-13.631c0-8.912-6.635-16.285-15.221-17.487.667-6.246 1.012-12.542 1.012-18.808 0-45.911-17.633-89.324-49.65-122.241-2.886-2.968-7.634-3.036-10.605-.146-2.969 2.888-3.035 7.636-.146 10.605 29.278 30.101 45.402 69.799 45.402 111.782 0 6.204-.362 12.441-1.076 18.616h-24.203c.84-6.155 1.275-12.385 1.275-18.616 0-75.182-61.165-136.346-136.346-136.346s-136.346 61.164-136.346 136.346c0 22.527 5.616 44.857 16.24 64.578 1.355 2.515 3.939 3.944 6.609 3.943 1.201 0 2.419-.289 3.551-.898 3.646-1.964 5.01-6.513 3.045-10.16-9.45-17.541-14.445-37.411-14.445-57.463 0-66.91 54.436-121.346 121.346-121.346s121.346 54.436 121.346 121.346c0 6.24-.478 12.478-1.422 18.616h-19.247c-9.747 0-17.678 7.931-17.678 17.679v13.631h-52.152c-39.197 0-73.088 23.641-87.739 57.253-12.681-6.764-24.26-15.842-33.807-26.578-2.753-3.095-7.493-3.372-10.589-.62-3.095 2.753-3.373 7.493-.62 10.589 11.433 12.856 24.907 23.251 40.113 30.98-2.146 8.503-3 16.867-2.784 25.25-57.743-25.414-95.77-82.978-95.77-146.8 0-88.417 71.932-160.349 160.349-160.349 33.657 0 65.872 10.314 93.161 29.828 3.367 2.409 8.054 1.634 10.463-1.738 2.409-3.369 1.631-8.054-1.738-10.463-29.849-21.345-65.081-32.627-101.886-32.627-96.688 0-175.349 78.661-175.349 175.349 0 72.703 45.128 137.98 112.745 163.821 3.69 17.641 12.377 33.862 25.38 46.962 44.514 44.844 119.517 34.017 149.779-21.164 4.709-8.587 13.799-13.921 23.723-13.921 9.934 0 19.011 5.311 23.69 13.858 26.684 48.744 90.182 64.581 136.653 32.106 3.396-2.372 4.225-7.048 1.852-10.443-2.371-3.395-7.048-4.226-10.443-1.852-39.088 27.313-92.454 13.996-114.903-27.015-7.313-13.357-21.433-21.655-36.849-21.655-15.402 0-29.532 8.318-36.875 21.708-25.507 46.513-88.608 55.46-125.98 17.81-49.792-50.161-13.556-135.29 57.425-135.29h211.953c44.525 0 80.407 36.545 79.352 81.293-.371 15.764-5.431 30.924-14.632 43.843-2.402 3.374-1.615 8.057 1.759 10.46 3.374 2.402 8.057 1.615 10.46-1.759 10.946-15.37 16.967-33.417 17.409-52.19 1.246-53.035-41.265-96.646-94.349-96.646zm-144.801 0v-13.631c0-1.477 1.201-2.679 2.678-2.679h71.202c1.477 0 2.679 1.202 2.679 2.679v13.631z"/></g></g><g transform="matrix(0.09765625 0 0 0.09765625 62.5 237.5)" id="L1_8"><path d="m475.769 227.269c0 121.375-98.394 277.231-219.769 277.231s-219.769-155.856-219.769-277.231 98.394-219.769 219.769-219.769 219.769 98.394 219.769 219.769z" fill="#5766cb"/><path d="m256 7.5c-6.324 0-12.581.283-18.769.806 112.587 9.524 201 103.912 201 218.963 0 115.053-88.411 261.081-201 275.983 6.187.819 12.446 1.248 18.769 1.248 121.375 0 219.769-155.856 219.769-277.231s-98.394-219.769-219.769-219.769z" fill="#3d4fc3"/><circle cx="256" cy="227" r="128" fill="#f4fbff"/><path d="m256 99.191c-4.659 0-9.258.255-13.789.741 64.25 6.878 114.289 61.261 114.289 127.337s-50.039 120.459-114.289 127.337c4.531.485 9.13.741 13.789.741 70.735 0 128.078-57.342 128.078-128.078s-57.343-128.078-128.078-128.078z" fill="#daf1f4"/><g><path d="m256 130.796c-4.143 0-7.5 3.357-7.5 7.5v8.897c0 4.143 3.357 7.5 7.5 7.5s7.5-3.357 7.5-7.5v-8.897c0-4.143-3.357-7.5-7.5-7.5z"/><path d="m317.926 175.95 6.291-6.291c2.929-2.93 2.929-7.678 0-10.607-2.93-2.928-7.678-2.928-10.607 0l-6.291 6.291c-2.929 2.93-2.929 7.678 0 10.607 2.931 2.929 7.677 2.928 10.607 0z"/><path d="m344.973 234.769c4.143 0 7.5-3.357 7.5-7.5s-3.357-7.5-7.5-7.5h-8.897c-4.143 0-7.5 3.357-7.5 7.5s3.357 7.5 7.5 7.5z"/><path d="m307.319 289.194 6.291 6.291c2.931 2.929 7.678 2.928 10.607 0 2.929-2.93 2.929-7.678 0-10.607l-6.291-6.291c-2.93-2.928-7.678-2.928-10.607 0-2.929 2.93-2.929 7.678 0 10.607z"/><path d="m248.5 316.241c0 4.143 3.357 7.5 7.5 7.5s7.5-3.357 7.5-7.5v-8.896c0-4.143-3.357-7.5-7.5-7.5s-7.5 3.357-7.5 7.5z"/><path d="m187.783 295.484c2.928 2.928 7.677 2.931 10.606.001l6.292-6.291c2.93-2.929 2.93-7.678.001-10.606-2.93-2.929-7.679-2.93-10.606-.001l-6.292 6.291c-2.93 2.929-2.93 7.678-.001 10.606z"/><path d="m167.028 219.769c-4.143 0-7.5 3.357-7.5 7.5s3.357 7.5 7.5 7.5h8.896c4.143 0 7.5-3.357 7.5-7.5s-3.357-7.5-7.5-7.5z"/><path d="m194.076 175.95c2.936 2.934 7.684 2.923 10.606-.001 2.929-2.929 2.929-7.678-.001-10.606l-6.292-6.291c-2.93-2.928-7.679-2.929-10.606.001-2.929 2.929-2.929 7.678.001 10.606z"/><path d="m257.967 181.514c-4.143 0-7.5 3.357-7.5 7.5v38.255c0 4.143 3.357 7.5 7.5 7.5h20.756c4.143 0 7.5-3.357 7.5-7.5s-3.357-7.5-7.5-7.5h-13.256v-30.755c0-4.143-3.357-7.5-7.5-7.5z"/><path d="m210.973 355.178c14.455 5.089 29.604 7.669 45.027 7.669 74.758 0 135.577-60.82 135.577-135.578s-60.819-135.578-135.577-135.578-135.578 60.819-135.578 135.577c0 46.205 23.196 88.792 62.049 113.92 3.48 2.252 8.121 1.255 10.371-2.225 2.249-3.479 1.253-8.121-2.225-10.371-34.562-22.352-55.195-60.23-55.195-101.324 0-66.486 54.091-120.577 120.578-120.577 66.486 0 120.577 54.091 120.577 120.577 0 66.487-54.091 120.578-120.577 120.578-13.722 0-27.195-2.294-40.047-6.817-3.91-1.376-8.189.677-9.564 4.584-1.376 3.908.677 8.19 4.584 9.565z"/><path d="m421.595 71.629c-2.836-3.017-7.583-3.162-10.602-.326-3.018 2.837-3.164 7.584-.326 10.602 37.145 39.505 57.602 91.13 57.602 145.364 0 89.77-54.914 197.038-130.713 244.631-26.527 16.655-53.967 25.1-81.556 25.1s-55.028-8.445-81.556-25.101c-75.89-47.65-130.713-154.906-130.713-244.63 0-117.045 95.224-212.269 212.269-212.269 48.328 0 95.627 16.688 133.182 46.989 3.225 2.6 7.946 2.095 10.547-1.127 2.601-3.224 2.097-7.946-1.127-10.547-40.214-32.446-90.857-50.315-142.602-50.315-125.605 0-227.269 101.646-227.269 227.269 0 94.58 57.255 206.802 137.737 257.334 28.955 18.179 59.078 27.397 89.532 27.397s60.577-9.218 89.532-27.397c80.422-50.494 137.736-162.681 137.736-257.334.001-58.068-21.901-113.342-61.673-155.64z"/></g></g><g transform="matrix(0.1367267668247223 0 0 0.1367267668247223 315 140)" id="L1_9"><g fill="#2b4d66"><path d="m198.697 487.585h-68.937c-6.321 0-11.446-5.124-11.446-11.446v-39.045h91.828v39.045c0 6.321-5.124 11.446-11.445 11.446z"/><path d="m382.211 487.585h-68.937c-6.321 0-11.446-5.124-11.446-11.446v-39.045h91.828v39.045c.001 6.321-5.124 11.446-11.445 11.446z"/></g><path d="m503.006 346.885c-16.659-93.522-44.431-191.781-83.314-282.099-10.553-24.513-34.676-40.4-61.364-40.4h-204.685c-26.688 0-50.811 15.887-61.364 40.4-38.884 90.317-66.655 188.576-83.314 282.099-10.235 57.46 33.94 110.21 92.305 110.21h309.432c58.364-.001 102.54-52.75 92.304-110.21zm-181.494-240.552h-131.054c-10.975 0-19.872-8.897-19.872-19.872s8.897-19.872 19.872-19.872h131.054c10.975 0 19.872 8.897 19.872 19.872s-8.897 19.872-19.872 19.872z" fill="#365e7d"/><path d="m503.006 346.885c-16.659-93.522-44.431-191.781-83.314-282.099-10.553-24.513-34.676-40.4-61.364-40.4h-27.5c26.688 0 50.811 15.887 61.364 40.4 38.883 90.317 66.654 188.576 83.314 282.099 10.236 57.46-33.94 110.21-92.305 110.21h27.5c58.365-.001 102.541-52.75 92.305-110.21z" fill="#2b4d66"/><path d="m359.109 411.526h-206.247c-29.066 0-51.557-25.471-47.959-54.314l22.767-182.489c1.679-13.457 13.117-23.557 26.679-23.557h203.272c13.562 0 25 10.1 26.679 23.557l22.767 182.489c3.599 28.843-18.892 54.314-47.958 54.314z" fill="#f4fbff"/><path d="m407.067 357.212-22.767-182.489c-1.679-13.457-13.117-23.557-26.679-23.557h-20.526c13.562 0 25 10.1 26.679 23.557l22.767 182.49c3.598 28.843-18.893 54.314-47.959 54.314h20.526c29.067-.001 51.558-25.472 47.959-54.315z" fill="#daf1f4"/><path d="m255.985 213.145c-37.666 0-68.201 30.535-68.201 68.201s30.534 68.201 68.201 68.201c28.879 0 53.547-17.958 63.494-43.309l-63.494-24.892z" fill="#dd636e"/><path d="m237.459 215.713v70.539c0 4.657 2.852 8.838 7.187 10.538l65.667 25.744c3.756-4.949 6.86-10.42 9.166-16.295l-63.494-24.892v-68.201c-6.424-.001-12.633.907-18.526 2.567z" fill="#da4a54"/><g><path d="m263.485 185.28v-7.757c0-4.142-3.357-7.5-7.5-7.5s-7.5 3.358-7.5 7.5v7.757c0 4.142 3.357 7.5 7.5 7.5s7.5-3.358 7.5-7.5z"/><path d="m334.704 202.628c-2.93-2.929-7.678-2.929-10.607 0l-5.485 5.485c-2.929 2.929-2.929 7.678 0 10.606 2.93 2.929 7.678 2.929 10.607 0l5.485-5.485c2.929-2.928 2.929-7.677 0-10.606z"/><path d="m352.051 273.846c-4.143 0-7.5 3.357-7.5 7.5s3.357 7.5 7.5 7.5h7.758c4.143 0 7.5-3.357 7.5-7.5s-3.357-7.5-7.5-7.5z"/><path d="m324.097 360.064c2.927 2.927 7.678 2.93 10.606-.001 2.929-2.929 2.929-7.678-.001-10.606l-5.485-5.484c-2.93-2.93-7.679-2.929-10.606.001-2.929 2.929-2.929 7.678.001 10.606z"/><path d="m248.485 377.412v7.758c0 4.143 3.357 7.5 7.5 7.5s7.5-3.357 7.5-7.5v-7.758c0-4.143-3.357-7.5-7.5-7.5s-7.5 3.358-7.5 7.5z"/><path d="m187.874 360.064 5.485-5.484c2.93-2.929 2.93-7.678.001-10.606s-7.678-2.93-10.606-.001l-5.485 5.484c-2.93 2.929-2.93 7.678-.001 10.606 2.928 2.928 7.676 2.93 10.606.001z"/><path d="m152.162 273.846c-4.143 0-7.5 3.357-7.5 7.5s3.357 7.5 7.5 7.5h7.757c4.143 0 7.5-3.357 7.5-7.5s-3.357-7.5-7.5-7.5z"/><path d="m193.36 218.72c2.929-2.929 2.929-7.678 0-10.606l-5.485-5.485c-2.93-2.929-7.678-2.929-10.607 0s-2.929 7.678 0 10.606l5.485 5.485c2.93 2.929 7.677 2.929 10.607 0z"/><path d="m326.46 308.978c0-.001.001-.002.001-.002.812-2.071 1.539-4.185 2.16-6.281 1.176-3.971-1.09-8.145-5.062-9.321-3.265-.965-6.658.393-8.419 3.109l-51.656-20.252v-55.485c3.173-.649 5.678-3.316 5.968-6.707.353-4.127-2.706-7.759-6.834-8.112-2.185-.187-4.417-.282-6.634-.282-41.741 0-75.7 33.959-75.7 75.701s33.959 75.701 75.7 75.701c31.355 0 59.018-18.868 70.476-48.069zm-70.475 33.069c-33.471 0-60.7-27.23-60.7-60.701 0-30.931 23.256-56.533 53.2-60.24v60.24c0 3.086 1.89 5.856 4.763 6.982l56.087 21.989c-10.526 19.494-30.743 31.73-53.35 31.73z"/><path d="m296.669 236.295c3.063 2.787 7.807 2.565 10.595-.499 2.788-3.063 2.564-7.807-.499-10.595-3.219-2.929-6.707-5.592-10.368-7.916-3.496-2.22-8.132-1.184-10.351 2.313-2.22 3.498-1.184 8.132 2.313 10.352 2.933 1.861 5.729 3.996 8.31 6.345z"/><path d="m324.432 275.908c4.066-.788 6.723-4.725 5.934-8.791-.824-4.252-2.029-8.474-3.582-12.545-1.475-3.871-5.808-5.813-9.679-4.337-3.871 1.475-5.812 5.809-4.337 9.679 1.245 3.268 2.212 6.652 2.873 10.061.793 4.086 4.746 6.72 8.791 5.933z"/><path d="m120.228 173.794-22.767 182.489c-1.981 15.881 2.958 31.869 13.551 43.866 10.593 11.996 25.847 18.877 41.851 18.877h206.247c16.004 0 31.257-6.88 41.85-18.877 10.593-11.996 15.532-27.985 13.551-43.866l-4.488-35.98c-.514-4.11-4.262-7.021-8.371-6.514-4.11.513-7.026 4.261-6.514 8.371l4.488 35.98c1.449 11.614-2.163 23.307-9.91 32.081-7.746 8.772-18.901 13.805-30.605 13.805h-206.249c-11.704 0-22.86-5.032-30.606-13.806-7.747-8.773-11.359-20.466-9.91-32.08l22.768-182.49c1.208-9.683 9.478-16.985 19.236-16.985h203.271c9.759 0 18.028 7.302 19.237 16.986l14.537 116.521c.514 4.11 4.266 7.022 8.371 6.514 4.11-.513 7.026-4.261 6.514-8.371l-14.537-116.521c-2.144-17.176-16.813-30.128-34.122-30.128h-203.272c-17.309 0-31.978 12.952-34.121 30.128z"/><path d="m66.292 248.335-11.496 92.145c-.513 4.11 2.403 7.858 6.514 8.371.315.039.628.059.938.059 3.728 0 6.959-2.777 7.433-6.572l11.496-92.145c.513-4.11-2.403-7.858-6.514-8.371-4.105-.507-7.858 2.402-8.371 6.513z"/><path d="m449.723 348.909c.31 0 .623-.02.938-.059 4.11-.513 7.026-4.261 6.514-8.371l-11.496-92.145c-.514-4.11-4.261-7.021-8.371-6.514-4.11.513-7.026 4.261-6.514 8.371l11.496 92.145c.474 3.796 3.706 6.573 7.433 6.573z"/><path d="m510.389 345.57c-17.707-99.406-46.688-197.525-83.809-283.749-11.751-27.297-38.542-44.935-68.253-44.935h-204.685c-29.71 0-56.501 17.638-68.253 44.935-2.305 5.353-4.649 10.927-6.971 16.566-1.576 3.83.251 8.213 4.081 9.79 3.829 1.576 8.213-.25 9.79-4.081 2.291-5.566 4.604-11.065 6.877-16.344 9.38-21.788 30.763-35.866 54.476-35.866h204.686c23.713 0 45.096 14.078 54.476 35.866 36.672 85.182 65.311 182.16 82.818 280.449 4.489 25.199-2.361 50.903-18.795 70.524-16.433 19.617-40.534 30.869-66.126 30.869h-309.432c-25.591 0-49.692-11.251-66.124-30.869-16.434-19.62-23.285-45.325-18.797-70.525 14.438-81.055 36.9-162.791 64.957-236.372 1.476-3.87-.466-8.204-4.336-9.68-3.866-1.477-8.204.464-9.68 4.336-28.386 74.446-51.108 157.121-65.708 239.086-5.27 29.581 2.773 59.755 22.065 82.787 19.289 23.029 47.582 36.237 77.623 36.237h9.545v11.545c0 10.446 8.499 18.945 18.945 18.945h15.166c4.143 0 7.5-3.357 7.5-7.5s-3.357-7.5-7.5-7.5h-15.166c-2.176 0-3.945-1.77-3.945-3.945v-11.545h76.828v11.545c0 2.176-1.771 3.945-3.946 3.945h-23.784c-4.143 0-7.5 3.357-7.5 7.5s3.357 7.5 7.5 7.5h23.784c10.447 0 18.946-8.499 18.946-18.945v-11.545h76.687v11.545c0 10.446 8.499 18.945 18.945 18.945h68.938c10.446 0 18.945-8.499 18.945-18.945v-11.545h9.544c30.042 0 58.335-13.208 77.625-36.238 19.291-23.032 27.333-53.206 22.063-82.786zm-124.232 130.569c0 2.176-1.77 3.945-3.945 3.945h-68.938c-2.176 0-3.945-1.77-3.945-3.945v-11.545h76.828z"/><path d="m321.512 113.833c15.093 0 27.372-12.279 27.372-27.372s-12.279-27.372-27.372-27.372h-131.053c-15.093 0-27.372 12.279-27.372 27.372s12.279 27.372 27.372 27.372zm-143.425-27.372c0-6.822 5.55-12.372 12.372-12.372h131.054c6.822 0 12.372 5.55 12.372 12.372s-5.55 12.372-12.372 12.372h-131.054c-6.823 0-12.372-5.55-12.372-12.372z"/></g></g></defs><g fi:class="KUsePattern"><pattern id="pattern_L1_0" width="350" height="350" patternUnits="userSpaceOnUse"><use xlink:href="#L1_0" x="-350" y="-350"/><use xlink:href="#L1_0" x="0" y="-350"/><use xlink:href="#L1_0" x="350" y="-350"/><use xlink:href="#L1_0" x="-350" y="0"/><use xlink:href="#L1_0" x="0" y="0"/><use xlink:href="#L1_0" x="350" y="0"/><use xlink:href="#L1_0" x="-350" y="350"/><use xlink:href="#L1_0" x="0" y="350"/><use xlink:href="#L1_0" x="350" y="350"/></pattern><rect x="0" y="0" width="100%" height="100%" fill="url(#pattern_L1_0)"/></g><g fi:class="KUsePattern"><pattern id="pattern_L1_1" width="350" height="350" patternUnits="userSpaceOnUse"><use xlink:href="#L1_1" x="-350" y="-350"/><use xlink:href="#L1_1" x="0" y="-350"/><use xlink:href="#L1_1" x="350" y="-350"/><use xlink:href="#L1_1" x="-350" y="0"/><use xlink:href="#L1_1" x="0" y="0"/><use xlink:href="#L1_1" x="350" y="0"/><use xlink:href="#L1_1" x="-350" y="350"/><use xlink:href="#L1_1" x="0" y="350"/><use xlink:href="#L1_1" x="350" y="350"/></pattern><rect x="0" y="0" width="100%" height="100%" fill="url(#pattern_L1_1)"/></g><g fi:class="KUsePattern"><pattern id="pattern_L1_2" width="350" height="350" patternUnits="userSpaceOnUse"><use xlink:href="#L1_2" x="-350" y="-350"/><use xlink:href="#L1_2" x="0" y="-350"/><use xlink:href="#L1_2" x="350" y="-350"/><use xlink:href="#L1_2" x="-350" y="0"/><use xlink:href="#L1_2" x="0" y="0"/><use xlink:href="#L1_2" x="350" y="0"/><use xlink:href="#L1_2" x="-350" y="350"/><use xlink:href="#L1_2" x="0" y="350"/><use xlink:href="#L1_2" x="350" y="350"/></pattern><rect x="0" y="0" width="100%" height="100%" fill="url(#pattern_L1_2)"/></g><g fi:class="KUsePattern"><pattern id="pattern_L1_3" width="350" height="350" patternUnits="userSpaceOnUse"><use xlink:href="#L1_3" x="-350" y="-350"/><use xlink:href="#L1_3" x="0" y="-350"/><use xlink:href="#L1_3" x="350" y="-350"/><use xlink:href="#L1_3" x="-350" y="0"/><use xlink:href="#L1_3" x="0" y="0"/><use xlink:href="#L1_3" x="350" y="0"/><use xlink:href="#L1_3" x="-350" y="350"/><use xlink:href="#L1_3" x="0" y="350"/><use xlink:href="#L1_3" x="350" y="350"/></pattern><rect x="0" y="0" width="100%" height="100%" fill="url(#pattern_L1_3)"/></g><g fi:class="KUsePattern"><pattern id="pattern_L1_4" width="350" height="350" patternUnits="userSpaceOnUse"><use xlink:href="#L1_4" x="-350" y="-350"/><use xlink:href="#L1_4" x="0" y="-350"/><use xlink:href="#L1_4" x="350" y="-350"/><use xlink:href="#L1_4" x="-350" y="0"/><use xlink:href="#L1_4" x="0" y="0"/><use xlink:href="#L1_4" x="350" y="0"/><use xlink:href="#L1_4" x="-350" y="350"/><use xlink:href="#L1_4" x="0" y="350"/><use xlink:href="#L1_4" x="350" y="350"/></pattern><rect x="0" y="0" width="100%" height="100%" fill="url(#pattern_L1_4)"/></g><g fi:class="KUsePattern"><pattern id="pattern_L1_5" width="350" height="350" patternUnits="userSpaceOnUse"><use xlink:href="#L1_5" x="-350" y="-350"/><use xlink:href="#L1_5" x="0" y="-350"/><use xlink:href="#L1_5" x="350" y="-350"/><use xlink:href="#L1_5" x="-350" y="0"/><use xlink:href="#L1_5" x="0" y="0"/><use xlink:href="#L1_5" x="350" y="0"/><use xlink:href="#L1_5" x="-350" y="350"/><use xlink:href="#L1_5" x="0" y="350"/><use xlink:href="#L1_5" x="350" y="350"/></pattern><rect x="0" y="0" width="100%" height="100%" fill="url(#pattern_L1_5)"/></g><g fi:class="KUsePattern"><pattern id="pattern_L1_6" width="350" height="350" patternUnits="userSpaceOnUse"><use xlink:href="#L1_6" x="-350" y="-350"/><use xlink:href="#L1_6" x="0" y="-350"/><use xlink:href="#L1_6" x="350" y="-350"/><use xlink:href="#L1_6" x="-350" y="0"/><use xlink:href="#L1_6" x="0" y="0"/><use xlink:href="#L1_6" x="350" y="0"/><use xlink:href="#L1_6" x="-350" y="350"/><use xlink:href="#L1_6" x="0" y="350"/><use xlink:href="#L1_6" x="350" y="350"/></pattern><rect x="0" y="0" width="100%" height="100%" fill="url(#pattern_L1_6)"/></g><g fi:class="KUsePattern"><pattern id="pattern_L1_7" width="350" height="350" patternUnits="userSpaceOnUse"><use xlink:href="#L1_7" x="-350" y="-350"/><use xlink:href="#L1_7" x="0" y="-350"/><use xlink:href="#L1_7" x="350" y="-350"/><use xlink:href="#L1_7" x="-350" y="0"/><use xlink:href="#L1_7" x="0" y="0"/><use xlink:href="#L1_7" x="350" y="0"/><use xlink:href="#L1_7" x="-350" y="350"/><use xlink:href="#L1_7" x="0" y="350"/><use xlink:href="#L1_7" x="350" y="350"/></pattern><rect x="0" y="0" width="100%" height="100%" fill="url(#pattern_L1_7)"/></g><g fi:class="KUsePattern"><pattern id="pattern_L1_8" width="350" height="350" patternUnits="userSpaceOnUse"><use xlink:href="#L1_8" x="-350" y="-350"/><use xlink:href="#L1_8" x="0" y="-350"/><use xlink:href="#L1_8" x="350" y="-350"/><use xlink:href="#L1_8" x="-350" y="0"/><use xlink:href="#L1_8" x="0" y="0"/><use xlink:href="#L1_8" x="350" y="0"/><use xlink:href="#L1_8" x="-350" y="350"/><use xlink:href="#L1_8" x="0" y="350"/><use xlink:href="#L1_8" x="350" y="350"/></pattern><rect x="0" y="0" width="100%" height="100%" fill="url(#pattern_L1_8)"/></g><g fi:class="KUsePattern"><pattern id="pattern_L1_9" width="350" height="350" patternUnits="userSpaceOnUse"><use xlink:href="#L1_9" x="-350" y="-350"/><use xlink:href="#L1_9" x="0" y="-350"/><use xlink:href="#L1_9" x="350" y="-350"/><use xlink:href="#L1_9" x="-350" y="0"/><use xlink:href="#L1_9" x="0" y="0"/><use xlink:href="#L1_9" x="350" y="0"/><use xlink:href="#L1_9" x="-350" y="350"/><use xlink:href="#L1_9" x="0" y="350"/><use xlink:href="#L1_9" x="350" y="350"/></pattern><rect x="0" y="0" width="100%" height="100%" fill="url(#pattern_L1_9)"/></g></svg>