<svg xmlns="http://www.w3.org/2000/svg" xmlns:xlink="http://www.w3.org/1999/xlink" xmlns:fi="http://pattern.flaticon.com/" x="0" y="0" width="700" height="350" viewBox="0 0 700 350"><rect x="0px" y="0px" width="100%" height="100%" opacity="0" fill="#5650de"/><defs><g transform="matrix(0.1697916491523753 0.04549553527192747 -0.04549553527192747 0.1697916491523753 -31.819805153394643 -55.11351921262151)" id="L1_804"><g><path d="M238.933,275.123c10.146,9.847,26.359,9.591,36.198-0.555c9.847-10.146,9.591-26.359-0.555-36.198   c-10.146-9.847-26.359-9.591-36.198,0.555l-0.009,0.009C228.54,249.088,228.787,265.284,238.933,275.123z" fill="#006df0"/><path d="M256,68.267c-4.71,0-8.533-3.823-8.533-8.533v-51.2C247.467,3.823,251.29,0,256,0   c4.71,0,8.533,3.823,8.533,8.533v51.2C264.533,64.444,260.71,68.267,256,68.267z" fill="#006df0"/></g><g><path d="M214.502,29.227c-4.139,0-7.68-2.978-8.397-7.049l-1.485-8.405   c-0.819-4.642,2.278-9.071,6.921-9.882c4.642-0.819,9.071,2.278,9.89,6.921l1.485,8.405c0.819,4.642-2.287,9.062-6.929,9.882l0,0   C215.501,29.184,214.997,29.227,214.502,29.227z" fill="#231f20"/><path d="M174.276,40.013c-3.593,0-6.801-2.244-8.021-5.623l-2.91-8.013   c-1.698-4.395,0.486-9.335,4.89-11.034c4.395-1.698,9.335,0.486,11.034,4.89c0.043,0.102,0.077,0.205,0.111,0.307l2.918,8.021   c1.613,4.429-0.674,9.327-5.103,10.94C176.265,39.842,175.275,40.013,174.276,40.013z" fill="#231f20"/><path d="M102.4,81.502c-2.526,0-4.915-1.118-6.537-3.055l-5.487-6.537   c-2.953-3.669-2.364-9.045,1.306-11.998c3.567-2.867,8.755-2.406,11.767,1.033l5.487,6.537c3.029,3.61,2.56,8.994-1.05,12.023   C106.351,80.794,104.405,81.502,102.4,81.502z" fill="#231f20"/><path d="M72.96,110.933c-2.005,0-3.942-0.708-5.478-1.997l-6.537-5.487   c-3.55-3.106-3.908-8.491-0.802-12.041c3.012-3.439,8.201-3.9,11.767-1.033l6.537,5.487c3.61,3.029,4.079,8.414,1.05,12.023   C77.875,109.815,75.486,110.933,72.96,110.933z" fill="#231f20"/><path d="M31.471,182.818c-0.99,0-1.98-0.179-2.91-0.521l-8.021-2.918c-4.463-1.527-6.835-6.374-5.308-10.837   s6.374-6.835,10.837-5.308c0.102,0.034,0.205,0.077,0.307,0.111l8.013,2.91c4.437,1.596,6.741,6.485,5.146,10.914   C38.306,180.574,35.081,182.835,31.471,182.818z" fill="#231f20"/><path d="M20.702,223.044c-0.495,0-0.998-0.043-1.485-0.128l-8.405-1.485c-4.642-0.819-7.74-5.248-6.921-9.89   s5.239-7.74,9.882-6.921l8.405,1.485c4.642,0.811,7.748,5.239,6.929,9.882C28.399,220.066,24.849,223.044,20.702,223.044z" fill="#231f20"/><path d="M12.279,307.507c-4.71,0-8.533-3.823-8.525-8.542c0-4.147,2.978-7.689,7.057-8.397l8.405-1.485   c4.642-0.819,9.071,2.278,9.89,6.929c0.819,4.651-2.278,9.071-6.929,9.89l-8.405,1.485   C13.278,307.465,12.783,307.507,12.279,307.507z" fill="#231f20"/><path d="M23.458,349.175c-4.71,0-8.533-3.814-8.542-8.525c0-3.593,2.244-6.801,5.623-8.03l8.021-2.918   c4.429-1.613,9.327,0.674,10.94,5.103s-0.674,9.327-5.111,10.94l-8.013,2.91C25.438,348.996,24.457,349.175,23.458,349.175z" fill="#231f20"/><path d="M66.432,423.603c-4.71,0-8.533-3.823-8.533-8.533c0-2.526,1.118-4.915,3.046-6.537l6.537-5.487   c3.55-3.106,8.934-2.748,12.041,0.802c3.106,3.55,2.748,8.934-0.802,12.041c-0.085,0.077-0.179,0.154-0.273,0.23l-6.537,5.487   C70.374,422.895,68.437,423.603,66.432,423.603z" fill="#231f20"/><path d="M96.93,454.101c-4.71,0-8.533-3.823-8.525-8.542c0-2.005,0.708-3.934,1.988-5.47l5.487-6.537   c2.953-3.669,8.32-4.258,11.998-1.306c3.669,2.953,4.258,8.32,1.306,11.998c-0.077,0.094-0.154,0.188-0.23,0.273l-5.487,6.537   C101.845,452.983,99.456,454.101,96.93,454.101z" fill="#231f20"/><path d="M171.366,497.075c-4.71,0-8.533-3.814-8.533-8.533c0-0.998,0.171-1.988,0.512-2.918l2.91-8.013   c1.613-4.429,6.502-6.716,10.931-5.103c4.429,1.613,6.716,6.502,5.103,10.931l-2.918,8.021   C178.15,494.831,174.95,497.075,171.366,497.075z" fill="#231f20"/><path d="M213.035,508.245c-0.495,0-0.998-0.043-1.485-0.137c-4.642-0.811-7.748-5.239-6.929-9.882l0,0   l1.485-8.405c0.819-4.642,5.248-7.74,9.89-6.929c4.642,0.819,7.74,5.248,6.921,9.89l0,0l-1.485,8.405   C220.715,505.267,217.173,508.245,213.035,508.245z" fill="#231f20"/><path d="M298.965,508.245c-4.139,0-7.68-2.978-8.397-7.057l-1.485-8.405   c-0.819-4.642,2.278-9.071,6.929-9.89c4.651-0.819,9.071,2.278,9.89,6.929l1.485,8.405c0.819,4.642-2.287,9.062-6.929,9.882l0,0   C299.964,508.203,299.46,508.245,298.965,508.245z" fill="#231f20"/><path d="M340.634,497.075c-3.584,0-6.784-2.244-8.013-5.615l-2.918-8.021   c-1.613-4.429,0.674-9.327,5.111-10.931c4.429-1.613,9.327,0.674,10.931,5.103l2.91,8.013c1.613,4.429-0.674,9.327-5.103,10.94   C342.622,496.905,341.632,497.075,340.634,497.075z" fill="#231f20"/><path d="M415.07,454.101c-2.526,0.009-4.924-1.109-6.537-3.046l-5.487-6.537   c-3.106-3.55-2.748-8.934,0.802-12.041c3.55-3.106,8.934-2.748,12.041,0.802c0.077,0.085,0.154,0.179,0.23,0.273l5.487,6.536   c3.029,3.61,2.551,8.994-1.067,12.023C419.004,453.393,417.075,454.101,415.07,454.101z" fill="#231f20"/><path d="M445.568,423.603c-2.005,0-3.942-0.708-5.478-1.997l-6.537-5.487   c-3.669-2.953-4.258-8.32-1.306-11.998c2.953-3.669,8.32-4.258,11.998-1.306c0.094,0.077,0.188,0.154,0.273,0.23l6.537,5.487   c3.61,3.029,4.079,8.414,1.05,12.023C450.483,422.485,448.094,423.603,445.568,423.603z" fill="#231f20"/><path d="M488.542,349.175c-0.998,0-1.98-0.179-2.918-0.521l-8.013-2.91   c-4.429-1.613-6.716-6.502-5.103-10.931s6.502-6.716,10.931-5.111l8.021,2.918c4.429,1.604,6.716,6.502,5.111,10.931   C495.343,346.931,492.134,349.175,488.542,349.175z" fill="#231f20"/><path d="M499.721,307.507c-0.503,0-0.998-0.043-1.493-0.128l-8.405-1.485   c-4.642-0.819-7.74-5.239-6.929-9.89c0.811-4.651,5.239-7.74,9.89-6.929l8.405,1.485c4.642,0.811,7.748,5.239,6.929,9.882   C507.409,304.529,503.868,307.507,499.721,307.507z" fill="#231f20"/><path d="M491.298,223.044c-4.71,0-8.533-3.814-8.533-8.533c0-4.147,2.978-7.697,7.057-8.405l8.405-1.485   c4.642-0.819,9.071,2.278,9.89,6.921s-2.287,9.071-6.929,9.89l-8.405,1.485C492.297,223.002,491.793,223.044,491.298,223.044z" fill="#231f20"/><path d="M480.529,182.818c-4.71,0.017-8.55-3.789-8.567-8.499c-0.017-3.61,2.244-6.835,5.649-8.064   l8.013-2.91c4.395-1.698,9.335,0.486,11.034,4.89c1.698,4.403-0.486,9.335-4.89,11.034c-0.102,0.043-0.205,0.077-0.307,0.111   l-8.021,2.918C482.509,182.639,481.519,182.818,480.529,182.818z" fill="#231f20"/><path d="M439.04,110.933c-4.71,0-8.533-3.823-8.533-8.533c0-2.526,1.118-4.915,3.046-6.537l6.537-5.487   c3.669-2.953,9.045-2.364,11.998,1.306c2.867,3.567,2.406,8.755-1.033,11.767l-6.537,5.487   C442.982,110.225,441.045,110.933,439.04,110.933z" fill="#231f20"/><path d="M409.6,81.502c-4.71,0-8.533-3.823-8.533-8.533c0-2.005,0.708-3.951,1.997-5.487l5.487-6.537   c3.106-3.55,8.491-3.908,12.041-0.802c3.439,3.012,3.9,8.201,1.033,11.767l-5.487,6.537   C414.515,80.384,412.126,81.502,409.6,81.502z" fill="#231f20"/><path d="M337.724,40.013c-4.71,0-8.533-3.814-8.533-8.533c0-0.998,0.171-1.988,0.512-2.918l2.918-8.021   c1.527-4.463,6.374-6.835,10.837-5.308s6.835,6.374,5.308,10.837c-0.034,0.102-0.077,0.205-0.111,0.307l-2.91,8.013   C344.525,37.769,341.316,40.013,337.724,40.013z" fill="#231f20"/><path d="M297.498,29.227c-0.495,0-0.998-0.043-1.485-0.128c-4.642-0.811-7.748-5.239-6.929-9.882l0,0   l1.485-8.405c0.819-4.642,5.239-7.74,9.89-6.929c4.651,0.811,7.74,5.239,6.929,9.89l0,0l-1.485,8.405   C305.178,26.249,301.636,29.227,297.498,29.227z" fill="#231f20"/><path d="M149.333,79.778c-3.055,0-5.871-1.621-7.398-4.267l-17.067-29.559   c-2.33-4.096-0.896-9.31,3.2-11.639c4.062-2.304,9.216-0.922,11.58,3.106l17.067,29.559c2.355,4.079,0.956,9.301-3.123,11.657   C152.294,79.386,150.827,79.778,149.333,79.778z" fill="#231f20"/><path d="M71.236,157.867c-1.502,0-2.97-0.393-4.267-1.143L37.41,139.657   c-4.062-2.381-5.427-7.612-3.046-11.674c2.364-4.028,7.518-5.41,11.58-3.106l29.559,17.067c4.079,2.355,5.478,7.578,3.123,11.657   C77.099,156.237,74.283,157.867,71.236,157.867z" fill="#231f20"/><path d="M41.694,388.267c-4.71,0-8.533-3.823-8.533-8.533c0-3.046,1.63-5.862,4.267-7.39l29.559-17.067   c4.062-2.381,9.293-1.024,11.674,3.046c2.381,4.062,1.024,9.293-3.046,11.674c-0.034,0.017-0.068,0.043-0.102,0.06l-29.559,17.067   C44.663,387.874,43.196,388.267,41.694,388.267z" fill="#231f20"/><path d="M132.267,478.848c-4.71-0.009-8.533-3.831-8.525-8.542c0-1.493,0.393-2.961,1.143-4.258   l17.067-29.559c2.33-4.096,7.535-5.53,11.639-3.2s5.53,7.535,3.2,11.639c-0.017,0.034-0.034,0.068-0.06,0.094l-17.067,29.559   C138.138,477.227,135.322,478.848,132.267,478.848z" fill="#231f20"/><path d="M379.733,478.848c-3.055,0-5.871-1.621-7.398-4.267l-17.067-29.559   c-2.33-4.096-0.896-9.31,3.2-11.639c4.062-2.304,9.216-0.922,11.58,3.106l17.067,29.559c2.355,4.079,0.956,9.301-3.123,11.657   C382.694,478.456,381.227,478.848,379.733,478.848z" fill="#231f20"/><path d="M470.306,388.267c-1.502,0-2.97-0.393-4.267-1.143l-29.559-17.067   c-4.062-2.381-5.427-7.612-3.046-11.674c2.364-4.028,7.518-5.41,11.58-3.106l29.559,17.067c4.079,2.355,5.478,7.578,3.123,11.657   C476.169,386.637,473.353,388.267,470.306,388.267z" fill="#231f20"/><path d="M440.764,157.867c-4.71,0-8.533-3.823-8.533-8.533c0-3.046,1.63-5.862,4.267-7.39l29.559-17.067   c4.096-2.33,9.31-0.896,11.639,3.2c2.304,4.062,0.922,9.216-3.106,11.58l-29.559,17.067   C443.733,157.474,442.266,157.867,440.764,157.867z" fill="#231f20"/><path d="M362.667,79.778c-4.71-0.009-8.533-3.831-8.525-8.542c0-1.493,0.393-2.961,1.143-4.258   l17.067-29.559c2.381-4.062,7.612-5.427,11.674-3.046c4.028,2.364,5.41,7.518,3.106,11.58l-17.067,29.559   C368.538,78.157,365.722,79.778,362.667,79.778z" fill="#231f20"/></g><g><path d="M59.733,264.533h-51.2C3.823,264.533,0,260.71,0,256c0-4.71,3.823-8.533,8.533-8.533h51.2   c4.71,0,8.533,3.823,8.533,8.533C68.267,260.71,64.444,264.533,59.733,264.533z" fill="#006df0"/><path d="M256,512c-4.71,0-8.533-3.823-8.533-8.533v-51.2c0-4.71,3.823-8.533,8.533-8.533   c4.71,0,8.533,3.823,8.533,8.533v51.2C264.533,508.177,260.71,512,256,512z" fill="#006df0"/><path d="M503.467,264.533h-59.733c-4.71,0-8.533-3.823-8.533-8.533c0-4.71,3.823-8.533,8.533-8.533h59.733   c4.71,0,8.533,3.823,8.533,8.533C512,260.71,508.177,264.533,503.467,264.533z" fill="#006df0"/></g><path d="M377.421,135.006c-3.328-3.328-8.738-3.328-12.066,0l-92.032,92.032  c-5.188-2.97-11.085-4.497-17.067-4.429c-5.632,0.128-11.145,1.664-16.034,4.454l-43.785-43.785  c-3.328-3.345-8.747-3.354-12.092-0.026c-3.345,3.328-3.354,8.747-0.026,12.092l43.435,43.435  c-10.035,15.991-5.214,37.086,10.778,47.13c15.991,10.035,37.086,5.214,47.13-10.778c6.972-11.11,6.972-25.233,0-36.343  l91.759-91.708C380.749,143.744,380.749,138.334,377.421,135.006z M244.907,268.988c-6.767-6.562-6.929-17.365-0.358-24.132  c3.149-3.243,7.458-5.103,11.972-5.18c4.54-0.128,8.926,1.613,12.143,4.813c6.903,6.426,7.287,17.22,0.862,24.124  s-17.22,7.287-24.124,0.862C245.239,269.312,245.069,269.15,244.907,268.988z" fill="#231f20"/></g><g transform="matrix(0.0390625 0 0 0.0390625 252.5 340)" id="L1_805"><g><path d="M395.783,238.933c-9.429-84.309-85.41-145.007-169.719-135.586S81.057,188.757,90.486,273.067   s85.41,145.007,169.719,135.586c71.313-7.979,127.599-64.273,135.578-135.586C397.149,261.726,397.149,250.274,395.783,238.933z    M139.783,196.267l-7.39-4.267L139.783,196.267z M132.359,320l7.39-4.267L132.359,320z M179.207,366.848l4.267-7.39   L179.207,366.848z M179.207,145.152l4.267,7.39L179.207,145.152z M249.24,262.033c-3.388,3.277-8.789,3.183-12.066-0.213   c-3.191-3.311-3.191-8.55,0-11.853L207,219.793l30.174,30.174c3.328-3.328,8.738-3.328,12.066,0l48.273-48.273l-48.273,48.273   C252.568,253.303,252.568,258.705,249.24,262.033z M302.941,359.458l4.267,7.39L302.941,359.458z M302.941,152.542l4.267-7.39   L302.941,152.542z M354.055,192l-7.39,4.267L354.055,192z M346.666,315.733l7.39,4.267L346.666,315.733z" fill="#ffda44"/><path d="M237.174,249.967c-3.337,3.328-3.337,8.738,0,12.066c3.328,3.337,8.738,3.337,12.066,0   c3.328-3.337,3.337-8.738,0-12.066l0,0C245.904,246.639,240.502,246.639,237.174,249.967z" fill="#ffda44"/><path d="M396.807,256c0.009,5.7-0.333,11.401-1.024,17.067h26.624v-34.133h-26.624   C396.475,244.599,396.816,250.3,396.807,256z" fill="#ffda44"/></g><g><path d="M243.207,162.133c4.71,0,8.533-3.823,8.533-8.533V128c0-4.71-3.823-8.533-8.533-8.533   s-8.533,3.823-8.533,8.533v25.6C234.674,158.31,238.497,162.133,243.207,162.133z" fill="#231f20"/><path d="M186.597,140.885c-0.213-0.273-0.444-0.538-0.691-0.785c-0.196-0.35-0.41-0.683-0.64-1.007   l-0.853-0.683l-0.128-0.102c-0.102-0.077-0.205-0.179-0.299-0.239c-0.478-0.324-0.99-0.58-1.536-0.768   c-0.213-0.085-0.427-0.154-0.649-0.205c-0.23-0.077-0.444-0.154-0.674-0.213c-0.23-0.06-0.196-0.077-0.307-0.094   c-0.35-0.026-0.691-0.026-1.041,0c-0.657-0.077-1.314-0.077-1.971,0c-0.111,0-0.196,0-0.307,0c-0.538,0.094-1.05,0.265-1.536,0.512   c-0.239,0.102-0.478,0.222-0.7,0.35c-0.102,0.051-0.222,0.051-0.324,0.111c-0.102,0.06-0.085,0.085-0.137,0.111   c-0.051,0.026-0.256,0.111-0.384,0.196c-0.444,0.316-0.87,0.657-1.271,1.024c-0.154,0.171-0.213,0.384-0.358,0.563   c-0.375,0.469-0.7,0.973-0.964,1.51c-0.171,0.239-0.324,0.486-0.469,0.742c-0.102,0.23-0.179,0.469-0.239,0.717   c-0.051,0.171-0.128,0.324-0.171,0.486c-0.179,0.666-0.265,1.348-0.273,2.039c0,0.179,0.085,0.333,0.102,0.512   c0.051,0.512,0.145,1.007,0.282,1.502c0.137,0.631,0.341,1.246,0.614,1.835c0.068,0.128,0.068,0.282,0.145,0.418l4.267,7.39   c2.33,4.096,7.535,5.53,11.639,3.2c4.096-2.33,5.53-7.535,3.2-11.639c-0.017-0.034-0.034-0.068-0.06-0.094L186.597,140.885z" fill="#231f20"/><path d="M135.483,308.343l-7.39,4.267c-0.06,0-0.085,0.085-0.145,0.119c-0.06,0.034-0.247,0.102-0.367,0.188   c-0.452,0.316-0.879,0.657-1.28,1.024c-0.137,0.188-0.265,0.375-0.375,0.572c-0.333,0.427-0.614,0.887-0.853,1.374   c-0.256,0.427-0.478,0.879-0.657,1.34c-0.188,0.572-0.307,1.169-0.358,1.766c-0.085,0.333-0.154,0.666-0.205,1.007   c0,0.282,0.051,0.555,0.077,0.853c0,0.119,0,0.239,0,0.367c0.077,0.708,0.273,1.399,0.572,2.039   c0.06,0.137,0.179,0.247,0.239,0.375c0.06,0.128,0.102,0.444,0.222,0.649c0.307,0.503,0.674,0.973,1.084,1.399   c0.094,0.119,0.137,0.273,0.247,0.393c0.111,0.119,0.23,0.128,0.324,0.222c1.596,1.382,3.61,2.176,5.717,2.253l0,0   c0.922-0.017,1.835-0.188,2.705-0.503c0.171-0.051,0.358,0,0.529-0.094c0.171-0.094,0.273-0.222,0.435-0.299   c0.162-0.077,0.401-0.137,0.589-0.247l7.39-4.267c4.096-2.33,5.53-7.535,3.2-11.639c-2.33-4.096-7.535-5.53-11.639-3.2   c-0.034,0.017-0.068,0.034-0.102,0.06L135.483,308.343z" fill="#231f20"/><path d="M187.741,352.068c-4.079-2.355-9.301-0.956-11.657,3.123l-4.267,7.39   c-0.085,0.205-0.154,0.418-0.213,0.631c-0.068,0.137-0.188,0.247-0.247,0.384c-0.307,0.649-0.503,1.348-0.58,2.065   c0,0.119,0,0.23,0,0.341c0,0.282-0.077,0.563-0.077,0.853c0.009,0.691,0.094,1.374,0.273,2.039c0,0.162,0.119,0.316,0.171,0.486   c0.06,0.247,0.137,0.486,0.239,0.717c0.145,0.256,0.299,0.503,0.469,0.742c0.265,0.538,0.589,1.041,0.964,1.51   c0.145,0.179,0.205,0.393,0.358,0.563c0.358,0.29,0.742,0.538,1.143,0.759c0.239,0.179,0.384,0.427,0.649,0.572   c0.179,0.085,0.367,0.162,0.555,0.23c0.29,0.145,0.597,0.273,0.905,0.375c0.896,0.333,1.843,0.521,2.799,0.538l0,0   c0.947-0.017,1.894-0.205,2.782-0.538c0.29-0.102,0.58-0.222,0.853-0.358c0.751-0.35,1.442-0.802,2.048-1.357   c0.102-0.094,0.239-0.128,0.333-0.222c0.094-0.094,0.145-0.265,0.247-0.393c0.41-0.427,0.777-0.896,1.084-1.399l4.267-7.39   C193.202,359.654,191.82,354.432,187.741,352.068L187.741,352.068z" fill="#231f20"/><path d="M346.674,204.8c1.502,0,2.97-0.393,4.267-1.143l7.39-4.267c0.23-0.179,0.452-0.375,0.657-0.58   c0.401-0.213,0.777-0.469,1.135-0.751c0.179-0.171,0.239-0.41,0.401-0.597c0.282-0.367,0.538-0.751,0.759-1.152   c0.333-0.512,0.597-1.067,0.802-1.638c0.154-0.512,0.256-1.041,0.307-1.57c0.085-0.358,0.162-0.734,0.205-1.101   c-0.026-0.162-0.06-0.324-0.102-0.478c-0.06-0.631-0.188-1.254-0.393-1.86c-0.043-0.307-0.111-0.606-0.188-0.905   c-0.06-0.145-0.179-0.239-0.239-0.375c-0.06-0.137-0.102-0.444-0.222-0.649c-0.213-0.273-0.444-0.538-0.691-0.785   c-0.196-0.35-0.41-0.683-0.64-1.007c-0.188-0.128-0.375-0.256-0.572-0.367c-0.452-0.358-0.939-0.666-1.451-0.922   c-1.135-0.683-2.432-1.041-3.755-1.033c-0.137,0-0.265,0-0.41,0c-0.828,0.026-1.647,0.171-2.432,0.444   c-0.367,0.094-0.734,0.213-1.084,0.358c-0.205,0.102-0.427,0.094-0.623,0.213l-7.39,4.267c-4.079,2.355-5.478,7.578-3.123,11.657   c1.527,2.637,4.343,4.267,7.39,4.267V204.8z" fill="#231f20"/><path d="M298.674,159.932c4.079,2.355,9.301,0.956,11.657-3.123l4.267-7.39   c2.33-4.096,0.896-9.31-3.2-11.639c-4.062-2.304-9.216-0.922-11.58,3.106l-4.267,7.39   C293.196,152.354,294.595,157.577,298.674,159.932z" fill="#231f20"/><path d="M124.039,193.109c0.068,1.152,0.452,2.261,1.101,3.217c0.222,0.401,0.478,0.777,0.759,1.135   c0.162,0.188,0.222,0.427,0.401,0.597c0.358,0.282,0.734,0.538,1.135,0.751c0.205,0.205,0.427,0.401,0.657,0.58l7.39,4.267   c4.062,2.381,9.293,1.015,11.674-3.046c2.381-4.062,1.015-9.293-3.046-11.674c-0.034-0.017-0.068-0.034-0.094-0.06l-7.39-4.267   h-0.068c-0.896-0.486-1.877-0.819-2.884-0.964c-0.307-0.017-0.606-0.017-0.913,0c-0.666-0.034-1.331,0.009-1.98,0.137   c-0.401,0.068-0.785,0.171-1.169,0.307c-0.162,0.06-0.341,0.06-0.495,0.128c-0.265,0.145-0.512,0.299-0.751,0.478   c-0.538,0.265-1.041,0.58-1.502,0.956c-0.171,0.137-0.393,0.205-0.563,0.358c-0.256,0.333-0.478,0.683-0.683,1.05   c-0.23,0.23-0.452,0.478-0.649,0.742c-0.111,0.179-0.102,0.384-0.196,0.563c-0.213,0.486-0.375,0.981-0.503,1.493   c-0.171,0.555-0.29,1.126-0.35,1.707c0,0.171-0.094,0.324-0.094,0.495C123.877,192.41,123.946,192.768,124.039,193.109z" fill="#231f20"/><path d="M140.807,247.467h-25.6c-4.71,0-8.533,3.823-8.533,8.533c0,4.71,3.823,8.533,8.533,8.533h25.6   c4.71,0,8.533-3.823,8.533-8.533C149.341,251.29,145.518,247.467,140.807,247.467z" fill="#231f20"/><path d="M243.207,358.4c-4.71,0-8.533,3.823-8.533,8.533V384c0,4.71,3.823,8.533,8.533,8.533   s8.533-3.823,8.533-8.533v-17.067C251.741,362.223,247.918,358.4,243.207,358.4z" fill="#231f20"/><path d="M315.741,366.848c0-0.162-0.094-0.316-0.102-0.478c-0.06-0.632-0.188-1.254-0.384-1.852   c-0.094-0.299-0.077-0.631-0.196-0.922c-0.06-0.137-0.179-0.247-0.247-0.384c-0.06-0.213-0.128-0.427-0.213-0.631l-4.267-7.39   c-2.33-4.096-7.535-5.53-11.639-3.2c-4.096,2.33-5.53,7.535-3.2,11.639c0.017,0.034,0.034,0.068,0.06,0.102l4.267,7.39   c0.307,0.503,0.674,0.973,1.084,1.399c0.102,0.128,0.145,0.273,0.247,0.393c0.102,0.119,0.23,0.128,0.333,0.222   c0.606,0.546,1.289,1.007,2.031,1.357c0.282,0.137,0.563,0.256,0.853,0.358c0.887,0.333,1.835,0.521,2.782,0.538l0,0   c0.956-0.017,1.903-0.205,2.799-0.538c0.29-0.102,0.58-0.23,0.853-0.367c0.188-0.094,0.393-0.128,0.572-0.239   c0.23-0.179,0.452-0.367,0.657-0.58c0.401-0.213,0.777-0.469,1.135-0.751c0.154-0.171,0.213-0.384,0.358-0.563   c0.375-0.469,0.7-0.973,0.964-1.51c0.171-0.239,0.324-0.486,0.469-0.742c0.051-0.119,0-0.265,0.085-0.393   c0.205-0.614,0.341-1.246,0.393-1.894C315.553,367.488,315.655,367.172,315.741,366.848z" fill="#231f20"/><path d="M362.384,318.993c-0.051-0.597-0.171-1.195-0.358-1.766c-0.179-0.461-0.401-0.913-0.657-1.34   c-0.239-0.486-0.521-0.947-0.853-1.374c-0.119-0.196-0.239-0.384-0.375-0.572c-0.418-0.384-0.879-0.725-1.365-1.024   c-0.051-0.043-0.128-0.06-0.188-0.102c-0.06-0.043-0.145-0.154-0.239-0.205l-7.39-4.267c-4.096-2.33-9.31-0.896-11.639,3.2   c-2.304,4.062-0.922,9.216,3.106,11.58l7.39,4.267c0.179,0.102,0.375,0.145,0.555,0.23c0.299,0.145,0.606,0.265,0.913,0.375   c0.896,0.333,1.835,0.521,2.79,0.538l0,0c2.108-0.06,4.13-0.862,5.717-2.253c0.094-0.094,0.23-0.128,0.324-0.222   c0.094-0.094,0.196-0.341,0.324-0.495c0.375-0.401,0.717-0.836,1.007-1.297c0.085-0.137,0.077-0.299,0.154-0.435   c0.265-0.572,0.469-1.178,0.597-1.792c0.145-0.495,0.247-1.007,0.299-1.527c0-0.179,0.094-0.333,0.094-0.512   C362.538,319.659,362.469,319.326,362.384,318.993z" fill="#231f20"/><path d="M371.207,247.467h-25.6c-4.71,0-8.533,3.823-8.533,8.533c0,4.71,3.823,8.533,8.533,8.533h25.6   c4.71,0,8.533-3.823,8.533-8.533C379.741,251.29,375.918,247.467,371.207,247.467z" fill="#231f20"/><path d="M303.547,207.727c3.277-3.388,3.183-8.789-0.213-12.066c-3.311-3.191-8.55-3.191-11.853,0   l-43.921,43.921c-2.85-0.751-5.854-0.751-8.704,0l-25.813-25.813c-3.388-3.277-8.789-3.183-12.066,0.213   c-3.191,3.311-3.191,8.55,0,11.853l25.805,25.805c-2.449,9.071,2.918,18.415,11.989,20.864c9.071,2.449,18.415-2.918,20.864-11.989   c0.785-2.91,0.785-5.965,0-8.875L303.547,207.727z" fill="#231f20"/><path d="M422.407,230.4h-19.183c-6.758-42.965-30.626-81.374-66.15-106.47V8.533   c0-4.71-3.823-8.533-8.533-8.533H157.874c-4.71,0-8.533,3.823-8.533,8.533v115.413c-72.926,51.678-90.155,152.695-38.477,225.621   c10.564,14.908,23.569,27.913,38.477,38.477v115.422c0,4.71,3.823,8.533,8.533,8.533h170.667c4.71,0,8.533-3.823,8.533-8.533   V388.07c35.533-25.097,59.392-63.497,66.15-106.47h19.183c4.71,0,8.533-3.823,8.533-8.533v-34.133   C430.941,234.223,427.118,230.4,422.407,230.4z M166.407,17.067h153.6v96.162c-1.792-0.973-3.635-1.835-5.461-2.739   c-0.853-0.435-1.707-0.905-2.637-1.323c-3.413-1.579-6.775-3.063-10.24-4.403c-0.333-0.128-0.674-0.23-1.007-0.358   c-3.098-1.178-6.221-2.261-9.387-3.243c-1.152-0.358-2.313-0.657-3.473-0.99c-2.389-0.683-4.796-1.331-7.219-1.911   c-1.331-0.316-2.679-0.597-4.019-0.853c-2.33-0.486-4.659-0.922-7.006-1.306c-1.357-0.222-2.705-0.444-4.062-0.631   c-2.509-0.35-5.026-0.614-7.561-0.853c-1.178-0.111-2.355-0.247-3.541-0.333c-3.729-0.265-7.45-0.418-11.187-0.418   s-7.458,0.154-11.17,0.41c-1.186,0.085-2.364,0.222-3.55,0.333c-2.56,0.222-5.043,0.486-7.543,0.853   c-1.365,0.188-2.722,0.41-4.087,0.631c-2.33,0.384-4.651,0.811-6.963,1.297c-1.357,0.29-2.714,0.58-4.062,0.896   c-2.398,0.563-4.77,1.212-7.134,1.886c-1.195,0.333-2.389,0.649-3.567,1.015c-3.081,0.956-6.127,2.005-9.148,3.157   c-0.418,0.154-0.853,0.282-1.263,0.444c-3.413,1.331-6.827,2.799-10.155,4.369c-0.981,0.461-1.929,0.973-2.901,1.451   c-1.758,0.853-3.524,1.707-5.257,2.637L166.407,17.067z M320.007,494.933h-153.6v-96.162c1.792,0.973,3.635,1.835,5.461,2.739   c0.853,0.435,1.707,0.905,2.637,1.323c3.371,1.579,6.775,3.055,10.24,4.403c0.35,0.137,0.717,0.239,1.067,0.375   c3.081,1.169,6.212,2.244,9.387,3.226c1.152,0.358,2.313,0.657,3.473,0.99c2.389,0.683,4.796,1.331,7.219,1.911   c1.331,0.316,2.679,0.597,4.019,0.853c2.321,0.486,4.659,0.922,6.997,1.306c1.365,0.222,2.714,0.444,4.079,0.631   c2.5,0.35,5.018,0.606,7.535,0.853c1.195,0.111,2.372,0.247,3.567,0.333c3.703,0.256,7.424,0.41,11.162,0.41   s7.458-0.154,11.162-0.41c1.195-0.085,2.372-0.222,3.567-0.333c2.56-0.23,5.035-0.486,7.535-0.853   c1.365-0.188,2.722-0.41,4.079-0.631c2.338-0.384,4.659-0.819,6.972-1.297c1.357-0.29,2.714-0.58,4.062-0.853   c2.398-0.563,4.77-1.212,7.134-1.886c1.195-0.333,2.389-0.649,3.567-1.015c3.063-0.947,6.093-2.005,9.097-3.14   c0.435-0.162,0.853-0.299,1.323-0.461c3.413-1.331,6.827-2.799,10.155-4.369c0.964-0.452,1.911-0.964,2.867-1.442   c1.766-0.853,3.55-1.707,5.282-2.645L320.007,494.933z M323.779,376.576c-23.817,16.009-51.874,24.542-80.572,24.491   c-3.601,0-7.185-0.128-10.761-0.393c-3.942-0.29-7.842-0.777-11.716-1.382c-79.138-12.493-133.163-86.775-120.67-165.914   c11.127-70.46,71.817-122.377,143.147-122.445c3.601,0,7.185,0.128,10.761,0.393c3.942,0.29,7.842,0.777,11.716,1.382   c64.597,10.163,114.406,62.276,121.634,127.266c1.289,10.684,1.289,21.487,0,32.171   C382.685,314.658,359.406,352.922,323.779,376.576z M413.874,264.533h-8.764c0.145-2.825,0.23-5.675,0.23-8.533   c0-2.859-0.085-5.709-0.23-8.533h8.764V264.533z" fill="#231f20"/></g></g><g transform="matrix(0.07812408357858658 0 0 0.07812408357858658 242.5 67.5)" id="L1_806"><path d="M76.798,409.593h85.338v93.871h221.878V390.563c15.514-8.875,29.783-19.781,42.413-32.428  c79.995-79.97,80.013-209.649,0.043-289.644S216.82-11.523,136.824,68.447c-32.01,32.002-52.517,73.698-58.32,118.585  L25.595,315.721h51.203L76.798,409.593L76.798,409.593z M281.608,68.242c80.123,0,145.074,64.95,145.074,145.074  S361.732,358.39,281.608,358.39s-145.074-64.95-145.074-145.074S201.485,68.242,281.608,68.242z" fill="#fff4e5"/><g><path d="M281.608,358.39L281.608,358.39c80.123,0,145.074-64.95,145.074-145.074l0,0l0,0   c0-80.123-64.95-145.074-145.074-145.074l0,0c-80.123,0-145.074,64.95-145.074,145.074l0,0   C136.534,293.44,201.485,358.39,281.608,358.39z M269.541,201.25c6.665-6.665,17.469-6.665,24.133,0l48.276-48.275l-48.276,48.275   c6.665,6.665,6.665,17.469,0,24.133c-6.665,6.665-17.469,6.665-24.133,0C262.876,218.727,262.876,207.923,269.541,201.25   L269.541,201.25l-24.142-24.142L269.541,201.25z" fill="#ffda44"/><circle cx="281" cy="213" r="17" fill="#ffda44"/></g><g><path d="M432.451,62.456c-83.332-83.298-218.413-83.272-301.711,0.06   c-33.026,33.043-54.3,76.01-60.547,122.306L17.702,312.487c-1.792,4.361,0.29,9.344,4.651,11.137   c1.033,0.427,2.133,0.64,3.243,0.64h42.669v85.338c0,4.711,3.823,8.534,8.534,8.534h76.804v85.338c0,4.711,3.823,8.534,8.534,8.534   h221.878c4.711,0,8.534-3.823,8.534-8.534V395.444c14.524-8.773,27.931-19.278,39.921-31.285   c83.307-83.315,83.307-218.387,0-301.703L432.451,62.456z M420.393,352.101c-12.109,12.101-25.78,22.546-40.646,31.037   c-2.645,1.528-4.275,4.352-4.267,7.407V494.93h-204.81v-85.338c0-4.711-3.823-8.534-8.534-8.534H85.332v-85.338   c0-4.711-3.823-8.534-8.534-8.534h-38.47l48.071-116.913c0.282-0.691,0.478-1.425,0.572-2.168   C100.88,80.608,199.3,4.734,306.808,18.644S490.19,130.983,476.28,238.482C470.716,281.484,451.063,321.439,420.393,352.101z" fill="#231f20"/><path d="M281.608,59.709C196.774,59.709,128,128.482,128,213.316s68.774,153.608,153.608,153.608   s153.608-68.774,153.608-153.608C435.113,128.525,366.4,59.811,281.608,59.709z M290.142,349.421v-25.166   c0-4.711-3.823-8.534-8.534-8.534c-4.711,0-8.534,3.823-8.534,8.534v25.166c-68.56-4.369-123.202-59.011-127.571-127.571h25.166   c4.711,0,8.534-3.823,8.534-8.534s-3.823-8.534-8.534-8.534h-25.166c4.369-68.56,59.011-123.202,127.571-127.571v25.166   c0,4.711,3.823,8.534,8.534,8.534c4.711,0,8.534-3.823,8.534-8.534V77.211c68.56,4.369,123.202,59.011,127.571,127.571h-25.166   c-4.711,0-8.534,3.823-8.534,8.534s3.823,8.534,8.534,8.534h25.166C413.335,290.41,358.702,345.052,290.142,349.421z" fill="#231f20"/><path d="M335.917,146.941l-43.352,43.352c-6.938-3.286-14.977-3.286-21.915,0l-19.21-19.218   c-3.277-3.388-8.679-3.482-12.067-0.213c-3.388,3.277-3.482,8.679-0.213,12.067c0.068,0.068,0.137,0.145,0.213,0.213l19.192,19.201   c-5.974,12.818-0.427,28.05,12.391,34.024c9.677,4.506,21.138,2.543,28.75-4.941l0,0c7.706-7.629,9.694-19.329,4.941-29.075   l43.334-43.334c3.277-3.388,3.183-8.79-0.213-12.067C344.468,143.758,339.22,143.758,335.917,146.941L335.917,146.941z    M287.641,219.35L287.641,219.35c-3.337,3.328-8.739,3.328-12.067,0c-3.328-3.337-3.328-8.739,0-12.067   c3.337-3.328,8.739-3.328,12.067,0c1.604,1.604,2.5,3.772,2.5,6.033C290.142,215.578,289.237,217.754,287.641,219.35z" fill="#231f20"/></g></g><g transform="matrix(0.09765625 0 0 0.09765625 62.5 237.5)" id="L1_807"><path d="M256,8.5C119.3,8.5,8.5,119.3,8.5,256S119.3,503.5,256,503.5S503.5,392.7,503.5,256  S392.7,8.5,256,8.5z" fill="#78b9eb"/><path d="M237.9,237.9c-10,10-10,26.2,0,36.2s26.2,10,36.2,0s10-26.2,0-36.2l0,0  C264.1,227.9,247.9,227.9,237.9,237.9z" fill="#78b9eb"/><g><path d="M256,0C114.6,0,0,114.6,0,256s114.6,256,256,256s256-114.6,256-256C511.8,114.7,397.3,0.2,256,0z    M256,494.9C124,494.9,17.1,388,17.1,256S124,17.1,256,17.1S494.9,124,494.9,256C494.8,387.9,387.9,494.8,256,494.9z" fill="#231f20"/><rect x="247px" y="42px" width="17px" height="51px" fill="#231f20"/><rect x="211px" y="45px" width="17px" height="17px" transform="matrix(-0.9849 0.1733 -0.1733 -0.9849 447.0043 69.6637)" fill="#231f20"/><rect x="177px" y="55px" width="17px" height="17px" transform="matrix(-0.9396 0.3423 -0.3423 -0.9396 382.4219 59.6124)" fill="#231f20"/><rect x="149px" y="69px" width="17px" height="34px" transform="matrix(-0.8661 0.4999 -0.4999 -0.8661 337.6124 81.6768)" fill="#231f20"/><rect x="115px" y="90px" width="17px" height="17px" transform="matrix(-0.7662 0.6426 -0.6426 -0.7662 283.3786 95.2006)" fill="#231f20"/><rect x="90px" y="115px" width="17px" height="17px" transform="matrix(-0.6426 0.7662 -0.7662 -0.6426 258.0837 128.2525)" fill="#231f20"/><path d="M81.8,165.3 96.5,173.8 105.1,159 75.5,141.9 67,156.7z" fill="#231f20"/><rect x="55px" y="177px" width="17px" height="17px" transform="matrix(-0.3423 0.9396 -0.9396 -0.3423 260.031 189.8996)" fill="#231f20"/><rect x="45px" y="211px" width="17px" height="17px" transform="matrix(-0.1734 0.9848 -0.9848 -0.1734 280.7968 205.1096)" fill="#231f20"/><rect x="45px" y="283px" width="17px" height="17px" transform="matrix(-0.9849 0.1733 -0.1733 -0.9849 158.3978 569.2721)" fill="#231f20"/><rect x="54px" y="317px" width="17px" height="17px" transform="matrix(-0.9396 0.3423 -0.3423 -0.9396 234.8652 610.6581)" fill="#231f20"/><rect x="90px" y="379px" width="17px" height="17px" transform="matrix(-0.7664 0.6424 -0.6424 -0.7664 424.1538 621.0088)" fill="#231f20"/><rect x="115px" y="404px" width="17px" height="17px" transform="matrix(-0.6424 0.7664 -0.7664 -0.6424 520.8001 582.8748)" fill="#231f20"/><rect x="177px" y="439px" width="17px" height="17px" transform="matrix(-0.3428 0.9394 -0.9394 -0.3428 670.9709 427.5319)" fill="#231f20"/><rect x="211px" y="449px" width="17px" height="17px" transform="matrix(-0.1734 0.9848 -0.9848 -0.1734 709.4304 319.8997)" fill="#231f20"/><rect x="283px" y="449px" width="17px" height="17px" transform="matrix(-0.9849 0.1733 -0.1733 -0.9849 658.0518 858.0717)" fill="#231f20"/><rect x="317px" y="439px" width="17px" height="17px" transform="matrix(-0.9396 0.3423 -0.3423 -0.9396 785.8884 758.2007)" fill="#231f20"/><rect x="379px" y="404px" width="17px" height="17px" transform="matrix(-0.7662 0.6426 -0.6426 -0.7662 950.0497 480.1981)" fill="#231f20"/><rect x="404px" y="379px" width="17px" height="17px" transform="matrix(-0.6426 0.7662 -0.7662 -0.6426 975.2837 320.2563)" fill="#231f20"/><rect x="417px" y="337px" width="17px" height="34px" transform="matrix(-0.4999 0.8661 -0.8661 -0.4999 945.6618 162.2324)" fill="#231f20"/><rect x="439px" y="317px" width="17px" height="17px" transform="matrix(-0.3423 0.9396 -0.9396 -0.3423 908.337 16.2416)" fill="#231f20"/><rect x="449px" y="283px" width="17px" height="17px" transform="matrix(-0.1734 0.9848 -0.9848 -0.1734 824.1644 -108.5247)" fill="#231f20"/><rect x="449px" y="211px" width="17px" height="17px" transform="matrix(-0.9849 0.1733 -0.1733 -0.9849 946.7996 358.2232)" fill="#231f20"/><rect x="439px" y="177px" width="17px" height="17px" transform="matrix(-0.9396 0.3423 -0.3423 -0.9396 933.4582 207.1727)" fill="#231f20"/><rect x="404px" y="115px" width="17px" height="17px" transform="matrix(-0.7664 0.6424 -0.6424 -0.7664 809.2723 -45.6848)" fill="#231f20"/><rect x="379px" y="90px" width="17px" height="17px" transform="matrix(-0.6424 0.7664 -0.7664 -0.6424 712.6909 -134.3232)" fill="#231f20"/><path d="M346.7,81.8 346.7,81.8 338.2,96.5 353,105.1 370.1,75.5 355.3,67z" fill="#231f20"/><rect x="317px" y="55px" width="17px" height="17px" transform="matrix(-0.3431 0.9393 -0.9393 -0.3431 497.851 -220.853)" fill="#231f20"/><rect x="283px" y="45px" width="17px" height="17px" transform="matrix(-0.1734 0.9848 -0.9848 -0.1734 395.6517 -223.3815)" fill="#231f20"/><rect x="68px" y="345px" width="34px" height="17px" transform="matrix(-0.866 0.5 -0.5 -0.866 337.6287 617.7882)" fill="#231f20"/><rect x="247px" y="418px" width="17px" height="51px" fill="#231f20"/><rect x="408px" y="149px" width="34px" height="17px" transform="matrix(-0.866 0.5 -0.5 -0.866 873.7318 81.6045)" fill="#231f20"/><path d="M74.6,247.5 74.6,247.5 74.7,247.5z" fill="#231f20"/><path d="M159,406.9 141.9,436.5 156.7,445 165.3,430.2 173.8,415.5z" fill="#231f20"/><path d="M338.2,415.5 346.7,430.2 346.7,430.2 355.3,445 370.1,436.5 353,406.9z" fill="#231f20"/><rect x="418px" y="247px" width="51px" height="17px" fill="#231f20"/><rect x="41px" y="247px" width="51px" height="17px" fill="#231f20"/><path d="M285.3,238.8l73.3-73.3l-12.1-12.1l-73.3,73.3c-10.7-5.9-23.7-5.9-34.4,0l-49.2-49.2l-12.1,12.1   l49.1,49.1c-9.7,16.2-4.4,37.1,11.8,46.8s37.1,4.4,46.8-11.8C291.7,263,291.7,249.5,285.3,238.8z M268.1,268.1   c-6.7,6.5-17.4,6.5-24.1,0c-6.7-6.7-6.7-17.5,0-24.1c6.7-6.7,17.5-6.7,24.1,0C274.7,250.6,274.7,261.4,268.1,268.1L268.1,268.1z" fill="#231f20"/></g></g><g transform="matrix(0.17578056454658508 0 0 0.17578056454658508 217.5 217.5)" id="L1_808"><path d="M451.903,255.95L451.903,255.95c0-108.165-87.678-195.842-195.842-195.842l0,0  c-108.165,0-195.842,87.678-195.842,195.842l0,0c0,108.165,87.678,195.842,195.842,195.842l0,0  C364.217,451.792,451.903,364.114,451.903,255.95z M268.101,267.99c-6.769,6.531-17.549,6.344-24.08-0.417  c-6.378-6.599-6.378-17.064,0-23.663l-48.169-48.169l48.169,48.169c6.65-6.65,17.43-6.65,24.08,0l72.257-72.257l-72.249,72.257  C274.751,250.56,274.751,261.34,268.101,267.99z" fill="#ffeb99"/><g><path d="M153.882,33.958C120.478,0.852,66.57,1.091,33.465,34.486c-32.902,33.191-32.902,86.699,0,119.89   L153.882,33.958z" fill="#ffda44"/><path d="M358.239,33.958l120.418,120.417c33.106-33.395,32.867-87.312-0.528-120.417   C444.929,1.057,391.43,1.057,358.239,33.958z" fill="#ffda44"/><circle cx="256" cy="255" r="17" fill="#ffda44"/></g><g><path d="M484.685,27.938c-36.605-36.52-95.861-36.52-132.466,0c-3.321,3.329-3.321,8.719,0,12.04   l120.426,120.417c3.321,3.321,8.719,3.321,12.04,0C521.129,123.799,521.086,64.578,484.685,27.938z M478.333,142.038L370.611,34.29   c33.08-26.396,81.3-20.981,107.696,12.1c22.318,27.963,22.309,67.651-0.009,95.614L478.333,142.038z" fill="#231f20"/><path d="M159.902,39.978c3.321-3.329,3.321-8.719,0-12.04c-36.58-36.58-95.886-36.58-132.466-0.009   s-36.58,95.886-0.009,132.466c3.329,3.321,8.719,3.321,12.04,0L159.902,39.978z M39.476,39.978   C67.098,12.424,110.993,9.98,141.51,34.29L33.822,142.004C9.504,111.495,11.939,67.609,39.476,39.978z" fill="#231f20"/><path d="M384.44,414.863c87.814-70.903,101.523-199.563,30.62-287.377S215.496,25.963,127.682,96.866   S26.159,296.43,97.062,384.244c9.094,11.265,19.354,21.526,30.62,30.62l-81.998,81.998c-3.38,3.27-3.474,8.66-0.213,12.04   s8.66,3.474,12.04,0.213c0.068-0.068,0.136-0.136,0.213-0.213l83.855-83.855c69.081,47.011,159.884,47.011,228.965,0l83.855,83.855   c3.38,3.27,8.77,3.176,12.04-0.204c3.185-3.304,3.185-8.532,0-11.836L384.44,414.863z M68.989,264.465h25.289   c4.7,0,8.515-3.815,8.515-8.515s-3.815-8.515-8.515-8.515H68.946c4.513-96.704,81.896-174.087,178.6-178.6v25.332   c0,4.7,3.815,8.515,8.515,8.515c4.7,0,8.515-3.815,8.515-8.515V68.835c96.704,4.513,174.087,81.896,178.6,178.6h-25.332   c-4.7,0-8.515,3.815-8.515,8.515s3.815,8.515,8.515,8.515h25.289c-2.699,56.684-30.824,109.127-76.549,142.735   c-29.708,21.764-65.215,34.204-102.008,35.745v-25.213c0-4.7-3.815-8.515-8.515-8.515c-4.7,0-8.515,3.815-8.515,8.515v25.213   c-36.793-1.55-72.3-13.998-102-35.763C99.821,373.574,71.696,321.14,68.989,264.465z" fill="#231f20"/><path d="M233.07,245.017c-6.063,12.696-0.681,27.903,12.014,33.966s27.903,0.681,33.966-12.014   c3.312-6.94,3.312-15.012,0-21.951l67.336-67.336c3.27-3.38,3.176-8.77-0.213-12.04c-3.304-3.185-8.532-3.185-11.827,0   l-67.353,67.319c-6.923-3.278-14.944-3.278-21.866,0l-43.256-43.256c-3.38-3.27-8.77-3.176-12.04,0.213   c-3.185,3.304-3.185,8.532,0,11.827L233.07,245.017z M262.064,249.93c3.321,3.329,3.321,8.719,0,12.04   c-3.329,3.321-8.719,3.321-12.04,0c-3.321-3.329-3.321-8.719,0-12.04c1.601-1.601,3.772-2.495,6.037-2.495   c2.256,0,4.428,0.894,6.02,2.495H262.064z" fill="#231f20"/></g></g><g transform="matrix(0.0390625 0 0 0.0390625 77.5 340)" id="L1_809"><path d="M256,503.467c136.67,0,247.467-110.797,247.467-247.467S392.67,8.533,256,8.533  S8.533,119.33,8.533,256S119.33,503.467,256,503.467z M256,42.667c117.82,0,213.333,95.514,213.333,213.333  S373.82,469.333,256,469.333S42.667,373.82,42.667,256C42.795,138.231,138.231,42.795,256,42.667z" fill="#ffaf46"/><path d="M256,469.333c117.82,0,213.333-95.514,213.333-213.333S373.82,42.667,256,42.667  S42.667,138.18,42.667,256C42.795,373.769,138.231,469.205,256,469.333z M237.909,237.909c9.993-9.984,26.189-9.984,36.181,0  l78.421-78.421l-78.421,78.421c10.001,9.993,10.01,26.197,0.026,36.207c-9.993,10.001-26.197,10.01-36.207,0.026  c-10.001-9.993-10.01-26.197-0.026-36.207C237.892,237.926,237.901,237.918,237.909,237.909l-42.24-42.24L237.909,237.909z" fill="#ffeb99"/><path d="M237.909,274.091c9.993,10.001,26.197,10.01,36.207,0.026c10.01-9.984,10.01-26.197,0.026-36.207  c-9.993-10.001-26.197-10.01-36.207-0.026c-0.009,0.009-0.017,0.017-0.026,0.026C227.925,247.902,227.925,264.098,237.909,274.091z" fill="#ffaf46"/><g><path d="M256,512C114.611,512,0,397.389,0,256S114.611,0,256,0s256,114.611,256,256   C511.838,397.321,397.321,511.838,256,512z M256,17.067C124.041,17.067,17.067,124.041,17.067,256S124.041,494.933,256,494.933   S494.933,387.96,494.933,256C494.78,124.1,387.9,17.22,256,17.067z" fill="#231f20"/><path d="M256,477.867C133.47,477.867,34.133,378.53,34.133,256S133.47,34.133,256,34.133   S477.867,133.47,477.867,256C477.722,378.479,378.479,477.722,256,477.867z M256,51.2C142.891,51.2,51.2,142.891,51.2,256   S142.891,460.8,256,460.8S460.8,369.109,460.8,256C460.672,142.95,369.05,51.328,256,51.2z" fill="#231f20"/><path d="M256,119.467c-4.71,0-8.533-3.823-8.533-8.533V76.8c0-4.71,3.823-8.533,8.533-8.533   c4.71,0,8.533,3.823,8.533,8.533v34.133C264.533,115.644,260.71,119.467,256,119.467z" fill="#231f20"/><path d="M256,443.733c-4.71,0-8.533-3.823-8.533-8.533v-34.133c0-4.71,3.823-8.533,8.533-8.533   c4.71,0,8.533,3.823,8.533,8.533V435.2C264.533,439.91,260.71,443.733,256,443.733z" fill="#231f20"/><path d="M110.933,264.533H76.8c-4.71,0-8.533-3.823-8.533-8.533c0-4.71,3.823-8.533,8.533-8.533h34.133   c4.71,0,8.533,3.823,8.533,8.533C119.467,260.71,115.644,264.533,110.933,264.533z" fill="#231f20"/><path d="M435.2,264.533h-34.133c-4.71,0-8.533-3.823-8.533-8.533c0-4.71,3.823-8.533,8.533-8.533H435.2   c4.71,0,8.533,3.823,8.533,8.533C443.733,260.71,439.91,264.533,435.2,264.533z" fill="#231f20"/><path d="M358.545,153.455c-3.328-3.328-8.738-3.328-12.066,0l-73.242,73.242   c-10.641-6.246-23.834-6.246-34.475,0l-37.06-37.06c-3.388-3.277-8.789-3.183-12.066,0.213c-3.191,3.311-3.191,8.55,0,11.853   l37.06,37.06c-9.574,16.188-4.215,37.069,11.964,46.643c16.179,9.574,37.069,4.215,46.643-11.964   c6.323-10.692,6.323-23.979,0-34.671l73.242-73.216c3.337-3.328,3.354-8.73,0.026-12.066   C358.562,153.472,358.554,153.463,358.545,153.455z M268.092,268.058c-6.656,6.673-17.468,6.682-24.132,0.017   c-6.673-6.656-6.682-17.468-0.017-24.132s17.468-6.682,24.132-0.017c0.009,0.009,0.017,0.017,0.017,0.017   c6.639,6.673,6.63,17.459-0.034,24.115H268.092z" fill="#231f20"/></g></g><g transform="matrix(0.07812454551458359 0 0 0.07812454551458359 155 330)" id="L1_810"><path d="M452.065,182.565c27.672-17.003,36.316-53.218,19.305-80.889  c-17.003-27.672-53.218-36.316-80.889-19.305c-4.797,2.949-9.14,6.569-12.903,10.744  C411.843,113.613,438.112,145.157,452.065,182.565z" fill="#ed1c24"/><path d="M421.193,200.383c-19.977-53.369-64.5-93.801-119.541-108.561  c-15.827-4.276-32.183-6.284-48.581-5.973C155.659,87.454,77.987,167.73,79.591,265.143s81.881,175.085,179.294,173.481  S433.97,356.743,432.366,259.33C432.038,239.185,428.258,219.251,421.193,200.383z M93.704,305.701l16.23-4.343L93.704,305.701z   M93.704,218.738l16.23,4.343L93.704,218.738z M216.857,116.159l-4.343-16.23L216.857,116.159z M137.194,381.021l11.878-11.878  L137.194,381.021z M137.194,143.419l11.878,11.878L137.194,143.419z M212.514,424.503l4.343-16.222L212.514,424.503z   M272.225,266.571c-2.403,8.963-11.618,14.281-20.581,11.878c-8.963-2.403-14.281-11.618-11.878-20.581l-48.724-13.046  l48.723,13.046c2.403-8.963,11.618-14.281,20.581-11.878l0,0l21.741-81.141l-21.741,81.141  C269.31,248.392,274.628,257.608,272.225,266.571C272.234,266.571,272.225,266.571,272.225,266.571z M295.134,408.281l4.343,16.222  L295.134,408.281z M295.134,116.159l4.343-16.23L295.134,116.159z M362.918,369.143l11.878,11.878L362.918,369.143z   M362.918,155.297l11.878-11.878L362.918,155.297z M402.057,301.358l16.23,4.343L402.057,301.358z M402.057,223.081l16.23-4.343  L402.057,223.081z" fill="#ffeb99"/><path d="M192.991,10.521c-31.376-8.375-63.609,10.266-71.985,41.642c-3.864,14.466-2.058,29.856,5.032,43.036  c30.78-25.42,69.297-39.6,109.208-40.222C230.617,33.404,214.303,16.242,192.991,10.521z" fill="#ed1c24"/><path d="M239.765,257.868c-2.403,8.963,2.915,18.179,11.878,20.581c8.963,2.403,18.179-2.915,20.581-11.878  c2.403-8.963-2.915-18.171-11.878-20.573C251.392,243.587,242.176,248.905,239.765,257.868  C239.774,257.868,239.765,257.868,239.765,257.868z" fill="#ffda44"/><g><path d="M59.077,133.691c2.638-3.822,1.672-9.047-2.151-11.685c-3.822-2.638-9.047-1.672-11.685,2.151   c-0.084,0.126-0.168,0.252-0.244,0.378C15.763,169.696,1.583,222.955,4.481,276.677c0.252,4.452,3.94,7.939,8.401,7.93h0.47   c4.629-0.26,8.182-4.217,7.922-8.854l0,0C18.569,225.593,31.8,175.87,59.077,133.691z" fill="#231f20"/><path d="M103.944,129.81c3.192-3.36,3.058-8.678-0.302-11.878c-3.36-3.192-8.678-3.058-11.878,0.302   c-0.168,0.176-0.328,0.361-0.479,0.554c-44.17,51.059-62.45,119.583-49.564,185.855c0.899,4.553,5.326,7.51,9.879,6.611   c4.553-0.899,7.51-5.326,6.611-9.879l0,0C46.325,240.202,63.185,176.954,103.944,129.81z" fill="#231f20"/><path d="M507.56,248.518c-0.244-4.637-4.209-8.199-8.846-7.955c-4.637,0.244-8.199,4.209-7.955,8.846   c2.562,50.143-10.803,99.808-38.189,141.886c-2.554,3.881-1.47,9.098,2.411,11.643c3.881,2.554,9.098,1.47,11.643-2.403   C495.975,355.458,510.307,302.24,507.56,248.518z" fill="#231f20"/><path d="M470.387,220.368c-0.949-4.545-5.393-7.46-9.938-6.51c-4.461,0.932-7.359,5.242-6.552,9.719   c11.719,61.215-5.309,124.421-46.203,171.456c-3.285,3.276-3.301,8.594-0.025,11.878c3.276,3.285,8.594,3.301,11.878,0.025   c0.269-0.269,0.521-0.554,0.748-0.848C464.607,355.147,483.072,286.682,470.387,220.368z" fill="#231f20"/><path d="M373.276,100.332c32.594,19.54,57.586,49.564,70.893,85.165c0.874,2.369,2.755,4.217,5.141,5.04   c0.874,0.311,1.798,0.462,2.73,0.462c1.554,0,3.075-0.437,4.402-1.252c31.628-19.422,41.524-60.804,22.102-92.44   c-19.422-31.628-60.804-41.524-92.44-22.102c-5.477,3.369-10.45,7.502-14.751,12.282c-3.117,3.436-2.848,8.753,0.588,11.862   C372.352,99.727,372.806,100.055,373.276,100.332L373.276,100.332z M434.239,83.867c26.89,7.208,42.835,34.854,35.627,61.744   c-2.428,9.056-7.334,17.246-14.163,23.664c-13.895-31.233-36.173-58.006-64.374-77.336   C403.653,82.842,419.454,79.868,434.239,83.867z" fill="#231f20"/><path d="M429.048,197.443c-14.642-39.164-42.146-72.195-78.008-93.692   c-12.324-7.393-25.479-13.298-39.189-17.591l4.427-16.516l24.362,6.527c0.714,0.193,1.445,0.286,2.184,0.286   c4.637,0,8.401-3.763,8.392-8.409c0-3.805-2.554-7.124-6.225-8.107l-64.92-17.389c-4.52-1.058-9.039,1.747-10.098,6.258   c-1.008,4.318,1.504,8.678,5.754,9.963l24.362,6.527l-4.419,16.507c-14.012-3.133-28.335-4.595-42.692-4.36   c-102.093,1.722-183.452,85.888-181.73,187.98c0.84,49.732,21.682,97.027,57.821,131.201l-48.522,39.626   c-3.595,2.94-4.125,8.233-1.184,11.828c2.94,3.595,8.233,4.125,11.82,1.184l50.84-41.524   c39.558,31.091,90.122,44.649,139.929,37.517l23.261,61.324c1.235,3.259,4.368,5.418,7.855,5.418c1.016,0,2.025-0.185,2.974-0.546   c4.335-1.647,6.519-6.494,4.881-10.828l-22.236-58.636c17.44-4.133,34.182-10.77,49.715-19.708   C426.62,377.115,460.718,282.028,429.048,197.443z M380.568,374.914l-11.71-11.71c-3.335-3.226-8.653-3.133-11.878,0.202   c-3.142,3.259-3.142,8.417,0,11.677l11.702,11.702c-17.616,16.003-38.475,28.041-61.148,35.283l-4.284-15.961   c-1.201-4.486-5.805-7.141-10.291-5.939c-4.486,1.201-7.141,5.805-5.939,10.291l4.293,16.003   c-23.261,4.973-47.329,4.914-70.565-0.176l4.2-15.827c1.201-4.486-1.453-9.089-5.939-10.291c-4.486-1.201-9.089,1.453-10.291,5.939   l-4.2,15.835c-22.673-7.208-43.54-19.195-61.198-35.148l11.71-11.71c3.226-3.335,3.133-8.653-0.21-11.878   c-3.259-3.142-8.417-3.142-11.668,0l-11.702,11.702c-16.012-17.616-28.041-38.466-35.283-61.148l15.961-4.284   c4.486-1.201,7.141-5.805,5.939-10.291s-5.805-7.141-10.291-5.939l0,0l-15.961,4.293c-4.982-23.261-4.923-47.321,0.168-70.565   l15.827,4.2c0.714,0.193,1.445,0.286,2.184,0.286c4.637,0,8.401-3.763,8.392-8.409c0-3.805-2.554-7.124-6.225-8.107l-15.911-4.268   c7.233-22.673,19.246-43.532,35.224-61.173l11.71,11.71c3.335,3.226,8.653,3.133,11.878-0.21c3.142-3.259,3.142-8.417,0-11.668   l-11.643-11.643c1.932-1.731,3.805-3.511,5.822-5.175c16.364-13.433,35.131-23.639,55.293-30.083l4.259,15.877   c0.983,3.671,4.31,6.225,8.107,6.225c0.739,0,1.47-0.092,2.184-0.286c4.478-1.201,7.141-5.805,5.939-10.291l0,0l-4.31-15.877   c10.694-2.344,21.598-3.629,32.544-3.831c1.092,0,2.184,0,3.276,0c11.694,0.034,23.354,1.311,34.779,3.805l-4.284,15.961   c-1.201,4.478,1.453,9.089,5.939,10.291l0,0c0.714,0.193,1.445,0.286,2.184,0.286c3.797,0,7.124-2.554,8.107-6.225l4.276-15.961   c22.682,7.191,43.532,19.229,61.098,35.283l-11.643,11.643c-3.335,3.226-3.427,8.543-0.21,11.878   c3.226,3.335,8.543,3.427,11.878,0.21c0.067-0.067,0.143-0.134,0.21-0.21l11.618-11.559c14.247,15.684,25.395,33.93,32.846,53.764   c0.907,2.436,1.68,4.914,2.445,7.376l-15.894,4.259c-4.486,1.201-7.141,5.805-5.939,10.291c0.983,3.671,4.31,6.225,8.107,6.225   c0.739,0,1.47-0.092,2.184-0.286l15.961-4.284c5.024,23.253,4.998,47.321-0.076,70.565l-15.911-4.267   c-4.486-1.201-9.089,1.453-10.291,5.939c-1.201,4.486,1.453,9.089,5.939,10.291l15.835,4.242   C408.483,336.422,396.504,357.273,380.568,374.914z" fill="#231f20"/><path d="M124.417,103.448c0.529,0.101,1.067,0.151,1.605,0.151c1.949,0,3.839-0.68,5.351-1.915   c29.326-24.177,66.004-37.685,104.008-38.307c4.637-0.067,8.342-3.881,8.275-8.518c-0.008-0.554-0.067-1.109-0.185-1.655   c-7.745-36.299-43.44-59.451-79.747-51.714s-59.451,43.44-51.714,79.747c1.336,6.267,3.562,12.315,6.611,17.952   C119.83,101.407,121.947,102.97,124.417,103.448z M129.079,54.271c7.199-26.89,34.837-42.851,61.728-35.652   c14.793,3.965,26.991,14.441,33.132,28.47c-34.081,2.638-66.768,14.676-94.423,34.778   C126.794,72.895,126.643,63.327,129.079,54.271z" fill="#231f20"/><path d="M284.255,156.733c-4.478-1.193-9.081,1.462-10.282,5.939l-19.968,74.505   c-7.577,0.487-14.491,4.478-18.7,10.803l-42.053-11.265c-4.486-1.176-9.081,1.504-10.257,5.99c-1.168,4.461,1.47,9.022,5.914,10.24   l42.003,11.257c1.008,13.886,13.08,24.32,26.958,23.312c13.886-1.008,24.32-13.08,23.312-26.958   c-0.554-7.695-4.604-14.701-10.988-19.036l19.96-74.505C291.353,162.547,288.716,157.952,284.255,156.733z M264.094,264.396   c-1.201,4.478-5.805,7.141-10.291,5.939s-7.141-5.805-5.939-10.291c0.983-3.679,4.326-6.233,8.132-6.225   c0.739,0,1.479,0.092,2.193,0.286c4.478,1.201,7.141,5.805,5.939,10.291l0,0H264.094z" fill="#231f20"/></g></g><g transform="matrix(0.13671875 0 0 0.13671875 315 140)" id="L1_811"><g><path d="M503.467,460.8h-25.6V298.667c0-4.71-3.831-8.533-8.542-8.525c-2.782,0-5.385,1.357-6.98,3.635   L342.878,464.444c-2.697,3.866-1.758,9.182,2.108,11.887c1.425,0.998,3.132,1.536,4.881,1.536H460.8v25.6   c0,4.71,3.823,8.533,8.533,8.533c4.71,0,8.533-3.823,8.533-8.533v-25.6h25.6c4.71,0,8.533-3.823,8.533-8.533   C512,464.623,508.177,460.8,503.467,460.8z M460.8,325.734V460.8h-94.549L460.8,325.734z" fill="#006838"/><path d="M349.867,494.933H248.841l93.926-110.601c0.213-0.256,0.41-0.521,0.597-0.794   c17.673-26.155,11.785-61.559-13.397-80.589c-30.618-21.999-73.276-15.01-95.275,15.607c-8.337,11.605-12.826,25.549-12.826,39.842   c0,4.71,3.823,8.533,8.533,8.533s8.533-3.823,8.533-8.533c0-28.279,22.921-51.2,51.191-51.209c10.718,0,21.163,3.362,29.875,9.617   c17.638,13.517,21.751,38.409,9.387,56.875L223.898,497.946c-3.046,3.593-2.611,8.977,0.981,12.023   c1.545,1.314,3.499,2.031,5.521,2.031h119.467c4.71,0,8.533-3.823,8.533-8.533C358.4,498.756,354.577,494.933,349.867,494.933z" fill="#006838"/></g><g><path d="M230.588,452.429c0.179-4.71-3.499-8.67-8.209-8.849l0,0   C111.053,439.45,21.7,350.251,17.365,238.933H51.2c4.71,0,8.533-3.823,8.533-8.533s-3.823-8.533-8.533-8.533H17.365   c4.267-111.121,93.38-200.226,204.501-204.493v25.293c0,4.71,3.823,8.533,8.533,8.533s8.533-3.823,8.533-8.533V17.374   c109.602,4.241,198.067,91.034,204.39,200.533l-33.28-33.28c-3.388-3.277-8.789-3.183-12.066,0.213   c-3.191,3.311-3.191,8.55,0,11.853l47.633,47.633c0.896,1.084,2.057,1.929,3.362,2.449c0.333,0.102,0.674,0.179,1.015,0.247   c0.589,0.213,1.195,0.358,1.809,0.435c0.085,0,0.162,0,0.247,0c0.085,0,0.162,0,0.239,0c0.649-0.051,1.289-0.179,1.911-0.375   c0.35-0.043,0.7-0.111,1.041-0.196c1.152-0.41,2.21-1.067,3.081-1.929l48.282-48.265c3.277-3.388,3.183-8.789-0.213-12.066   c-3.311-3.191-8.55-3.191-11.853,0l-34.108,34.082C454.332,96.393,353.476,0.299,231.006,0.119C230.793,0.111,230.613,0,230.4,0   s-0.393,0.111-0.606,0.119C103.023,0.29,0.29,103.023,0.119,229.794c0,0.213-0.119,0.393-0.119,0.606s0.111,0.393,0.119,0.606   c0.213,123.648,98.065,225.033,221.628,229.632h0.316C226.645,460.638,230.417,457.011,230.588,452.429z" fill="#231f20"/><path d="M345.045,115.755c-3.328-3.328-8.738-3.328-12.066,0l-91.699,91.691   c-6.929-3.089-14.839-3.089-21.769,0l-43.418-43.418c-3.388-3.277-8.789-3.183-12.066,0.213c-3.191,3.311-3.191,8.55,0,11.853   l43.332,43.332c-6.084,12.74-0.691,27.989,12.049,34.074c9.779,4.668,21.436,2.671,29.09-4.992l0,0   c7.697-7.637,9.685-19.328,4.932-29.073l91.614-91.614C348.373,124.493,348.373,119.083,345.045,115.755z M236.433,236.433   L236.433,236.433c-3.371,3.226-8.695,3.226-12.066,0c-3.337-3.328-3.337-8.738,0-12.066c3.337-3.328,8.738-3.337,12.066,0   C239.77,227.695,239.77,233.097,236.433,236.433L236.433,236.433z" fill="#231f20"/></g></g><g transform="matrix(0.13205991248146265 -0.03538534690193266 0.03538534690193266 0.13205991248146265 132.1339488101618 150.25125982509095)" id="L1_812"><g><rect x="204px" y="418px" width="102px" height="25px" fill="#ffaf46"/><path d="M204.806,469.286 221.871,469.286 290.13,469.286 307.195,469.286 307.195,443.689    204.806,443.689z" fill="#ffaf46"/><path d="M256,503.416c18.848,0,34.13-15.282,34.13-34.13h-68.26   C221.871,488.135,237.152,503.416,256,503.416z" fill="#ffaf46"/></g><path d="M307.195,418.092v-3.507c-0.094-12.654,6.92-24.292,18.157-30.12  c75.683-38.302,105.982-130.709,67.671-206.392S262.315,72.099,186.631,110.402S80.658,241.111,118.96,316.794  c14.812,29.258,38.592,53.004,67.876,67.773c11.16,5.836,18.106,17.44,17.969,30.034v3.49H307.195z M136.546,247.442  c0-65.973,53.482-119.455,119.455-119.455s119.455,53.482,119.455,119.455S321.974,366.897,256,366.897  S136.546,313.415,136.546,247.442z" fill="#ffda44"/><path d="M256,332.767v34.13c65.973,0,119.455-53.482,119.455-119.455l0,0  c0-65.973-53.482-119.455-119.455-119.455s-119.455,53.482-119.455,119.455l0,0c0,65.973,53.482,119.455,119.455,119.455  L256,332.767L256,332.767z M243.936,235.377l-30.171-30.171L243.936,235.377c6.664-6.664,17.466-6.664,24.13,0l42.236-42.236  l-42.236,42.236c6.664,6.664,6.664,17.466,0,24.13s-17.466,6.664-24.13,0C237.272,252.852,237.272,242.049,243.936,235.377  L243.936,235.377z" fill="#ffaf46"/><circle cx="255" cy="247" r="17" fill="#ffda44"/><g><path d="M417.64,234.874c-6.604-77.057-66.246-138.969-142.996-148.465   c-46.05-5.512-92.236,9.147-126.682,40.197c-66.75,59.676-72.492,162.16-12.816,228.909c13.515,15.12,29.744,27.568,47.85,36.698   c8.251,4.403,13.37,13.038,13.277,22.389v54.685c0,4.71,3.823,8.533,8.532,8.533h9.386c4.693,23.089,27.21,38.012,50.299,33.319   c16.792-3.413,29.906-16.527,33.319-33.319h9.386c4.71,0,8.532-3.823,8.532-8.533v-54.702c-0.051-9.428,5.145-18.106,13.49-22.509   C387.836,362.443,422.759,300.352,417.64,234.874z M298.663,426.624v8.532h-85.325v-8.532H298.663z M256,494.884   c-10.811-0.043-20.427-6.877-24.027-17.065h48.055C276.427,488.007,266.811,494.841,256,494.884z M213.338,460.754v-8.532h85.325   v8.532H213.338z M321.496,376.854c-12.534,6.408-20.998,18.703-22.492,32.705h-86.016c-1.544-13.908-9.906-26.126-22.304-32.611   c-71.545-36.041-100.325-123.26-64.284-194.805c27.398-54.386,85.854-85.871,146.341-78.815   c79.574,9.232,136.605,81.221,127.373,160.795C394.508,312.519,364.969,354.866,321.496,376.854z" fill="#231f20"/><path d="M256,68.26c4.71,0,8.532-3.823,8.532-8.532V8.532C264.533,3.823,260.71,0,256,0   s-8.532,3.823-8.532,8.532v51.195C247.468,64.437,251.291,68.26,256,68.26z" fill="#231f20"/><path d="M117.237,120.743c3.387,3.276,8.788,3.183,12.065-0.213c3.191-3.311,3.191-8.55,0-11.852   L93.098,72.475c-3.387-3.276-8.788-3.183-12.065,0.213c-3.191,3.311-3.191,8.55,0,11.852L117.237,120.743z" fill="#231f20"/><path d="M68.286,238.909H17.091c-4.71,0-8.532,3.823-8.532,8.532s3.823,8.532,8.532,8.532h51.195   c4.71,0,8.532-3.823,8.532-8.532S72.996,238.909,68.286,238.909z" fill="#231f20"/><path d="M117.237,374.141l-36.203,36.203c-3.387,3.276-3.481,8.678-0.213,12.065s8.678,3.481,12.065,0.213   c0.068-0.068,0.137-0.137,0.213-0.213l36.203-36.203c3.276-3.387,3.183-8.788-0.213-12.065   C125.786,370.95,120.547,370.95,117.237,374.141z" fill="#231f20"/><path d="M394.764,374.141c-3.387-3.276-8.788-3.183-12.065,0.205c-3.191,3.311-3.191,8.55,0,11.86   l36.203,36.203c3.387,3.276,8.788,3.183,12.065-0.205c3.191-3.311,3.191-8.55,0-11.86L394.764,374.141z" fill="#231f20"/><path d="M494.91,238.909h-51.195c-4.71,0-8.532,3.823-8.532,8.532s3.823,8.532,8.532,8.532h51.195   c4.71,0,8.532-3.823,8.532-8.532S499.62,238.909,494.91,238.909z" fill="#231f20"/><path d="M418.903,72.475l-36.203,36.203c-3.387,3.276-3.481,8.678-0.213,12.065   c3.276,3.387,8.678,3.481,12.065,0.213c0.068-0.068,0.137-0.137,0.213-0.213l36.203-36.203c3.276-3.387,3.183-8.788-0.213-12.065   C427.452,69.284,422.213,69.284,418.903,72.475z" fill="#231f20"/><path d="M304.269,187.109l-37.389,37.381c-6.928-3.089-14.838-3.089-21.766,0l-25.316-25.316   c-3.387-3.276-8.788-3.183-12.065,0.213c-3.191,3.311-3.191,8.55,0,11.852l25.231,25.231c-6.084,12.739-0.691,27.987,12.048,34.07   c9.778,4.667,21.434,2.671,29.087-4.991l0,0c7.696-7.637,9.684-19.326,4.932-29.07l37.295-37.295   c3.276-3.387,3.183-8.788-0.213-12.065c-3.311-3.191-8.55-3.191-11.852,0L304.269,187.109z M262.033,253.474L262.033,253.474   c-3.37,3.225-8.695,3.225-12.065,0c-3.336-3.328-3.336-8.737,0-12.065c3.336-3.328,8.737-3.336,12.065,0   C265.369,244.737,265.369,250.138,262.033,253.474L262.033,253.474z" fill="#231f20"/><path d="M256,119.455c-70.683,0-127.987,57.304-127.987,127.987S185.317,375.429,256,375.429   s127.987-57.304,127.987-127.987C383.911,176.793,326.649,119.532,256,119.455z M264.533,357.929v-25.162   c0-4.71-3.823-8.532-8.532-8.532s-8.532,3.823-8.532,8.532v25.162c-54.454-4.249-97.705-47.5-101.955-101.955h25.162   c4.71,0,8.532-3.823,8.532-8.532s-3.823-8.532-8.532-8.532h-25.162c4.249-54.454,47.5-97.705,101.955-101.955v25.162   c0,4.71,3.823,8.532,8.532,8.532c4.71,0,8.533-3.823,8.533-8.532v-25.162c54.454,4.249,97.705,47.5,101.955,101.955h-25.162   c-4.71,0-8.532,3.823-8.532,8.532s3.823,8.532,8.532,8.532h25.162C362.238,310.429,318.987,353.68,264.533,357.929z" fill="#231f20"/></g></g><g transform="matrix(0.07812424004077911 0 0 0.07812424004077911 67.5 67.5)" id="L1_813"><g><path d="M131.282,117.103l-26.085-26.085l-48.196,48.196l26.085,26.085   C96.479,146.762,112.754,130.495,131.282,117.103z" fill="#d80027"/><path d="M428.944,165.298l26.085-26.085l-48.196-48.196l-26.085,26.085   C399.276,130.495,415.551,146.762,428.944,165.298z" fill="#d80027"/></g><path d="M256.011,503.282c117.751,0.026,213.23-95.402,213.255-213.153  c0.009-44.818-14.1-88.492-40.331-124.831l0,0l0,0c-13.392-18.536-29.66-34.803-48.196-48.196l0,0l0,0  c-74.46-53.774-174.997-53.774-249.457,0l0,0l0,0c-18.536,13.392-34.803,29.66-48.196,48.196l0,0l0,0  C14.171,260.777,35.71,394.036,131.18,462.951C167.527,489.182,211.202,503.291,256.011,503.282z M100.991,200.528l-0.119-0.068  L100.991,200.528c15.738-27.186,38.335-49.782,65.521-65.521l-0.068-0.119l0.068,0.119c55.335-32.15,123.662-32.15,178.998,0  l0.068-0.119l-0.068,0.119c27.186,15.738,49.782,38.335,65.521,65.521l0.119-0.068l-0.119,0.068  c32.15,55.335,32.15,123.662,0,178.998l0.119,0.068l-0.119-0.068c-15.738,27.186-38.335,49.782-65.521,65.521l0.068,0.119  l-0.068-0.119c-55.335,32.15-123.662,32.15-178.998,0l-0.068,0.119l0.068-0.119c-27.186-15.738-49.782-38.335-65.521-65.521  l-0.119,0.068l0.119-0.068c-15.789-27.186-24.106-58.057-24.115-89.499c0-2.883,0.299-5.681,0.427-8.53l0,0  C78.6,252.997,86.72,225.232,100.991,200.528z" fill="#ffaf46"/><path d="M100.991,379.526l29.438-16.992L100.991,379.526c15.738,27.186,38.335,49.782,65.521,65.521  l16.992-29.438l-16.992,29.438c27.186,15.798,58.065,24.115,89.499,24.115l0,0c31.442,0,62.313-8.317,89.499-24.115l-16.992-29.438  l16.992,29.438c27.186-15.738,49.782-38.335,65.521-65.521l-29.429-16.992l29.438,16.992c15.798-27.186,24.115-58.057,24.115-89.499  l0,0c0-31.442-8.317-62.313-24.115-89.499l-29.438,16.992l29.438-16.992c-15.738-27.186-38.335-49.782-65.521-65.521l-16.992,29.438  l16.992-29.438c-27.186-15.798-58.065-24.115-89.507-24.115l0,0c-31.442,0-62.313,8.317-89.499,24.115l16.992,29.438l-16.992-29.438  c-27.186,15.738-49.782,38.335-65.521,65.521l29.438,16.992l-29.438-16.992C86.72,225.232,78.6,252.997,77.303,281.497l0,0  c-0.128,2.849-0.427,5.647-0.427,8.53C76.885,321.469,85.202,352.34,100.991,379.526z M256.011,272.967L256.011,272.967  c9.426,0,17.06,7.635,17.06,17.06s-7.635,17.06-17.06,17.06s-17.06-7.635-17.06-17.06S246.593,272.967,256.011,272.967z" fill="#ffeb99"/><circle cx="255" cy="290" r="17" fill="#ffda44"/><g><path d="M439.999,166.339l21.061-21.061c3.327-3.327,3.327-8.735,0-12.062l-48.196-48.196   c-3.386-3.199-8.675-3.199-12.062,0l-21.095,21.027c-34.121-23.04-74.017-36.057-115.158-37.593V17.06h42.651   c4.709,0,8.53-3.822,8.53-8.53S311.909,0,307.201,0H204.838c-4.709,0-8.53,3.822-8.53,8.53s3.822,8.53,8.53,8.53h42.651v51.394   c-41.141,1.535-81.037,14.553-115.158,37.593L111.27,84.986c-3.335-3.327-8.726-3.327-12.062,0l-48.196,48.196   c-3.327,3.327-3.327,8.735,0,12.062l21.018,21.095C3.628,267.951,30.549,405.773,132.152,474.177s239.434,41.482,307.838-60.121   C490.404,339.17,490.404,241.217,439.999,166.339z M406.833,103.079l36.134,36.134l-13.205,13.205   c-10.629-13.384-22.75-25.505-36.134-36.134L406.833,103.079z M69.037,139.213l36.134-36.134l13.205,13.205   c-13.384,10.629-25.505,22.75-36.134,36.134L69.037,139.213z M256.011,494.752c-113.068,0-204.725-91.657-204.725-204.725   S142.943,85.302,256.011,85.302s204.725,91.657,204.725,204.725C460.608,403.035,369.027,494.624,256.011,494.752z" fill="#231f20"/><path d="M418.69,383.416c33.336-57.809,33.336-129.002,0-186.812c-0.068-0.145-0.068-0.299-0.145-0.444   s-0.222-0.213-0.307-0.341c-16.429-28.167-39.87-51.608-68.037-68.045c-0.136-0.085-0.213-0.222-0.35-0.307   s-0.299-0.077-0.444-0.145c-57.809-33.336-129.002-33.336-186.812,0c-0.145,0.068-0.299,0.068-0.444,0.145   c-0.145,0.077-0.213,0.222-0.35,0.307c-28.167,16.429-51.608,39.87-68.037,68.037c-0.085,0.136-0.222,0.213-0.307,0.35   s-0.077,0.299-0.145,0.444c-14.74,25.514-23.219,54.167-24.738,83.596c-0.111,0.426-0.188,0.862-0.23,1.297   c0.043,0.324,0.111,0.64,0.196,0.955c-0.102,2.516-0.196,5.033-0.196,7.575c-0.026,32.782,8.598,65,24.994,93.389   c0.068,0.145,0.068,0.299,0.145,0.444c0.077,0.145,0.29,0.35,0.418,0.537c16.429,28.081,39.828,51.454,67.926,67.849   c0.136,0.085,0.213,0.222,0.35,0.307s0.435,0.162,0.648,0.264c57.698,33.165,128.67,33.165,186.368,0   c0.213-0.102,0.435-0.145,0.648-0.264c0.213-0.119,0.213-0.222,0.35-0.307c28.09-16.404,51.471-39.768,67.892-67.849   c0.128-0.188,0.299-0.333,0.418-0.537S418.622,383.561,418.69,383.416z M348.504,433.172l-12.599-21.82   c-2.329-4.095-7.532-5.528-11.635-3.199c-4.094,2.329-5.528,7.532-3.199,11.635c0.017,0.034,0.034,0.068,0.06,0.102l12.608,21.829   c-21.479,11.03-45.074,17.333-69.197,18.485V417.98c0-4.709-3.822-8.53-8.53-8.53s-8.53,3.822-8.53,8.53v42.216   c-24.123-1.152-47.718-7.455-69.197-18.485l12.608-21.829c2.38-4.06,1.015-9.289-3.045-11.669c-4.06-2.38-9.289-1.015-11.669,3.045   c-0.017,0.034-0.034,0.068-0.06,0.094l-12.599,21.82c-20.259-13.137-37.516-30.393-50.652-50.652l21.82-12.599   c4.094-2.329,5.528-7.532,3.199-11.635c-2.329-4.095-7.532-5.528-11.635-3.199c-0.034,0.017-0.068,0.034-0.102,0.06l-21.829,12.608   c-12.42-24.03-18.911-50.678-18.92-77.727h42.651c4.709,0,8.53-3.822,8.53-8.53c0-4.709-3.822-8.53-8.53-8.53H86.251   c2.15-21.18,8.274-41.764,18.058-60.667l21.829,12.608c4.06,2.38,9.289,1.015,11.669-3.045c2.38-4.06,1.015-9.289-3.045-11.669   c-0.034-0.017-0.068-0.034-0.094-0.06l-21.82-12.599c13.137-20.259,30.393-37.516,50.652-50.652l12.599,21.82   c2.329,4.094,7.532,5.528,11.635,3.199c4.094-2.329,5.528-7.532,3.199-11.635c-0.017-0.034-0.034-0.068-0.06-0.094l-12.608-21.829   c21.488-11.03,45.082-17.333,69.206-18.485v42.216c0,4.709,3.822,8.53,8.53,8.53c4.709,0,8.53-3.822,8.53-8.53v-42.216   c24.123,1.152,47.718,7.455,69.197,18.485l-12.608,21.829c-2.38,4.06-1.024,9.289,3.045,11.669   c4.069,2.38,9.289,1.024,11.669-3.045c0.017-0.034,0.043-0.068,0.06-0.102l12.599-21.82c20.259,13.137,37.516,30.393,50.652,50.652   l-21.82,12.599c-4.094,2.329-5.528,7.532-3.199,11.635c2.329,4.103,7.532,5.528,11.635,3.199c0.034-0.017,0.068-0.034,0.094-0.06   l21.829-12.608c11.03,21.479,17.333,45.074,18.485,69.197h-50.746c-4.709,0-8.53,3.822-8.53,8.53s3.822,8.53,8.53,8.53h50.746   c-1.152,24.123-7.455,47.718-18.485,69.197l-21.829-12.608c-4.06-2.38-9.289-1.024-11.669,3.045   c-2.38,4.06-1.024,9.289,3.045,11.669c0.034,0.017,0.068,0.043,0.102,0.06l21.82,12.599   C386.028,402.779,368.763,420.036,348.504,433.172z" fill="#231f20"/><path d="M264.541,266.006v-69.811c0-4.709-3.822-8.53-8.53-8.53c-4.709,0-8.53,3.822-8.53,8.53v69.811   c-13.324,4.709-20.31,19.329-15.593,32.654c4.709,13.324,19.329,20.31,32.654,15.593c13.324-4.709,20.31-19.329,15.593-32.654   C277.567,274.314,271.834,268.582,264.541,266.006z M256.011,298.557c-4.709,0-8.53-3.822-8.53-8.53c0-4.709,3.822-8.53,8.53-8.53   c4.709,0,8.53,3.822,8.53,8.53C264.541,294.736,260.728,298.557,256.011,298.557z" fill="#231f20"/></g></g></defs><g fi:class="KUsePattern"><pattern id="pattern_L1_804" width="350" height="350" patternUnits="userSpaceOnUse"><use xlink:href="#L1_804" x="-350" y="-350"/><use xlink:href="#L1_804" x="0" y="-350"/><use xlink:href="#L1_804" x="350" y="-350"/><use xlink:href="#L1_804" x="-350" y="0"/><use xlink:href="#L1_804" x="0" y="0"/><use xlink:href="#L1_804" x="350" y="0"/><use xlink:href="#L1_804" x="-350" y="350"/><use xlink:href="#L1_804" x="0" y="350"/><use xlink:href="#L1_804" x="350" y="350"/></pattern><rect x="0" y="0" width="100%" height="100%" fill="url(#pattern_L1_804)"/></g><g fi:class="KUsePattern"><pattern id="pattern_L1_805" width="350" height="350" patternUnits="userSpaceOnUse"><use xlink:href="#L1_805" x="-350" y="-350"/><use xlink:href="#L1_805" x="0" y="-350"/><use xlink:href="#L1_805" x="350" y="-350"/><use xlink:href="#L1_805" x="-350" y="0"/><use xlink:href="#L1_805" x="0" y="0"/><use xlink:href="#L1_805" x="350" y="0"/><use xlink:href="#L1_805" x="-350" y="350"/><use xlink:href="#L1_805" x="0" y="350"/><use xlink:href="#L1_805" x="350" y="350"/></pattern><rect x="0" y="0" width="100%" height="100%" fill="url(#pattern_L1_805)"/></g><g fi:class="KUsePattern"><pattern id="pattern_L1_806" width="350" height="350" patternUnits="userSpaceOnUse"><use xlink:href="#L1_806" x="-350" y="-350"/><use xlink:href="#L1_806" x="0" y="-350"/><use xlink:href="#L1_806" x="350" y="-350"/><use xlink:href="#L1_806" x="-350" y="0"/><use xlink:href="#L1_806" x="0" y="0"/><use xlink:href="#L1_806" x="350" y="0"/><use xlink:href="#L1_806" x="-350" y="350"/><use xlink:href="#L1_806" x="0" y="350"/><use xlink:href="#L1_806" x="350" y="350"/></pattern><rect x="0" y="0" width="100%" height="100%" fill="url(#pattern_L1_806)"/></g><g fi:class="KUsePattern"><pattern id="pattern_L1_807" width="350" height="350" patternUnits="userSpaceOnUse"><use xlink:href="#L1_807" x="-350" y="-350"/><use xlink:href="#L1_807" x="0" y="-350"/><use xlink:href="#L1_807" x="350" y="-350"/><use xlink:href="#L1_807" x="-350" y="0"/><use xlink:href="#L1_807" x="0" y="0"/><use xlink:href="#L1_807" x="350" y="0"/><use xlink:href="#L1_807" x="-350" y="350"/><use xlink:href="#L1_807" x="0" y="350"/><use xlink:href="#L1_807" x="350" y="350"/></pattern><rect x="0" y="0" width="100%" height="100%" fill="url(#pattern_L1_807)"/></g><g fi:class="KUsePattern"><pattern id="pattern_L1_808" width="350" height="350" patternUnits="userSpaceOnUse"><use xlink:href="#L1_808" x="-350" y="-350"/><use xlink:href="#L1_808" x="0" y="-350"/><use xlink:href="#L1_808" x="350" y="-350"/><use xlink:href="#L1_808" x="-350" y="0"/><use xlink:href="#L1_808" x="0" y="0"/><use xlink:href="#L1_808" x="350" y="0"/><use xlink:href="#L1_808" x="-350" y="350"/><use xlink:href="#L1_808" x="0" y="350"/><use xlink:href="#L1_808" x="350" y="350"/></pattern><rect x="0" y="0" width="100%" height="100%" fill="url(#pattern_L1_808)"/></g><g fi:class="KUsePattern"><pattern id="pattern_L1_809" width="350" height="350" patternUnits="userSpaceOnUse"><use xlink:href="#L1_809" x="-350" y="-350"/><use xlink:href="#L1_809" x="0" y="-350"/><use xlink:href="#L1_809" x="350" y="-350"/><use xlink:href="#L1_809" x="-350" y="0"/><use xlink:href="#L1_809" x="0" y="0"/><use xlink:href="#L1_809" x="350" y="0"/><use xlink:href="#L1_809" x="-350" y="350"/><use xlink:href="#L1_809" x="0" y="350"/><use xlink:href="#L1_809" x="350" y="350"/></pattern><rect x="0" y="0" width="100%" height="100%" fill="url(#pattern_L1_809)"/></g><g fi:class="KUsePattern"><pattern id="pattern_L1_810" width="350" height="350" patternUnits="userSpaceOnUse"><use xlink:href="#L1_810" x="-350" y="-350"/><use xlink:href="#L1_810" x="0" y="-350"/><use xlink:href="#L1_810" x="350" y="-350"/><use xlink:href="#L1_810" x="-350" y="0"/><use xlink:href="#L1_810" x="0" y="0"/><use xlink:href="#L1_810" x="350" y="0"/><use xlink:href="#L1_810" x="-350" y="350"/><use xlink:href="#L1_810" x="0" y="350"/><use xlink:href="#L1_810" x="350" y="350"/></pattern><rect x="0" y="0" width="100%" height="100%" fill="url(#pattern_L1_810)"/></g><g fi:class="KUsePattern"><pattern id="pattern_L1_811" width="350" height="350" patternUnits="userSpaceOnUse"><use xlink:href="#L1_811" x="-350" y="-350"/><use xlink:href="#L1_811" x="0" y="-350"/><use xlink:href="#L1_811" x="350" y="-350"/><use xlink:href="#L1_811" x="-350" y="0"/><use xlink:href="#L1_811" x="0" y="0"/><use xlink:href="#L1_811" x="350" y="0"/><use xlink:href="#L1_811" x="-350" y="350"/><use xlink:href="#L1_811" x="0" y="350"/><use xlink:href="#L1_811" x="350" y="350"/></pattern><rect x="0" y="0" width="100%" height="100%" fill="url(#pattern_L1_811)"/></g><g fi:class="KUsePattern"><pattern id="pattern_L1_812" width="350" height="350" patternUnits="userSpaceOnUse"><use xlink:href="#L1_812" x="-350" y="-350"/><use xlink:href="#L1_812" x="0" y="-350"/><use xlink:href="#L1_812" x="350" y="-350"/><use xlink:href="#L1_812" x="-350" y="0"/><use xlink:href="#L1_812" x="0" y="0"/><use xlink:href="#L1_812" x="350" y="0"/><use xlink:href="#L1_812" x="-350" y="350"/><use xlink:href="#L1_812" x="0" y="350"/><use xlink:href="#L1_812" x="350" y="350"/></pattern><rect x="0" y="0" width="100%" height="100%" fill="url(#pattern_L1_812)"/></g><g fi:class="KUsePattern"><pattern id="pattern_L1_813" width="350" height="350" patternUnits="userSpaceOnUse"><use xlink:href="#L1_813" x="-350" y="-350"/><use xlink:href="#L1_813" x="0" y="-350"/><use xlink:href="#L1_813" x="350" y="-350"/><use xlink:href="#L1_813" x="-350" y="0"/><use xlink:href="#L1_813" x="0" y="0"/><use xlink:href="#L1_813" x="350" y="0"/><use xlink:href="#L1_813" x="-350" y="350"/><use xlink:href="#L1_813" x="0" y="350"/><use xlink:href="#L1_813" x="350" y="350"/></pattern><rect x="0" y="0" width="100%" height="100%" fill="url(#pattern_L1_813)"/></g></svg>